<?xml version="1.0" encoding="UTF-8" standalone="no"?>
<svg
   width="135.11388mm"
   viewBox="17 0 383 143"
   height="50.44722mm"
   version="1.1"
   id="svg697"
   sodipodi:docname="cimlap.svg"
   inkscape:version="1.2.2 (b0a8486541, 2022-12-01)"
   xmlns:inkscape="http://www.inkscape.org/namespaces/inkscape"
   xmlns:sodipodi="http://sodipodi.sourceforge.net/DTD/sodipodi-0.dtd"
   xmlns="http://www.w3.org/2000/svg"
   xmlns:svg="http://www.w3.org/2000/svg">
  <sodipodi:namedview
     id="namedview57"
     pagecolor="#ffffff"
     bordercolor="#666666"
     borderopacity="1.0"
     inkscape:showpageshadow="2"
     inkscape:pageopacity="0.0"
     inkscape:pagecheckerboard="0"
     inkscape:deskcolor="#d1d1d1"
     inkscape:document-units="mm"
     showgrid="false"
     inkscape:zoom="2.4755246"
     inkscape:cx="256.10733"
     inkscape:cy="96.74717"
     inkscape:window-width="1856"
     inkscape:window-height="1131"
     inkscape:window-x="64"
     inkscape:window-y="32"
     inkscape:window-maximized="1"
     inkscape:current-layer="svg697" />
  <defs
     id="defs8">
    <clipPath
       id="Clip1">
      <path
         d="M 0,0 H 412.247 V 119.02 H 0 Z"
         id="path5" />
    </clipPath>
  </defs>
  <g
     transform="matrix(0.958487,0,0,0.957828,-0.083014,19.490299)"
     clip-path="url(#Clip1)"
     id="Copy of layer1 (3)"
     clip-rule="evenodd"
     style="fill:none;stroke:none">
    <path
       transform="translate(209.055,20.8258)"
       d="m 27.154,0 c 0.0562,0.039527 0.1119,0.0800592 0.167,0.121581 0.1749,0.140525 0.3431,0.291121 0.5039,0.451171 0.1602,0.160469 0.3128,0.330135 0.457,0.508298 0.1445,0.17803 0.2804,0.36432 0.4072,0.55811 0.1271,0.19371 0.245,0.39467 0.3531,0.60205 0.1081,0.20753 0.2064,0.4212 0.2944,0.64014 0.0876,0.21851 0.1649,0.44196 0.2315,0.66943 0.0665,0.22805 0.1223,0.45981 0.1669,0.69434 0.0449,0.23421 0.0786,0.47086 0.1011,0.70898 0.023,0.23793 0.0347,0.47702 0.0352,0.71631 -2e-4,0.71981 -0.1025,1.43511 -0.3032,2.11963 -0.2007,0.68492 -0.4973,1.33052 -0.879,1.91308 -0.3814,0.58238 -0.8431,1.09448 -1.3681,1.51758 -0.5246,0.4229 -1.106,0.7516 -1.7227,0.9741 -0.6174,0.2224 -1.2625,0.3356 -1.9116,0.3355 -0.6486,0 -1.2932,-0.1132 -1.9102,-0.3355 -0.1321,-0.0681 -0.2621,-0.1414 -0.3896,-0.2197 -6.4,1.5978 -11.3204,3.1784 -14.75976,4.7432 0.00145,0.0117 0.00287,0.0234 0.00425,0.0351 0.0124,0.1603 0.01874,0.3211 0.01899,0.482 7e-5,0.4827 -0.05459,0.9633 -0.16259,1.4296 -0.10845,0.4672 -0.26949,0.9158 -0.479,1.3345 C 5.79971,20.4176 5.54411,20.8022 5.24854,21.1436 4.95311,21.4852 4.62019,21.7807 4.2583,22.0225 3.89608,22.264 3.508,22.4497 3.104,22.5747 2.70026,22.6994 2.28412,22.7624 1.86621,22.7622 1.4478,22.7626 1.03116,22.6995 0.626953,22.5747 0.536998,22.5353 0.448091,22.4928 0.360354,22.4473 0.120515,23.1736 0,23.9446 0,24.7617 c 0,2.1215 0.855615,3.898 2.5664,5.3277 1.76598,1.3835 3.9736,2.0742 6.62256,2.0742 2.71824,0 5.41534,-0.6221 8.09184,-1.8633 -0.0883,-0.1805 -0.1651,-0.3649 -0.23,-0.5523 -0.109,-0.4017 -0.1641,-0.8125 -0.1641,-1.2246 2e-4,-0.4116 0.0552,-0.8219 0.1641,-1.2231 0.109,-0.4012 0.2711,-0.7909 0.4834,-1.1616 0.212,-0.3711 0.473,-0.721 0.7778,-1.043 0.305,-0.3217 0.6519,-0.6136 1.0342,-0.8701 0.3822,-0.2566 0.7974,-0.4762 1.2378,-0.6548 0.4404,-0.1788 0.9033,-0.3154 1.3799,-0.4072 0.4767,-0.0916 0.9641,-0.1378 1.4531,-0.1377 0.1711,2e-4 0.3421,0.006 0.5127,0.0175 0.1706,0.011 0.3407,0.0276 0.5098,0.0498 0.1687,0.0228 0.3363,0.0512 0.5024,0.085 0.1663,0.0336 0.331,0.0727 0.4937,0.1172 0.1624,0.0445 0.3226,0.0943 0.4804,0.1494 0.158,0.0549 0.3134,0.115 0.4658,0.1802 0.1522,0.0653 0.3012,0.1357 0.4468,0.2109 0.1458,0.0753 0.288,0.1555 0.4263,0.2402 0.1384,0.0844 0.2727,0.1734 0.4028,0.2666 0.13,0.094 0.2556,0.1922 0.3765,0.2945 0.1211,0.1015 0.2374,0.2071 0.3486,0.3164 0.1112,0.1092 0.2172,0.2221 0.3179,0.3383 0.1003,0.1165 0.1951,0.2362 0.2842,0.3589 0.0893,0.1232 0.1729,0.2493 0.2505,0.378 0.0778,0.1279 0.1496,0.2584 0.2153,0.3911 0.0654,0.1332 0.1245,0.2686 0.1772,0.4057 0.0528,0.1366 0.0993,0.2749 0.1392,0.4146 0.0398,0.1399 0.073,0.2812 0.0996,0.4233 0.0267,0.1424 0.0467,0.2856 0.0601,0.4292 0.0134,0.1433 0.0203,0.287 0.0204,0.4307 0,0.4121 -0.0551,0.8229 -0.1641,1.2246 -0.1085,0.4012 -0.2702,0.7908 -0.4819,1.1616 -0.2127,0.3707 -0.4741,0.72 -0.7793,1.0415 -0.0748,0.0661 -0.1515,0.1306 -0.23,0.1934 0.2466,0.0122 0.5016,0.019 0.7646,0.019 3.2561,0 6.3461,-1.3146 9.271,-3.9434 l -1.2422,-1.5219 -0.8276,0.6928 c -0.2207,0.1845 -0.4965,0.2769 -0.8276,0.2769 -1.2141,0 -1.8208,-0.5771 -1.8208,-1.73 V 7.9511 c 0,-2.95163 -1.4906,-5.2809 -4.4707,-6.987308 C 28.5237,0.604991 27.8618,0.283363 27.154,0 Z"
       id="Copy of  path331540 (2)"
       style="fill:#ffffff;fill-opacity:0;fill-rule:nonzero;stroke:#000000;stroke-width:1.55855;stroke-linecap:butt;stroke-linejoin:miter;stroke-dasharray:none" />
    <path
       transform="translate(162.617,19.2306)"
       d="M 26.4067,0 C 23.9233,-8.5039e-7 21.8811,0.437698 20.2808,1.31396 18.6803,2.14411 17.2449,3.55105 15.9756,5.53418 V 0.830566 H 0.165523 V 2.49023 C 1.9315,2.72083 3.11804,3.11307 3.7251,3.6665 4.33215,4.17382 4.63477,5.14159 4.63477,6.57129 V 41.231 c 0,1.4297 -0.27579,2.3747 -0.82764,2.8359 C 3.25526,44.5742 1.98672,44.9892 0,45.312 v 1.5908 H 22.5161 V 45.52 c -2.4834,-0.0922 -4.1663,-0.5996 -5.0493,-1.522 -0.883,-0.8762 -1.3257,-2.4679 -1.3257,-4.7739 v -6.6035 c -0.1755,-0.0216 -0.35,-0.0519 -0.5229,-0.0908 -0.5827,-0.207 -1.1319,-0.513 -1.6275,-0.9068 -0.4952,-0.3937 -0.9307,-0.8702 -1.2905,-1.4121 -0.36,-0.542 -0.6398,-1.1426 -0.8291,-1.7797 -0.1893,-0.6373 -0.2857,-1.3032 -0.2857,-1.9732 0,-0.67 0.0964,-1.3359 0.2857,-1.9731 0.1893,-0.6372 0.4691,-1.2378 0.8291,-1.7798 0.3598,-0.5419 0.7953,-1.0184 1.2905,-1.4121 0.4956,-0.3938 1.0448,-0.6998 1.6275,-0.9068 0.1729,-0.0389 0.3474,-0.0692 0.5229,-0.0908 V 8.78613 c 0,-0.78402 0.7736,-1.77599 2.3189,-2.97509 1.5452,-1.24522 3.1446,-1.86768 4.8003,-1.86768 1.7322,0 3.1066,0.74797 4.1235,2.24268 0.0865,-0.19435 0.1843,-0.38363 0.293,-0.5669 0.3463,-0.46941 0.7655,-0.88218 1.2421,-1.22314 0.4765,-0.34096 1.0044,-0.60592 1.5645,-0.78516 0.5601,-0.17943 1.1454,-0.27089 1.7344,-0.271 0.2262,2.3e-4 0.4522,0.01392 0.6767,0.04102 0.2244,0.02678 0.447,0.06689 0.6665,0.12012 0.2192,0.05354 0.435,0.12006 0.646,0.19922 0.2115,0.07895 0.4179,0.17043 0.6182,0.27392 0.2002,0.10314 0.3939,0.2181 0.5801,0.34424 0.186,0.12698 0.3641,0.26492 0.5332,0.41309 0.1691,0.14758 0.3291,0.30509 0.479,0.47168 0.1503,0.1668 0.2902,0.34242 0.4189,0.52587 0.1283,0.18332 0.2452,0.37409 0.3501,0.57129 0.1051,0.19694 0.1981,0.39994 0.2784,0.60791 0.0804,0.20868 0.1479,0.42196 0.2021,0.63868 0.0539,0.21614 0.0945,0.43528 0.1216,0.65624 0.0273,0.22116 0.041,0.44373 0.041,0.66651 -3e-4,0.58004 -0.0932,1.15647 -0.2754,1.70797 -0.1818,0.5522 -0.4507,1.0728 -0.7969,1.5425 -0.3459,0.4693 -0.7646,0.8821 -1.2407,1.2232 -0.4764,0.3409 -1.0044,0.6059 -1.5644,0.7851 -0.5602,0.1795 -1.1454,0.2709 -1.7344,0.271 -0.589,-10e-5 -1.1743,-0.0915 -1.7344,-0.271 -0.3716,-0.1397 -0.7272,-0.3179 -1.0605,-0.5317 0.0858,1.0741 0.1289,2.2373 0.1289,3.4907 0,8.4859 -2.3448,12.728 -7.0357,12.728 -0.0631,0 -0.1252,-0.0016 -0.1875,-0.0028 -0.0577,0.1351 -0.1198,0.268 -0.186,0.3984 -0.3598,0.5419 -0.7953,1.0184 -1.2906,1.4121 -0.2864,0.1957 -0.5878,0.3638 -0.9009,0.5025 0.4376,0.2405 0.8516,0.4401 1.2408,0.5962 1.3796,0.5995 2.9791,0.8994 4.8003,0.8994 4.5805,0 8.3607,-1.6144 11.3408,-4.8428 2.9801,-3.2745 4.4707,-7.4711 4.4707,-12.5903 0,-4.8425 -1.4072,-8.73931 -4.2217,-11.69094 C 34.7675,1.49932 31.0424,-8.5039e-7 26.4067,0 m 37.251,0 c -4.6909,0 -8.4711,0.807213 -11.3408,2.42139 -2.8697,1.61417 -4.3052,3.71175 -4.3052,6.29443 0,1.42968 0.4412,2.56098 1.3242,3.39108 0.9382,0.7841 2.2634,1.1748 3.9742,1.1748 1.7107,0 3.0896,-0.368 4.1381,-1.1059 1.0486,-0.7379 1.5733,-1.683 1.5733,-2.83596 0,-0.9685 -0.4413,-1.91501 -1.3242,-2.8374 -0.8278,-0.92238 -1.2422,-1.49792 -1.2422,-1.72851 0,-0.73791 0.4964,-1.33764 1.4897,-1.79883 1.0486,-0.50731 2.2903,-0.76172 3.7251,-0.76172 1.5492,0 2.8292,0.1975 3.8394,0.5918 C 65.7986,2.40268 66.1278,2.03759 66.4907,1.7168 67.0158,1.29375 67.5976,0.96502 68.2148,0.742675 68.6832,0.596263 69.1656,0.511693 69.6519,0.490721 67.8548,0.163497 65.8573,-8.5039e-7 63.6577,0 v 0"
       id="Copy of  path331532 (2)"
       style="fill:#ffffff;fill-opacity:0;fill-rule:nonzero;stroke:#000000;stroke-width:1.55855;stroke-linecap:butt;stroke-linejoin:miter;stroke-dasharray:none" />
    <path
       transform="translate(21.394,5.1183)"
       d="m 12.3648,0 c 0.0064,0.0214505 0.0128,0.0429355 0.019,0.0644542 0.0129,0.0486788 0.0251,0.0975098 0.0366,0.1464828 0.0119,0.048692 0.0231,0.097525 0.0337,0.146486 0.0109,0.049191 0.0212,0.098511 0.0308,0.147949 0.0089,0.049215 0.0172,0.098535 0.0249,0.147949 0.0079,0.049226 0.0153,0.098546 0.0219,0.147948 0.0071,0.049726 0.0134,0.099535 0.0191,0.149414 0.005,0.049747 0.0094,0.099557 0.0132,0.149417 0.0041,0.05025 0.0075,0.10054 0.0102,0.15088 0.0026,0.04978 0.0046,0.09959 0.0059,0.14941 0,4.9e-4 0,9.8e-4 0,0.00147 0,4.8e-4 0,9.7e-4 0,0.00146 0,4.9e-4 0,9.8e-4 0,0.00147 0,4.8e-4 0,9.7e-4 0,0.00146 0,4.9e-4 0,9.8e-4 0,0.00147 0,4.8e-4 0,9.7e-4 0,0.00146 0,4.9e-4 0,9.8e-4 0,0.00147 0,4.8e-4 0,9.7e-4 0,0.00146 0,4.9e-4 0,9.8e-4 0,0.00146 0,4.9e-4 0,9.8e-4 0,0.00147 0,4.9e-4 0,9.8e-4 0,0.00146 0,4.9e-4 0,9.8e-4 0,0.00147 0,4.9e-4 0,9.8e-4 0,0.00146 0,4.9e-4 0,9.8e-4 0,0.00147 0,4.9e-4 0,9.8e-4 0,0.00146 0,4.9e-4 0,9.8e-4 0,0.00147 0,4.9e-4 0,9.8e-4 0,0.00146 0,4.9e-4 0,9.8e-4 0,0.00147 0,4.9e-4 0,9.7e-4 0,0.00146 0,4.9e-4 0,9.8e-4 0,0.00147 0,4.9e-4 0,9.7e-4 0,0.00146 0,4.9e-4 0,9.8e-4 0,0.00147 0,4.9e-4 0,9.7e-4 0,0.00146 5e-4,0.00147 10e-4,0.00293 0.0015,0.0044 0,4.8e-4 0,9.7e-4 0,0.00146 0,4.9e-4 0,9.8e-4 0,0.00147 0,4.8e-4 0,9.7e-4 0,0.00146 0,4.9e-4 0,9.8e-4 0,0.00147 0,4.8e-4 0,9.7e-4 0,0.00146 0,4.9e-4 0,9.8e-4 0,0.00147 0,4.8e-4 0,9.7e-4 0,0.00146 0,4.9e-4 0,9.8e-4 0,0.00147 0,4.8e-4 0,9.7e-4 0,0.00146 0,4.9e-4 0,9.8e-4 0,0.00146 0,4.9e-4 0,9.8e-4 0,0.00147 0,4.9e-4 0,9.8e-4 0,0.00147 0,4.8e-4 0,9.7e-4 0,0.00146 0,4.9e-4 0,9.8e-4 0,0.00146 0,4.9e-4 0,9.8e-4 0,0.00147 0,4.9e-4 0,9.8e-4 0,0.00146 0,4.9e-4 0,9.8e-4 0,0.00147 0,4.9e-4 0,9.8e-4 0,0.00146 0,4.9e-4 0,9.8e-4 0,0.00147 0,4.9e-4 0,9.7e-4 0,0.00146 0,4.9e-4 0,9.8e-4 0,0.00147 0,4.9e-4 0,9.8e-4 0,0.00146 0,4.9e-4 0,9.8e-4 0,0.00147 0,4.9e-4 0,9.7e-4 0,0.00146 0,4.9e-4 0,9.8e-4 0,0.00147 0,4.9e-4 0,9.7e-4 0,0.00146 0,4.9e-4 0,9.8e-4 0,0.00147 0,4.9e-4 0,9.7e-4 0,0.00146 0,4.9e-4 0,9.8e-4 0,0.00147 0,4.9e-4 0,9.7e-4 0,0.00146 0,4.9e-4 0,9.8e-4 0,0.00147 0,4.9e-4 0,9.7e-4 0,0.00146 0,4.9e-4 0,9.8e-4 0,0.00147 0,4.8e-4 0,9.7e-4 0,0.00146 0,4.9e-4 0,9.8e-4 0,0.00147 0,4.8e-4 0,9.7e-4 0,0.00146 0,4.9e-4 0,9.8e-4 0,0.00147 0,4.8e-4 0,9.7e-4 0,0.00146 0,4.9e-4 0,9.8e-4 0,0.00147 0,4.8e-4 0,9.7e-4 0,0.00146 0,4.9e-4 0,9.8e-4 0,0.00147 0,4.8e-4 0,9.7e-4 0,0.00146 0,4.9e-4 0,9.8e-4 0,0.00146 0,4.9e-4 0,9.8e-4 0,0.00147 0,4.9e-4 0,9.8e-4 0,0.00146 0,4.9e-4 0,9.8e-4 0,0.00147 0,4.9e-4 0,9.8e-4 0,0.00146 0,4.9e-4 0,9.8e-4 0,0.00147 0,4.9e-4 0,9.8e-4 0,0.00146 0,4.9e-4 0,9.8e-4 0,0.00147 0,4.9e-4 0,9.8e-4 0,0.00146 0,4.9e-4 0,9.8e-4 0,0.00147 0,4.9e-4 0,9.8e-4 0,0.00146 0,4.9e-4 0,9.8e-4 0,0.00147 0,4.9e-4 0,9.7e-4 0,0.00146 0,4.9e-4 0,9.8e-4 0,0.00147 0,4.9e-4 0,9.7e-4 0,0.00146 0,4.9e-4 0,9.8e-4 0,0.00147 0,4.9e-4 0,9.7e-4 0,0.00146 0,4.9e-4 0,9.8e-4 0,0.00147 0,4.9e-4 0,9.7e-4 0,0.00146 0,4.9e-4 0,9.8e-4 0,0.00147 0,4.9e-4 0,9.7e-4 0,0.00146 0,4.9e-4 0,9.8e-4 0,0.00147 0,4.8e-4 0,9.7e-4 0,0.00146 0,4.9e-4 0,9.8e-4 0,0.00147 0,4.8e-4 0,9.7e-4 0,0.00146 0,4.9e-4 0,9.8e-4 0,0.00147 0,4.8e-4 0,9.7e-4 0,0.00146 0,4.9e-4 0,9.8e-4 0,0.00147 0,4.8e-4 0,9.7e-4 0,0.00146 0,4.9e-4 0,9.8e-4 0,0.00147 0,4.8e-4 0,9.7e-4 0,0.00146 0,4.9e-4 0,9.8e-4 0,0.00146 0,4.9e-4 0,9.8e-4 0,0.00147 0,4.9e-4 0,9.8e-4 0,0.00147 0,4.8e-4 0,9.7e-4 0,0.00146 4e-4,0.1476 -0.005,0.29516 -0.0161,0.44238 -0.0118,0.14755 -0.0294,0.29462 -0.0528,0.44092 -0.0231,0.14648 -0.0519,0.29209 -0.0864,0.43652 -0.0349,0.14397 -0.0755,0.28665 -0.1216,0.42774 -0.0458,0.14142 -0.0971,0.28117 -0.1538,0.41894 -0.0567,0.13741 -0.1187,0.27276 -0.186,0.40576 -0.0676,0.13341 -0.1404,0.26436 -0.2183,0.39258 -0.0781,0.12791 -0.1611,0.253 -0.249,0.375 C 11.41,5.0135 11.3177,5.13272 11.2207,5.24853 11.1241,5.3639 11.0229,5.47579 10.9175,5.58398 10.8113,5.69237 10.7009,5.79693 10.5864,5.89746 10.4726,5.99829 10.3549,6.09504 10.2334,6.1875 10.1119,6.27931 9.9868,6.36677 9.85841,6.44971 9.72972,6.53298 9.59779,6.61165 9.4629,6.68555 9.32847,6.75973 9.19117,6.82912 9.05128,6.89355 8.91108,6.95769 8.7684,7.01681 8.62355,7.0708 8.47855,7.12484 8.33148,7.17371 8.18263,7.21729 8.03379,7.26071 7.8833,7.29882 7.73146,7.33154 7.57978,7.3648 7.42684,7.39265 7.27296,7.41504 7.1615,7.42963 7.04964,7.44135 6.93751,7.4502 c 0.008,0.20951 0.0161,0.41937 0.0161,0.64306 V 38.7393 c 0,2.1214 -0.35923,3.6208 -1.07666,4.497 -0.71742,0.8763 -2.01427,1.4064 -3.89062,1.5908 -0.05519,0 -0.33096,0.047 -0.82764,0.1392 C 0.662011,45.0124 0.275934,45.0579 0,45.104 v 1.73 h 27.6475 v -1.73 C 24.3915,44.735 22.3508,44.2277 21.523,43.582 20.7503,42.8902 20.3643,41.2758 20.3643,38.7393 V 25.8721 c 5.6842,-0.0923 9.5747,-0.2074 11.6718,-0.3457 2.1523,-0.1845 4.1379,-0.5768 5.959,-1.1763 3.3664,-1.0607 5.9333,-2.6055 7.6993,-4.6348 1.8211,-2.0292 2.7319,-4.3812 2.7319,-7.0561 0,-3.96627 -1.9036,-7.05583 -5.7114,-9.26955 C 38.907,1.12981 33.5527,0 26.6543,0 H 12.3648 m 12.1377,2.42139 c 3.4215,0 5.8781,0.82994 7.3681,2.49023 1.4901,1.61417 2.2339,4.31148 2.2339,8.09328 0,4.3352 -1.0211,7.1718 -3.063,8.5093 -0.8618,0.5601 -2.0196,0.998 -3.4731,1.3154 -0.2182,0.3982 -0.4866,0.771 -0.7998,1.1103 -0.5635,0.5227 -1.2325,0.9373 -1.9688,1.2203 -0.7366,0.2826 -1.526,0.4279 -2.3232,0.4277 -0.7972,2e-4 -1.5867,-0.1451 -2.3233,-0.4277 -0.7363,-0.283 -1.4052,-0.6976 -1.9687,-1.2203 -0.5642,-0.5227 -1.0117,-1.1434 -1.3169,-1.8266 -0.3048,-0.6828 -0.4616,-1.4144 -0.4614,-2.1533 -2e-4,-0.7389 0.1566,-1.4706 0.4614,-2.1534 0.3052,-0.6831 0.7527,-1.3039 1.3169,-1.8266 0.5636,-0.5221 1.2326,-0.9362 1.9687,-1.2188 0.0701,-0.0143 0.1404,-0.0275 0.211,-0.0395 V 4.91162 c 0,-1.66029 1.3788,-2.49023 4.1382,-2.49023 M 101.322,14.1123 c -5.0222,0 -9.0782,1.9825 -12.1687,5.9487 v -5.1181 h -15.81 v 1.6596 c 1.8211,0.1845 3.0077,0.554 3.5595,1.1075 0.6071,0.5534 0.9097,1.5439 0.9097,2.9736 v 20.4082 c 0,1.4297 -0.3026,2.3989 -0.9097,2.9062 -0.5518,0.5074 -1.7384,0.9223 -3.5595,1.2452 V 46.834 H 93.2095 V 45.2432 C 91.7194,45.0126 90.6984,44.6203 90.1465,44.0669 89.5946,43.5135 89.3189,42.5684 89.3189,41.231 V 22.6904 c 0,-0.4612 0.8287,-1.2215 2.4843,-2.2822 1.7108,-1.1069 3.2283,-1.6611 4.5528,-1.6611 1.6004,0 2.7586,0.4377 3.476,1.3139 0.717,0.8763 1.077,2.3302 1.077,4.3594 V 41.231 c 0,1.4297 -0.304,2.4443 -0.9114,3.0439 -0.5519,0.5534 -1.5998,0.876 -3.145,0.9683 v 1.5908 h 19.4534 v -1.5908 c -1.49,-0.1845 -2.54,-0.554 -3.147,-1.1075 -0.607,-0.5995 -0.909,-1.5673 -0.909,-2.9047 V 22.6904 c 0,-0.415 0.827,-1.1753 2.482,-2.2822 1.711,-1.1069 3.284,-1.6611 4.719,-1.6611 1.49,0 2.566,0.4619 3.228,1.3842 0.718,0.8763 1.077,2.306 1.077,4.2891 V 41.231 c 0,1.4297 -0.304,2.4443 -0.911,3.0439 -0.552,0.5534 -1.6,0.876 -3.145,0.9683 v 1.5908 h 19.702 v -1.5908 c -1.601,-0.0923 -2.677,-0.4149 -3.229,-0.9683 -0.552,-0.5534 -0.829,-1.5681 -0.829,-3.0439 v -8.1841 c -0.642,-0.0269 -1.277,-0.1544 -1.881,-0.378 -0.754,-0.316 -1.44,-0.7794 -2.018,-1.3637 -0.578,-0.5846 -1.035,-1.2784 -1.348,-2.042 -0.312,-0.764 -0.473,-1.5828 -0.473,-2.4097 0,-0.8264 0.161,-1.6447 0.473,-2.4082 0.313,-0.7636 0.77,-1.4574 1.348,-2.042 0.578,-0.5843 1.264,-1.0477 2.018,-1.3637 0.465,-0.1527 0.945,-0.2496 1.432,-0.2886 -0.493,-1.5363 -1.391,-2.8503 -2.696,-3.9405 -2.042,-1.7986 -4.774,-2.6982 -8.196,-2.6982 -2.262,0 -4.303,0.4619 -6.124,1.3843 -1.766,0.8762 -3.753,2.3968 -5.961,4.5644 -1.214,-2.1676 -2.621,-3.6882 -4.221,-4.5644 -1.601,-0.9224 -3.726,-1.3843 -6.375,-1.3843 v 0"
       id="Copy of  path328243 (2)"
       style="fill:#ffffff;fill-opacity:0;fill-rule:nonzero;stroke:#000000;stroke-width:1.55855;stroke-linecap:butt;stroke-linejoin:miter;stroke-dasharray:none" />
    <path
       transform="translate(71.8901,20.0612)"
       d="M 0,0 V 1.65967 C 1.82117,1.9825 3.0077,2.39747 3.55957,2.90479 4.11144,3.36598 4.38721,4.31103 4.38721,5.74072 V 26.1489 c 0,1.4297 -0.24891,2.3748 -0.74561,2.836 C 3.14492,29.4461 1.93154,29.8852 0,30.3003 v 1.5908 h 19.7842 v -1.5908 c -1.4901,-0.2306 -2.5111,-0.6228 -3.063,-1.1763 -0.5519,-0.5534 -0.8276,-1.4985 -0.8276,-2.8359 v -0.8364 c -0.8672,0.3268 -1.7893,0.5015 -2.7217,0.5156 -1.015,-3e-4 -2.02,-0.1909 -2.9575,-0.561 C 9.27653,25.0365 8.42438,24.4944 7.70654,23.811 6.98926,23.1275 6.42033,22.3162 6.03223,21.4233 5.6436,20.5303 5.4435,19.5731 5.44336,18.6064 5.4435,17.6398 5.6436,16.6826 6.03223,15.7896 c 0.3881,-0.8929 0.95703,-1.7042 1.67431,-2.3877 0.71784,-0.6834 1.56999,-1.2255 2.50786,-1.5953 0.9375,-0.3701 1.9425,-0.5607 2.9575,-0.561 0.3681,4e-4 0.7357,0.0259 1.1001,0.0762 0.3645,0.0496 0.7248,0.1241 1.0781,0.2226 0.1836,0.058 0.3649,0.1225 0.5435,0.1934 V 0 Z"
       id="Copy of  path322584 (2)"
       style="fill:#ffffff;fill-opacity:0;fill-rule:nonzero;stroke:#000000;stroke-width:1.55855;stroke-linecap:butt;stroke-linejoin:miter;stroke-dasharray:none" />
    <path
       transform="translate(151.018,25.8693)"
       d="M 5.27051,0 C 4.78392,0.0390379 4.30356,0.135896 3.83935,0.288575 3.08453,0.604631 2.39862,1.06804 1.8208,1.65234 1.24346,2.23688 0.785526,2.93075 0.473145,3.69433 0.160729,4.45786 -4.47545e-5,5.27616 2.56923e-7,6.10254 -2.34596e-4,6.92941 0.160542,7.74823 0.473145,8.51221 0.785526,9.2758 1.24346,9.96966 1.8208,10.5542 c 0.57782,0.5843 1.26373,1.0477 2.01855,1.3638 0.60388,0.2236 1.23837,0.3511 1.88086,0.3779 V 3.04688 C 5.72021,1.94868 5.56998,0.933524 5.27051,0 Z"
       id="Copy of  path320162 (2)"
       style="fill:#d40000;fill-rule:nonzero;stroke:#000000;stroke-width:1.55855;stroke-linecap:butt;stroke-linejoin:miter;stroke-dasharray:none" />
    <path
       transform="translate(221.142,35.004)"
       d="m 10.0986,0 v 10.0298 c -1.98669,1.9831 -3.91707,2.9751 -5.79342,2.9751 -1.2693,0 -2.31869,-0.415 -3.14649,-1.2451 C 0.386076,10.8835 0,9.73097 0,8.30127 0,4.24278 3.36585,1.47582 10.0986,0 Z"
       id="Copy of  text109307 (2)"
       style="fill:#ffffff;fill-opacity:0;fill-rule:nonzero;stroke:#000000;stroke-width:1.55855;stroke-linecap:butt;stroke-linejoin:miter;stroke-dasharray:none" />
    <path
       transform="translate(77.3335,31.3068)"
       d="M 10.4502,0.49218 C 10.2717,0.421275 10.0904,0.356779 9.90674,0.298828 9.55339,0.200248 9.1931,0.125838 8.82862,0.0761669 8.46429,0.0258609 8.09665,4.07158e-4 7.72852,0 6.71356,2.73044e-4 5.70859,0.190913 4.77099,0.561036 3.83317,0.9308 2.98102,1.47285 2.26318,2.15625 1.5459,2.83977 0.976974,3.6511 0.588869,4.54395 0.200237,5.43697 1.37744e-4,6.39416 0,7.36084 1.38134e-4,8.32752 0.200237,9.2847 0.588869,10.1777 c 0.388105,0.8929 0.957031,1.7042 1.674311,2.3877 0.71784,0.6834 1.56999,1.2255 2.50781,1.5952 0.9376,0.3702 1.94257,0.5608 2.95753,0.5611 0.93246,-0.0141 1.85455,-0.1888 2.72168,-0.5156 z"
       id="Copy of  path317523 (2)"
       style="fill:#d40000;fill-rule:nonzero;stroke:#000000;stroke-width:1.55855;stroke-linecap:butt;stroke-linejoin:miter;stroke-dasharray:none" />
    <path
       transform="translate(174.202,39.526)"
       d="M 8.36572,11.8301 C 8.67873,11.6914 8.98016,11.5233 9.2666,11.3276 9.76182,10.9339 10.1973,10.4574 10.5571,9.91553 10.6234,9.78514 10.6854,9.65224 10.7432,9.51709 7.86156,9.45887 5.79811,8.05501 4.55567,5.30127 V 0 C 4.38018,0.0216042 4.20569,0.0519094 4.03272,0.090822 3.4501,0.29777 2.9009,0.603762 2.40528,0.99756 1.91005,1.39131 1.47455,1.86784 1.11475,2.40967 0.754715,2.95167 0.474923,3.55228 0.285644,4.18946 0.0963582,4.8267 -3.65439e-5,5.49256 1.03925e-8,6.1626 -3.65439e-5,6.83263 0.0963582,7.4985 0.285644,8.13574 0.474923,8.77292 0.754715,9.37353 1.11475,9.91553 c 0.3598,0.54187 0.7953,1.01837 1.29053,1.41207 0.49562,0.3938 1.04482,0.6998 1.62744,0.9068 0.17297,0.0389 0.34746,0.0692 0.52295,0.0908 V 9.17432 c 1.42637,1.15888 2.69625,2.04348 3.81006,2.65578 z"
       id="Copy of  path322582 (2)"
       style="fill:#d40000;fill-rule:nonzero;stroke:#000000;stroke-width:1.55855;stroke-linecap:butt;stroke-linejoin:miter;stroke-dasharray:none" />
    <path
       transform="translate(190,22.5704)"
       d="m 2.03906,10.2568 c 0.33339,0.2138 0.68891,0.3921 1.06055,0.5318 0.56011,0.1794 1.1454,0.2709 1.73437,0.271 0.58898,-10e-5 1.17427,-0.0916 1.73438,-0.271 C 7.12842,10.6093 7.65637,10.3444 8.13281,10.0034 8.60894,9.66234 9.02763,9.24958 9.37353,8.78027 9.71969,8.31051 9.98861,7.78998 10.1704,7.23779 c 0.1822,-0.55158 0.2751,-1.12796 0.2754,-1.708 0,-0.22278 -0.0137,-0.44536 -0.041,-0.66651 C 10.3777,4.64232 10.3371,4.42317 10.2832,4.20703 10.229,3.99032 10.1615,3.77703 10.0811,3.56836 10.0008,3.36039 9.90784,3.15738 9.80273,2.96045 9.69781,2.76325 9.5809,2.57247 9.45263,2.38916 9.32388,2.2057 9.18398,2.03009 9.03369,1.86328 8.88381,1.6967 8.72385,1.53918 8.55469,1.3916 8.38557,1.24344 8.20751,1.10549 8.02148,0.978516 7.83533,0.85237 7.64162,0.737415 7.4414,0.634277 7.24114,0.530782 7.03471,0.439306 6.82324,0.360351 6.61217,0.2812 6.39645,0.214673 6.17725,0.161133 5.95774,0.107904 5.73516,0.0677919 5.51074,0.0410145 5.2862,0.0139175 5.0602,2.21039e-4 4.83398,0 4.24501,1.09313e-4 3.65972,0.0915612 3.09961,0.270998 2.53954,0.450231 2.0116,0.715192 1.53515,1.05615 1.05851,1.39712 0.639313,1.80989 0.292966,2.2793 0.18435,2.46257 0.0865323,2.65185 0,2.84619 1.09303,4.45288 1.77269,6.92313 2.03906,10.2568 Z"
       id="Copy of  path331526 (2)"
       style="fill:#d40000;fill-rule:nonzero;stroke:#000000;stroke-width:1.55855;stroke-linecap:butt;stroke-linejoin:miter;stroke-dasharray:none" />
    <path
       transform="translate(209.415,37.5441)"
       d="M 0,5.72899 C 0.087737,5.77456 0.176644,5.81706 0.266598,5.85644 0.67081,5.98127 1.08745,6.04431 1.50585,6.04395 1.92377,6.04417 2.33991,5.98113 2.74365,5.85644 3.14765,5.73143 3.53572,5.54577 3.89794,5.30419 4.25984,5.06246 4.59275,4.76697 4.88818,4.42528 5.18376,4.08393 5.43935,3.69931 5.64843,3.28124 5.85794,2.86254 6.01899,2.41389 6.12744,1.94677 6.23544,1.48045 6.2901,0.999802 6.29003,0.517082 6.28977,0.356195 6.28344,0.195398 6.27104,0.0351496 6.26965,0.0234278 6.26824,0.0117112 6.26679,0 5.79635,0.214016 5.35316,0.428185 4.93817,0.641602 2.32649,1.9716 0.680786,3.66779 1.84252e-4,5.72901 Z"
       id="Copy of  path331529 (2)"
       style="fill:#d40000;fill-rule:nonzero;stroke:#000000;stroke-width:1.55855;stroke-linecap:butt;stroke-linejoin:miter;stroke-dasharray:none" />
    <path
       transform="translate(225.942,43.8517)"
       d="M 11.4052,9.11864 C 11.4837,9.0558 11.5604,8.99132 11.6352,8.92526 11.9404,8.60375 12.2018,8.25439 12.4145,7.88376 12.6262,7.51295 12.7879,7.12331 12.8964,6.72214 13.0054,6.3204 13.0605,5.90962 13.0605,5.49753 13.0603,5.3538 13.0535,5.21014 13.04,5.06686 13.0267,4.92319 13.0067,4.78001 12.98,4.63767 12.9534,4.49551 12.9201,4.35429 12.8804,4.21432 12.8404,4.07466 12.794,3.93638 12.7412,3.79978 12.6885,3.66262 12.6293,3.52726 12.564,3.39401 12.4983,3.26132 12.4265,3.13085 12.3486,3.0029 12.2711,2.87421 12.1875,2.74813 12.0982,2.62497 12.009,2.50226 11.9142,2.38254 11.814,2.26609 11.7133,2.14984 11.6073,2.03696 11.4961,1.92771 11.3849,1.81844 11.2686,1.71289 11.1475,1.6113 11.0266,1.50903 10.901,1.41081 10.771,1.31686 10.6409,1.22359 10.5065,1.13466 10.3682,1.05026 10.2299,0.965516 10.0877,0.885376 9.9419,0.810028 9.79631,0.734827 9.64727,0.664464 9.49512,0.599102 9.34271,0.533936 9.18732,0.473833 9.02931,0.418932 8.87153,0.363856 8.71125,0.314013 8.54883,0.269518 8.38617,0.225029 8.2215,0.185937 8.05519,0.152334 7.88909,0.118491 7.72148,0.0901514 7.55275,0.0673796 7.38366,0.0451605 7.21361,0.0285461 7.04298,0.0175748 6.87242,0.00606329 6.70139,2.00492e-4 6.53028,3.90976e-8 6.04131,-4.90582e-5 5.55388,0.0461429 5.07715,0.137707 4.60054,0.229527 4.13768,0.366126 3.69727,0.544935 3.25687,0.723502 2.84167,0.943139 2.45948,1.19972 2.07715,1.45625 1.73025,1.74812 1.4253,2.06984 1.12045,2.39187 0.859532,2.74172 0.647467,3.1128 0.435198,3.48356 0.27305,3.87321 0.164069,4.27443 0.0551701,4.67569 1.35487e-4,5.08597 0,5.49757 5.34794e-6,5.90966 0.0550408,6.32044 0.164069,6.72218 0.229028,6.90957 0.305795,7.09391 0.394044,7.27443 2.06474,6.49964 3.72751,5.48453 5.38184,4.22609 5.82333,6.02474 6.54033,7.29384 7.5337,8.03175 8.44711,8.67458 9.73784,9.03602 11.4053,9.11867 Z"
       id="Copy of  path331537 (2)"
       style="fill:#d40000;fill-rule:nonzero;stroke:#000000;stroke-width:1.55855;stroke-linecap:butt;stroke-linejoin:miter;stroke-dasharray:none" />
    <path
       transform="translate(228.126,19.7213)"
       d="M 4.14258,0 C 3.65631,0.020972 3.17396,0.105542 2.70556,0.251955 2.08834,0.4743 1.50652,0.80303 0.981451,1.22608 0.61852,1.54687 0.289297,1.91196 0,2.31445 0.573248,2.5382 1.0594,2.82516 1.45899,3.17578 2.61787,4.14429 3.19775,5.68906 3.19775,7.81055 v 5.05075 c -0.29752,0.0729 -0.59043,0.1455 -0.88183,0.2183 0.1275,0.0783 0.25747,0.1516 0.38964,0.2197 0.61692,0.2223 1.26152,0.3355 1.91016,0.3355 0.64913,10e-5 1.29424,-0.1131 1.91163,-0.3355 C 7.14406,13.0768 7.72538,12.7481 8.25,12.3252 8.77502,11.9021 9.23672,11.39 9.61817,10.8076 9.99986,10.225 10.2965,9.57945 10.4971,8.89453 10.6978,8.21001 10.8001,7.49471 10.8003,6.7749 10.7998,6.53561 10.7881,6.29652 10.7651,6.05859 10.7426,5.82047 10.7089,5.58381 10.6641,5.34961 10.6194,5.11508 10.5636,4.88332 10.4971,4.65527 10.4305,4.4278 10.3532,4.20435 10.2656,3.98584 10.1776,3.7669 10.0793,3.55322 9.97119,3.3457 9.86307,3.13831 9.74523,2.93736 9.61816,2.74365 9.4913,2.54986 9.35537,2.36357 9.21094,2.18555 9.0667,2.00738 8.91415,1.83771 8.75391,1.67725 8.59316,1.5172 8.42496,1.3666 8.25,1.22607 8.19493,1.18455 8.13926,1.14402 8.08301,1.10449 6.8993,0.630618 5.58565,0.262766 4.14258,0 Z"
       id="Copy of  path331534 (2)"
       style="fill:#d40000;fill-rule:nonzero;stroke:#000000;stroke-width:1.55855;stroke-linecap:butt;stroke-linejoin:miter;stroke-dasharray:none" />
    <path
       transform="translate(75.5317,4.15004)"
       d="M 6.45703,0 C 4.69106,0 3.17359,0.530078 1.9043,1.59082 0.635003,2.60544 0,3.85036 0,5.32617 c 0,1.56806 0.606691,2.85989 1.8208,3.87451 1.2141,1.01462 2.75988,1.52202 4.63623,1.52202 1.82116,0 3.33862,-0.4847 4.55277,-1.45317 1.2141,-1.01462 1.8208,-2.28226 1.8208,-3.8042 0,-1.52193 -0.6067,-2.81377 -1.8208,-3.87451 C 9.79565,0.530078 8.27819,0 6.45703,0 Z"
       id="Copy of  path317521 (2)"
       style="fill:#ffffff;fill-opacity:0;fill-rule:nonzero;stroke:#000000;stroke-width:1.55855;stroke-linecap:butt;stroke-linejoin:miter;stroke-dasharray:none" />
    <path
       transform="translate(37.8002,19.84)"
       d="M 3.95801,0 C 3.88745,0.0120274 3.81713,0.0252134 3.74707,0.0395518 3.01091,0.322091 2.34194,0.736214 1.77832,1.2583 1.21417,1.78107 0.766684,2.40178 0.461427,3.08496 0.156636,3.76769 -1.55593e-4,4.49939 1.15981e-7,5.23828 -1.55673e-4,5.97718 0.156636,6.70887 0.461427,7.3916 0.766684,8.07478 1.21417,8.69549 1.77832,9.21826 2.3418,9.74088 3.01078,10.1555 3.74707,10.4385 c 0.73661,0.2826 1.52605,0.4279 2.32324,0.4277 0.7972,2e-4 1.58664,-0.1451 2.32324,-0.4277 C 9.12985,10.1555 9.79882,9.74088 10.3623,9.21826 10.6755,8.87888 10.944,8.50614 11.1621,8.10791 9.265,8.52216 6.86393,8.73047 3.95801,8.73047 Z"
       id="Copy of  path317519 (2)"
       style="fill:#d40000;fill-rule:nonzero;stroke:#000000;stroke-width:1.55855;stroke-linecap:butt;stroke-linejoin:miter;stroke-dasharray:none" />
    <path
       transform="translate(21.394,5.1183)"
       d="M 0.32666,0 H 0 V 1.86768 C 0.0413433,1.87033 0.0777203,1.87513 0.118653,1.87794 0.111101,1.76919 0.106706,1.66026 0.105471,1.55128 0.105496,1.40317 0.111358,1.25512 0.123046,1.10743 0.134383,0.96039 0.151484,0.813804 0.174317,0.667976 0.197864,0.521475 0.227182,0.375865 0.262208,0.231453 0.28205,0.1539 0.303539,0.0767353 0.326659,6.80315e-6 Z"
       id="Copy of  path317517 (2)"
       style="fill:#ffffff;fill-opacity:0;fill-rule:nonzero;stroke:#000000;stroke-width:1.55855;stroke-linecap:butt;stroke-linejoin:miter;stroke-dasharray:none" />
    <path
       transform="translate(21.4995,5.1183)"
       d="M 0.221187,1.41732e-6 C 0.198067,0.0767299 0.176579,0.153894 0.156736,0.231447 0.12171,0.37586 0.0923925,0.52147 0.068845,0.667971 0.046013,0.813798 0.028911,0.960385 0.0175748,1.10742 0.00588674,1.25511 2.43604e-5,1.40317 0,1.55127 0.00123442,1.66025 0.00562979,1.76918 0.0131811,1.87793 2.81334,2.06892 4.65366,2.57146 5.52392,3.38965 6.32293,4.09911 6.75604,5.45676 6.83203,7.4502 6.94416,7.44136 7.05601,7.42963 7.16748,7.41504 7.32135,7.39266 7.47429,7.3648 7.62597,7.33154 7.77781,7.29882 7.92831,7.26071 8.07714,7.21729 8.22599,7.17371 8.37307,7.12484 8.51806,7.0708 8.66292,7.01681 8.80559,6.95769 8.9458,6.89356 9.08568,6.82912 9.22299,6.75973 9.35742,6.68555 9.4923,6.61165 9.62423,6.53299 9.75293,6.44971 9.88131,6.36677 10.0064,6.27931 10.1279,6.1875 10.2494,6.09504 10.3671,5.99829 10.481,5.89746 10.5954,5.79694 10.7058,5.69237 10.812,5.58399 10.9174,5.47579 11.0186,5.3639 11.1152,5.24854 11.2122,5.13272 11.3045,5.0135 11.3921,4.89112 11.48,4.76911 11.563,4.64402 11.6411,4.51611 11.719,4.38789 11.7918,4.25694 11.8594,4.12354 11.9267,3.99053 11.9887,3.85518 12.0454,3.71777 12.1022,3.58 12.1535,3.44025 12.1992,3.29883 12.2453,3.15774 12.2859,3.01506 12.3208,2.87109 12.3553,2.72666 12.3842,2.58105 12.4072,2.43457 12.4306,2.28828 12.4482,2.1412 12.46,1.99365 12.4711,1.84643 12.4765,1.69887 12.4761,1.55127 12.4763,1.50097 12.4758,1.45068 12.4746,1.40039 12.4733,1.35057 12.4714,1.30076 12.4687,1.25098 12.466,1.20064 12.4626,1.15035 12.4585,1.1001 12.4547,1.05024 12.4504,1.00043 12.4453,0.950683 12.4396,0.900804 12.4333,0.850995 12.4262,0.801269 12.4196,0.751867 12.4123,0.702547 12.4043,0.653321 12.3966,0.603907 12.3883,0.554587 12.3794,0.505372 12.3698,0.455934 12.3595,0.406614 12.3486,0.357423 12.338,0.308462 12.3268,0.259629 12.3149,0.210937 12.3034,0.161964 12.2912,0.113133 12.2783,0.0644542 12.2721,0.0429355 12.2657,0.0214505 12.2593,0 Z"
       id="Copy of  path317515 (2)"
       style="fill:#d40000;fill-rule:nonzero;stroke:#000000;stroke-width:1.55855;stroke-linecap:butt;stroke-linejoin:miter;stroke-dasharray:none" />
    <path
       transform="translate(250.356,0.445411)"
       d="m 45.3532,19.9495 h 18.2323 v 1.8418 c -1.9384,0.1442 -3.3043,0.4007 -4.0976,0.7697 -0.7933,0.3689 -1.6004,1.1183 -2.4213,2.2483 l -2.3696,3.1649 c -1.8212,2.404 -4.5529,5.7159 -8.1953,9.9358 2.4628,2.6519 4.3995,4.4318 5.8102,5.3398 1.4107,0.9079 2.968,1.3619 4.6719,1.3619 1.9384,0 3.6699,-0.9339 5.1944,-2.8017 l 1.6763,0.882 -1.5004,1.9197 c -1.7039,2.4501 -3.2905,4.1652 -4.7598,5.1452 -2.3455,1.5219 -5.0462,2.2829 -8.1021,2.2829 -2.3455,0 -4.4581,-0.4511 -6.3379,-1.3533 -1.8798,-0.9022 -4.1407,-2.5409 -6.7828,-4.916 -6.988,4.1334 -13.5069,6.2001 -19.5568,6.2001 -4.9323,0 -8.96783,-1.2149 -12.10658,-3.6448 C 1.56937,45.8959 0,42.7929 0,39.0169 c 0,-3.4878 1.32103,-6.5072 3.9631,-9.0581 2.64206,-2.551 7.0743,-5.1034 13.2966,-7.6573 -1.7591,-2.5596 -2.9474,-4.5773 -3.5648,-6.0531 -0.6174,-1.4758 -0.9261,-3.0266 -0.9261,-4.6523 0,-3.56847 1.5263,-6.39327 4.5788,-8.4744 C 20.4001,1.04057 24.5685,0 29.8526,0 c 4.4632,0 8.0314,0.820058 10.7045,2.46017 2.6731,1.64012 4.0097,3.82934 4.0097,6.56767 0,2.31746 -1.0727,4.32656 -3.2181,6.02726 -2.1454,1.7006 -5.5359,3.2658 -10.1716,4.6955 l 13.2965,15.7468 c 2.5869,-2.698 4.3494,-4.7849 5.2876,-6.2607 0.9382,-1.4758 1.4073,-2.9516 1.4073,-4.4274 0,-1.0319 -0.3225,-1.7324 -0.9675,-2.1013 -0.645,-0.369 -2.261,-0.6745 -4.8478,-0.9167 z M 12.2411,31.4331 c 0,3.2687 1.409,6.6254 4.227,10.0699 2.8179,3.4445 6.1343,5.1668 9.9491,5.1668 2.173,0 4.8461,-1.055 8.0193,-3.1649 C 32.2015,41.0951 28.4143,36.5236 23.075,29.7901 L 18.76,24.5844 c -4.3459,1.9659 -6.5189,4.2488 -6.5189,6.8487 z M 29.5008,17.459 c 2.1729,-0.588 3.744,-1.3331 4.7133,-2.2353 0.9692,-0.9022 1.4538,-2.1114 1.4538,-3.6276 0,-2.4962 -0.8226,-4.64795 -2.4679,-6.45525 -1.6452,-1.80729 -3.5233,-2.71094 -5.6342,-2.71094 -1.4073,0 -2.5076,0.36751 -3.3009,1.10254 -0.7933,0.73502 -1.1899,1.73667 -1.1899,3.00495 0,2.83634 2.1419,6.4769 6.4258,10.9216 z"
       style="fill:#b00000;fill-opacity:0.996078;fill-rule:evenodd;stroke:#000000;stroke-width:0.890821;stroke-linecap:butt;stroke-linejoin:miter;stroke-dasharray:none"
       id="path663" />
    <path
       transform="translate(21.2234,51.0043)"
       d="M 19.5465,43.8767 V 5.076 C 14.0899,5.27201 10.0992,6.29672 7.57438,8.15014 5.04959,10.0036 3.37674,13.1267 2.55584,17.5195 H 0 L 0.258688,2.65474 H 53.1035 L 53.2794,17.5195 H 50.6407 C 49.9371,13.1267 48.3229,10.0036 45.7981,8.15014 43.2733,6.29672 39.2792,5.27201 33.8157,5.076 v 38.8007 c 0,2.796 0.4846,4.5615 1.4538,5.2965 0.9692,0.735 3.3647,1.2236 7.1864,1.4657 v 1.8419 H 11.0925 v -1.8419 c 3.7596,-0.2421 6.1085,-0.7436 7.0467,-1.5046 0.9382,-0.761 1.4073,-2.5135 1.4073,-5.2576 z m 58.8256,9.564 v -5.3009 c -2.4696,2.0812 -4.6443,3.5094 -6.5241,4.2848 -1.8798,0.7754 -3.9648,1.1631 -6.2551,1.1631 -3.6354,0 -6.5103,-0.9512 -8.6246,-2.8536 -2.1144,-1.9025 -3.1716,-4.5255 -3.1716,-7.8691 V 24.6536 c 0,-1.5392 -0.25,-2.5625 -0.7502,-3.0698 -0.5001,-0.5073 -1.6607,-0.9051 -3.4819,-1.1933 v -1.8419 h 16.556 V 43.133 c 0,1.8851 0.3829,3.2154 1.1486,3.9908 0.7657,0.7754 2.0592,1.163 3.8803,1.163 2.1661,0 4.5115,-1.0607 7.0363,-3.1822 v -20.451 c 0,-1.5392 -0.3518,-2.61 -1.0554,-3.2125 -0.7036,-0.6024 -2.1419,-0.9526 -4.3149,-1.0506 v -1.8419 h 17.6218 v 26.1842 c 0,1.4989 0.3656,2.5639 1.0968,3.1952 0.7313,0.6312 2.0661,0.9959 4.0045,1.0939 v 1.5479 l -5.5462,0.6744 c -4.4633,0.4497 -8.3367,1.1819 -11.6203,2.1965 z m 48.4369,0 v -4.5831 c -2.056,1.8102 -3.92,3.0511 -5.593,3.7227 -1.673,0.6716 -3.654,1.0074 -5.945,1.0074 -4.635,0 -8.466,-1.6401 -11.491,-4.9204 -3.025,-3.2802 -4.537,-7.4165 -4.537,-12.4089 0,-5.3614 1.6,-9.8004 4.801,-13.317 3.201,-3.5166 7.237,-5.2748 12.107,-5.2748 2.056,0 3.832,0.3156 5.329,0.9468 1.497,0.6313 3.183,1.7396 5.06,3.3249 V 8.63871 c 0,-1.64876 -0.366,-2.70374 -1.097,-3.16493 -0.731,-0.46119 -2.535,-0.78979 -5.412,-0.9858 V 2.65474 h 18.843 V 45.3122 c 0,1.5795 0.367,2.6778 1.102,3.2946 0.735,0.6168 2.13,0.9772 4.186,1.0809 v 1.5393 l -5.547,0.588 c -4.815,0.4727 -8.75,1.0146 -11.806,1.6257 z M 126.54,44.508 v -18.22 c -0.587,-1.447 -1.495,-2.5957 -2.727,-3.446 -1.231,-0.8503 -2.581,-1.2755 -4.051,-1.2755 -4.987,0 -7.481,4.6984 -7.481,14.0952 0,9.3507 2.259,14.026 6.778,14.026 2.055,0 3.904,-0.8503 5.546,-2.551 1.29,-1.003 1.935,-1.8793 1.935,-2.6287 z m 41.4,-26.8414 c 5.698,0 10.441,1.7237 14.228,5.1711 3.787,3.4474 5.681,7.735 5.681,12.8629 0,5.1279 -1.894,9.391 -5.681,12.7895 -3.787,3.3984 -8.53,5.0976 -14.228,5.0976 -5.698,0 -10.425,-1.6992 -14.181,-5.0976 -3.756,-3.3985 -5.634,-7.712 -5.634,-12.9408 0,-5.0212 1.923,-9.257 5.768,-12.7073 3.846,-3.4503 8.529,-5.1754 14.047,-5.1754 z m 0.176,2.4299 c -2.759,0 -4.637,1.1717 -5.634,3.5151 -0.997,2.3434 -1.495,6.7377 -1.495,13.1829 0,5.3729 0.512,9.11 1.536,11.2113 1.025,2.1013 2.829,3.152 5.412,3.152 2.583,0 4.405,-1.0997 5.464,-3.299 1.058,-2.1993 1.588,-6.1065 1.588,-11.7215 0,-6.007 -0.5,-10.1823 -1.501,-12.5257 -1,-2.3434 -2.79,-3.5151 -5.37,-3.5151 z m 47.64,2.8709 c -1.407,0 -3.006,0.5664 -4.796,1.6992 -1.79,1.1328 -2.685,1.9384 -2.685,2.4169 v 19.3701 c 0,1.3951 0.293,2.3809 0.879,2.9574 0.587,0.5765 1.673,0.9858 3.26,1.2279 v 1.8419 h -21.14 v -1.8419 c 1.938,-0.3401 3.216,-0.7782 3.834,-1.3144 0.617,-0.5361 0.926,-1.5594 0.926,-3.0698 V 24.6969 c 0,-1.5105 -0.309,-2.5568 -0.926,-3.139 -0.618,-0.5823 -1.896,-0.9714 -3.834,-1.1674 v -1.8419 h 16.825 v 5.7937 c 3.29,-4.4505 7.605,-6.6757 12.945,-6.6757 2.821,0 5.082,0.5044 6.782,1.5132 1.701,1.0089 3.2,2.7297 4.496,5.1625 2.346,-2.4328 4.472,-4.1536 6.38,-5.1625 1.907,-1.0088 4.065,-1.5132 6.472,-1.5132 3.642,0 6.564,0.9699 8.764,2.9098 2.201,1.9399 3.301,4.4952 3.301,7.6659 v 18.2113 c 0,1.5392 0.295,2.5971 0.885,3.1736 0.59,0.5765 1.737,0.9137 3.441,1.0117 v 1.8419 H 240.6 v -1.8419 c 1.642,-0.098 2.772,-0.4468 3.389,-1.0463 0.618,-0.5996 0.926,-1.6459 0.926,-3.139 V 28.8908 c 0,-2.0696 -0.367,-3.5742 -1.102,-4.5139 -0.734,-0.9397 -1.895,-1.4095 -3.482,-1.4095 -1.524,0 -3.181,0.5779 -4.972,1.7338 -1.79,1.1558 -2.685,1.95 -2.685,2.3823 v 19.3701 c 0,1.3951 0.323,2.3939 0.968,2.9963 0.645,0.6025 1.761,0.9988 3.347,1.189 v 1.8419 h -20.695 v -1.8419 c 1.642,-0.098 2.772,-0.4468 3.389,-1.0463 0.617,-0.5996 0.926,-1.6459 0.926,-3.139 V 28.8908 c 0,-2.1215 -0.383,-3.6391 -1.149,-4.5528 -0.765,-0.9137 -2,-1.3706 -3.704,-1.3706 z m 60.243,-0.1643 c 0,0.2421 0.456,0.8503 1.366,1.8246 0.911,0.9742 1.366,1.9745 1.366,3.0006 0,1.2222 -0.559,2.2224 -1.676,3.0006 -1.118,0.7783 -2.587,1.1674 -4.408,1.1674 -1.821,0 -3.215,-0.4294 -4.181,-1.2884 -0.965,-0.859 -1.448,-2.0494 -1.448,-3.5714 0,-2.7441 1.526,-4.9751 4.578,-6.693 3.053,-1.718 7.073,-2.5769 12.06,-2.5769 5.347,0 9.591,0.918 12.733,2.7541 3.142,1.8362 4.713,4.3453 4.713,7.5276 v 19.0155 c 0,0.882 0.645,1.323 1.935,1.323 0.352,0 0.645,-0.049 0.88,-0.147 l 0.879,-0.3718 1.325,1.1674 c -3.111,3.1015 -6.402,4.6523 -9.872,4.6523 -2.173,0 -3.801,-0.3992 -4.884,-1.1977 -1.083,-0.7984 -1.862,-2.1661 -2.338,-4.1032 -4.574,3.5339 -9.209,5.3009 -13.907,5.3009 -2.822,0 -5.157,-0.7495 -7.005,-2.2483 -1.849,-1.4989 -2.774,-3.3754 -2.774,-5.6295 0,-3.3033 1.894,-5.9133 5.681,-7.8301 3.787,-1.9169 9.789,-3.8697 18.005,-5.8586 v -5.4046 c 0,-2.2714 -0.602,-3.9259 -1.806,-4.9636 -1.204,-1.0377 -3.095,-1.5565 -5.675,-1.5565 -1.525,0 -2.83,0.2565 -3.917,0.7696 -1.086,0.5131 -1.63,1.1587 -1.63,1.937 z m 12.945,22.3188 V 34.4511 c -7.16,1.568 -10.741,4.511 -10.741,8.8289 0,1.522 0.425,2.7369 1.273,3.6449 0.849,0.908 1.949,1.3619 3.301,1.3619 2,0 4.056,-1.0549 6.167,-3.1649 z M 276.703,13.6888 288.768,1.98889 C 290.175,0.662964 291.703,0 293.352,0 c 1.29,0 2.332,0.306981 3.125,0.920944 0.793,0.613966 1.19,1.387896 1.19,2.321816 0,0.83015 -0.236,1.4787 -0.709,1.94565 -0.472,0.46696 -1.412,1.09245 -2.819,1.87648 l -12.511,6.62391 z m 51.779,9.2786 c -1.29,0 -2.566,0.3372 -3.829,1.0117 -1.262,0.6745 -2.217,1.3245 -2.866,1.95 -0.648,0.6255 -0.973,1.0103 -0.973,1.1544 v 19.3701 c 0,1.349 0.338,2.3233 1.014,2.9228 0.677,0.5996 1.808,1.0204 3.394,1.2625 v 1.8419 H 304 v -1.8419 c 1.993,-0.3862 3.283,-0.8474 3.87,-1.3835 0.586,-0.5362 0.879,-1.5364 0.879,-3.0007 V 24.6969 c 0,-1.5105 -0.322,-2.5453 -0.967,-3.1044 -0.645,-0.5592 -1.906,-0.9599 -3.782,-1.202 v -1.8419 h 16.814 v 5.7937 c 3.236,-4.4505 7.406,-6.6757 12.511,-6.6757 3.642,0 6.563,0.9699 8.764,2.9098 2.2,1.9399 3.301,4.4952 3.301,7.6659 v 18.2113 c 0,1.5392 0.279,2.5971 0.838,3.1736 0.559,0.5765 1.69,0.9137 3.394,1.0117 v 1.8419 H 329.01 v -1.8419 c 1.469,-0.1902 2.526,-0.5981 3.171,-1.2236 0.645,-0.6255 0.968,-1.6127 0.968,-2.9617 V 28.8908 c 0,-3.9489 -1.556,-5.9234 -4.667,-5.9234 z m 31.974,37.8495 c 0,0.4612 -0.045,0.7955 -0.135,1.0031 -0.089,0.2075 -0.134,0.3603 -0.134,0.4583 0,0.415 0.162,0.7509 0.486,1.0074 0.324,0.2565 0.662,0.3848 1.014,0.3848 0.993,0 2.02,-0.5794 3.078,-1.7381 1.059,-1.1588 1.972,-2.6893 2.737,-4.5918 l 1.584,-3.7702 -10.576,-21.8778 c -0.703,-1.5104 -1.803,-3.6117 -3.3,-6.304 -1.497,-2.6922 -2.304,-4.0383 -2.422,-4.0383 -0.469,-0.513 -1.497,-0.833 -3.083,-0.9598 v -1.8419 h 22.112 v 1.8419 h -1.5 c -2.235,0.2248 -3.353,0.7898 -3.353,1.6949 0,0.4727 0.618,2.035 1.853,4.6868 l 6.343,13.291 6.074,-14.0087 c 0.593,-1.545 0.889,-2.6692 0.889,-3.3725 0,-0.8359 -0.324,-1.4037 -0.972,-1.7035 -0.649,-0.2998 -1.911,-0.4958 -3.787,-0.588 v -1.8419 h 13.213 v 1.8419 c -1.297,0.098 -2.281,0.4122 -2.954,0.9425 -0.672,0.5304 -1.392,1.5421 -2.157,3.0353 l -13.214,29.2799 c -1.056,2.3463 -1.818,3.998 -2.287,4.9549 -0.469,0.957 -1.174,2.1792 -2.116,3.6665 -0.942,1.4874 -1.794,2.5106 -2.556,3.0698 -0.762,0.5592 -1.745,1.0709 -2.949,1.5349 -1.204,0.4641 -2.568,0.6962 -4.092,0.6962 -2.47,0 -4.512,-0.552 -6.126,-1.656 -1.614,-1.104 -2.421,-2.4919 -2.421,-4.1637 0,-1.4182 0.529,-2.5568 1.588,-3.4157 1.059,-0.859 2.437,-1.2885 4.134,-1.2885 1.469,0 2.675,0.3459 3.616,1.0377 0.942,0.6918 1.413,1.6026 1.413,2.7326 z"
       style="fill:#000000;fill-rule:evenodd;stroke:#ff0000;stroke-width:0.890821;stroke-linecap:butt;stroke-linejoin:miter;stroke-dasharray:none"
       id="path665" />
    <path
       transform="translate(122.056,33.8989)"
       d="M 0,0 Z"
       id="Copy of  path12662 (2)"
       style="fill:#ffe680;fill-rule:evenodd;stroke:#000000;stroke-width:0.17322;stroke-linecap:butt;stroke-linejoin:miter;stroke-dasharray:none" />
    <path
       transform="translate(122.056,33.8989)"
       d="M 0,0 Z"
       id="Copy of  path12664 (2)"
       style="fill:#ffe680;fill-rule:evenodd;stroke:#000000;stroke-width:0.17322;stroke-linecap:butt;stroke-linejoin:miter;stroke-dasharray:none" />
    <path
       transform="translate(0.0866098,50.8243)"
       d="M 0,0 Z"
       id="Copy of  path11321 (2)"
       style="fill:#000000;fill-rule:evenodd;stroke:#000000;stroke-width:0.17322;stroke-linecap:butt;stroke-linejoin:miter;stroke-dasharray:none" />
    <path
       transform="translate(0.0866098,50.8243)"
       d="M 0,0 Z"
       id="Copy of  path11323 (2)"
       style="fill:#000000;fill-rule:evenodd;stroke:#000000;stroke-width:0.17322;stroke-linecap:butt;stroke-linejoin:miter;stroke-dasharray:none" />
    <path
       transform="translate(380.843,117.944)"
       d="m 0.0115639,0.00578193 c 0,0.00319338 -0.00258859,0.00578197 -0.00578197,0.00578197 C 0.00258866,0.0115639 0,0.00897531 0,0.00578193 0,0.00258866 0.00258866,0 0.00578193,0 0.00897531,0 0.0115639,0.00258866 0.0115639,0.00578193 Z"
       id="Copy of  path55351 (2)"
       style="fill:#c8b7b7;fill-rule:evenodd;stroke:#c8b7b7;stroke-width:0.197232;stroke-linecap:butt;stroke-linejoin:miter;stroke-dasharray:none" />
    <path
       transform="translate(380.843,117.944)"
       d="m 0.0115639,0.00578193 c 0,0.00319338 -0.00258859,0.00578197 -0.00578197,0.00578197 C 0.00258866,0.0115639 0,0.00897531 0,0.00578193 0,0.00258866 0.00258866,0 0.00578193,0 0.00897531,0 0.0115639,0.00258866 0.0115639,0.00578193 Z"
       id="Copy of  path55353 (2)"
       style="fill:#c8b7b7;fill-rule:evenodd;stroke:#c8b7b7;stroke-width:0.197232;stroke-linecap:butt;stroke-linejoin:miter;stroke-dasharray:none" />
    <path
       transform="translate(381.558,88.3075)"
       d="m 0.0115639,0.00578193 c 0,0.00319338 -0.00258859,0.00578197 -0.00578197,0.00578197 C 0.00258866,0.0115639 0,0.00897531 0,0.00578193 0,0.00258866 0.00258866,0 0.00578193,0 0.00897531,0 0.0115639,0.00258866 0.0115639,0.00578193 Z"
       id="Copy of  path55355 (2)"
       style="fill:#c8b7b7;fill-rule:evenodd;stroke:#c8b7b7;stroke-width:0.197232;stroke-linecap:butt;stroke-linejoin:miter;stroke-dasharray:none" />
    <path
       transform="translate(381.558,88.3075)"
       d="m 0.0115639,0.00578193 c 0,0.00319338 -0.00258859,0.00578197 -0.00578197,0.00578197 C 0.00258866,0.0115639 0,0.00897531 0,0.00578193 0,0.00258866 0.00258866,0 0.00578193,0 0.00897531,0 0.0115639,0.00258866 0.0115639,0.00578193 Z"
       id="Copy of  path55357 (2)"
       style="fill:#c8b7b7;fill-rule:evenodd;stroke:#c8b7b7;stroke-width:0.197232;stroke-linecap:butt;stroke-linejoin:miter;stroke-dasharray:none" />
    <path
       transform="translate(58.8709,16.7258)"
       d="m 8.73405,4.08403 c 0,2.25563 -1.9551,4.08403 -4.36703,4.08403 C 1.95518,8.16806 0,6.33966 0,4.08403 0,1.82848 1.95518,0 4.36702,0 6.77895,0 8.73405,1.82848 8.73405,4.08403 Z"
       id="Copy of  path316060 (2)"
       style="fill:#d40000;fill-rule:evenodd;stroke:#000000;stroke-width:1.31811;stroke-linecap:butt;stroke-linejoin:miter;stroke-dasharray:none" />
    <path
       transform="translate(31.2837,38.9571)"
       d="M 9.7496,5.17599 C 9.7496,8.03471 7.56717,10.352 4.8748,10.352 2.18252,10.352 0,8.03471 0,5.17599 0,2.31737 2.18252,0 4.8748,0 7.56717,0 9.7496,2.31737 9.7496,5.17599 Z"
       id="Copy of  path316238 (2)"
       style="fill:#d40000;fill-rule:evenodd;stroke:#000000;stroke-width:1.31811;stroke-linecap:butt;stroke-linejoin:miter;stroke-dasharray:none" />
    <path
       transform="translate(102.72,23.6672)"
       d="m 7.67484,3.94859 c 0,2.18083 -1.718,3.9486 -3.83742,3.9486 C 1.71807,7.89719 0,6.12942 0,3.94859 0,1.76785 1.71807,0 3.83742,0 5.95684,0 7.67484,1.76785 7.67484,3.94859 Z"
       id="Copy of  path316244 (2)"
       style="fill:#d40000;fill-rule:evenodd;stroke:#000000;stroke-width:1.31811;stroke-linecap:butt;stroke-linejoin:miter;stroke-dasharray:none" />
    <path
       transform="translate(123.902,33.636)"
       d="m 9.43264,4.8558 c 0,2.68188 -2.11147,4.8558 -4.71632,4.8558 C 2.11157,9.7116 0,7.53768 0,4.8558 0,2.17401 2.11157,0 4.71632,0 7.32117,0 9.43264,2.17401 9.43264,4.8558 Z"
       id="Copy of  path316246 (2)"
       style="fill:#d40000;fill-rule:evenodd;stroke:#000000;stroke-width:1.31811;stroke-linecap:butt;stroke-linejoin:miter;stroke-dasharray:none" />
    <path
       transform="translate(23.2521,6.02045)"
       d="M 0.418344,44.8026 C 2.55085,44.4132 3.28544,44.1367 4.10856,43.414 5.07648,42.5642 5.58956,41.4901 5.83349,39.8031 5.95201,38.9834 6.03854,31.9133 6.04093,22.8535 L 6.04505,7.31021 6.82127,7.07762 C 8.64365,6.53154 10.3709,4.94632 11.1413,3.11277 11.3068,2.71866 11.4987,1.85706 11.5676,1.1981 L 11.6928,0 h 7.9177 C 27.7894,0 30.486,0.157586 33.6783,0.822111 39.8441,2.1056 44.116,5.1081 45.2754,8.97321 c 0.3485,1.16169 0.4212,4.00819 0.1277,4.99869 l -0.184,0.621 -0.2549,-0.9711 c -0.3085,-1.1755 -1.4001,-2.504 -2.5628,-3.1194 -1.2109,-0.64081 -3.6088,-0.64081 -4.8198,0 -2.7969,1.4802 -3.5602,4.9835 -1.5879,7.2877 1.0081,1.1777 2.1506,1.7197 3.6842,1.7478 0.6848,0.0125 1.5245,-0.0513 1.8661,-0.1417 l 0.6209,-0.1644 -0.6209,0.5202 c -2.2847,1.9142 -7.4232,3.6743 -11.524,3.9474 -0.9479,0.0632 -2.4099,0.164 -3.2489,0.2241 l -1.5254,0.1092 0.4905,-0.6198 C 26.0574,23.007 26.6629,22.6437 27.4911,22.36 30.95,21.1749 32.4264,19.0906 32.9781,14.6135 33.3747,11.3952 32.9203,7.45493 31.9031,5.2909 30.9297,3.2201 28.8714,1.63922 26.3301,1.0105 25.704,0.855587 24.118,0.727858 22.8058,0.726655 20.6643,0.724705 20.3169,0.777497 19.4148,1.24195 17.7018,2.12401 17.6365,2.37847 17.6365,8.17759 v 4.97571 l -0.7441,0.4007 c -1.0664,0.5743 -2.4751,2.2267 -2.8592,3.3538 -0.422,1.2386 -0.4208,3.0357 0.0029,4.2792 0.3849,1.1296 2.0549,3.062 2.9759,3.4435 l 0.6245,0.2586 v 4.9433 4.9433 L 16.906,33.9671 c -1.5341,-1.6981 -4.0663,-2.2068 -6.2685,-1.2594 -2.61022,1.1229 -3.93326,4.3031 -3.05174,7.3354 0.49041,1.687 2.05664,3.2557 3.73864,3.7447 2.1695,0.6307 4.061,0.0794 5.653,-1.6477 0.481,-0.5219 0.9076,-0.9489 0.948,-0.9489 0.0403,0 0.131,0.2882 0.2014,0.6404 0.2977,1.4883 1.8018,2.3239 5.3501,2.9722 1.3265,0.2423 -0.0602,0.2754 -11.5326,0.2754 -11.499078,0 -12.861444,-0.0327 -11.525955,-0.2766 z"
       id="Copy of  path5775 (2)"
       style="fill:#ffffff;fill-rule:nonzero;stroke:none" />
    <path
       transform="translate(23.2508,5.98155)"
       d="M 0.419647,44.8415 C 2.55215,44.4521 3.28674,44.1756 4.10986,43.4529 5.07778,42.6031 5.59086,41.529 5.83479,39.842 5.9533,39.0224 6.03984,31.9577 6.04223,22.9082 L 6.04636,7.38075 7.04343,7.02662 C 9.68298,6.08914 11.6351,3.40211 11.6351,0.70635 V 0 l 9.3663,0.0986513 C 29.3107,0.186168 30.6248,0.245353 32.6447,0.623051 39.4616,1.89773 44.0583,4.95044 45.2767,9.01211 45.625,10.173 45.6979,13.0192 45.4049,14.0108 l -0.1835,0.621 -0.1598,-0.621 c -0.4045,-1.5729 -1.364,-2.7905 -2.7918,-3.5429 -1.0656,-0.56147 -3.5516,-0.52859 -4.6573,0.0616 -1.7353,0.9263 -2.6739,2.4396 -2.6729,4.3093 0.0019,3.3638 3.4717,5.673 6.822,4.54 0.8113,-0.2744 -0.8359,0.9317 -2.3926,1.7518 -2.7679,1.4583 -6.1168,2.3926 -9.3477,2.6077 -0.9479,0.0632 -2.4099,0.164 -3.2489,0.2241 l -1.5254,0.1092 0.4905,-0.6198 c 0.3222,-0.4071 0.9274,-0.7694 1.764,-1.056 2.5157,-0.8617 3.8953,-2.2012 4.8242,-4.6839 0.892,-2.3841 1.0362,-7.0553 0.3139,-10.17143 C 31.5669,2.91251 28.5305,0.800974 22.9108,0.774913 20.6491,0.764428 20.3297,0.810665 19.4164,1.28085 17.7024,2.16318 17.6378,2.41552 17.6378,8.23034 v 4.98956 l -0.5063,0.2307 c -0.8998,0.4099 -2.203,1.7488 -2.7487,2.824 -0.7072,1.3932 -0.8617,3.3888 -0.3757,4.8521 0.4049,1.219 2.0355,3.1406 3.0063,3.5427 l 0.6244,0.2586 v 4.9433 4.9433 l -0.7262,-0.8038 c -2.0447,-2.2633 -6.1615,-2.2567 -8.07126,0.0127 -1.14078,1.3558 -1.44361,2.2164 -1.44316,4.1016 3.6e-4,1.5094 0.07974,1.9106 0.55847,2.8229 0.30692,0.585 0.95357,1.4021 1.43699,1.8159 2.24006,1.9174 5.22656,1.7488 7.39696,-0.4177 0.615,-0.6139 1.1359,-1.1162 1.1575,-1.1162 0.0215,0 0.1501,0.3701 0.2856,0.8225 0.4173,1.3926 1.5725,2.04 4.7869,2.6824 l 1.9664,0.393 -13.0404,-0.0054 C 0.436806,45.118 -0.91695,45.0851 0.419671,44.841 Z"
       id="Copy of  path5814 (2)"
       style="fill:#ffffff;fill-rule:nonzero;stroke:none" />
    <path
       transform="translate(76.4853,5.09941)"
       d="M 4.45599,8.762 C 2.53771,8.50627 1.31684,7.77312 0.50293,6.38812 -0.074493,5.40553 -0.171101,3.72182 0.29851,2.82543 0.75118,1.96137 1.86767,0.990008 3.00705,0.468937 4.28774,-0.116753 6.70826,-0.161479 7.9277,0.378013 9.89667,1.24911 11.1296,3.14284 10.9227,4.9783 10.6336,7.54317 7.79071,9.20655 4.45599,8.762 Z"
       id="Copy of  path5853 (2)"
       style="fill:#ffffff;fill-rule:nonzero;stroke:none" />
    <path
       transform="translate(72.8687,20.9238)"
       d="M 4.24331,8.84185 C 4.24331,4.24367 4.18744,3.18064 3.90929,2.48543 3.50878,1.48446 2.74084,0.898894 1.16957,0.39635 L 0,0.0222803 6.98594,0.0111402 13.9719,0 13.9704,4.81254 13.9689,9.62508 11.9518,9.63103 C 10.1339,9.63642 9.7995,9.70065 8.56385,10.2806 6.97267,11.0275 5.65908,12.1397 4.82879,13.4431 l -0.5862,0.9202 z"
       id="Copy of  path5892 (2)"
       style="fill:#ffffff;fill-rule:nonzero;stroke:none" />
    <path
       transform="translate(72.8687,42.2451)"
       d="M 1.23569,8.4523 C 3.89764,7.55287 4.23944,6.89352 4.25199,2.63368 4.2605,-0.25404 4.26758,-0.2994 4.61422,0.318547 5.30747,1.55442 6.01976,2.32181 7.21378,3.11917 c 1.56293,1.04372 2.94402,1.44551 4.99442,1.45297 1.7313,0.00595 1.9618,0.12016 1.9675,0.97185 0.0045,0.7197 0.737,2.00409 1.3841,2.42811 0.3173,0.20787 0.9514,0.49531 1.4091,0.63875 0.6976,0.21858 -0.6088,0.26065 -8.06829,0.25988 L 0,8.86998 1.23569,8.45246 Z"
       id="Copy of  path5931 (2)"
       style="fill:#ffffff;fill-rule:nonzero;stroke:none" />
    <path
       transform="translate(96.3701,20.9238)"
       d="M 0.199094,29.9252 C 2.17834,29.3759 3.11839,28.5737 3.51685,27.0939 3.65603,26.5771 3.71068,22.215 3.67278,14.6498 3.61819,3.74711 3.58962,2.95142 3.22669,2.22108 2.7537,1.26926 1.92973,0.656342 0.648742,0.303446 -0.194673,0.0710986 0.54875,0.034651 6.46057,0.0185102 L 13.2395,0 V 1.53786 3.07572 L 12.2989,2.54998 C 11.486,2.09567 11.1638,2.03522 9.92739,2.10508 8.0704,2.21001 6.97824,2.9153 6.13348,4.55508 5.63013,5.53215 5.56072,5.86842 5.64052,6.94355 5.74716,8.38054 6.10014,9.17066 7.05061,10.0999 8.509,11.5258 10.9686,11.7765 12.641,10.6697 l 0.8055,-0.533 v 8.0874 c 0,5.3984 0.079,8.401 0.2375,9.0307 0.3042,1.2081 1.3267,2.2405 2.6095,2.635 0.8945,0.275 0.1774,0.3017 -8.02175,0.298 -7.563265,-0.0037 -8.855058,-0.0455 -8.072651,-0.2626 z"
       id="Copy of  path5970 (2)"
       style="fill:#ffffff;fill-rule:nonzero;stroke:none" />
    <path
       transform="translate(111.488,20.0952)"
       d="M 11.7351,11.9431 C 11.6457,7.63015 11.5891,7.02124 11.1787,5.95659 9.85423,2.52016 5.56555,1.89985 1.46317,4.55134 0.756009,5.00841 0.114206,5.38236 0.0369387,5.38236 -0.329524,5.38236 2.11952,3.14981 3.45293,2.26834 8.15615,-0.840781 15.1948,-0.740106 18.6951,2.48635 c 1.2524,1.15444 3.1468,4.09727 2.837,4.40709 -0.149,0.14899 -0.2276,1.53945 -0.2276,4.02396 v 3.7963 l -0.5671,-0.5258 c -0.895,-0.8299 -1.9112,-1.2237 -3.3901,-1.3139 -2.2172,-0.1353 -4.0318,0.8986 -5.005,2.8515 l -0.5077,1.0189 z"
       id="Copy of  path6009 (2)"
       style="fill:#ffffff;fill-rule:nonzero;stroke:none" />
    <path
       transform="translate(120.449,40.5439)"
       d="M 0.22119,10.2731 C 1.30644,9.87564 1.76471,9.43888 2.26673,8.32363 2.62581,7.52594 2.6998,6.83087 2.78196,3.48352 2.86743,0.00235483 2.90779,-0.35402 3.15126,0.224999 3.62147,1.34329 4.43598,2.23171 5.56403,2.8567 6.49704,3.37363 6.8723,3.4587 8.20406,3.4552 9.87304,3.45095 10.7189,3.14282 11.7747,2.15504 l 0.5692,-0.53257 0.0015,2.67786 c 6e-4,1.47282 0.0974,3.02427 0.2149,3.44765 0.312,1.12325 1.105,1.94631 2.3286,2.41672 L 15.9666,10.579 7.68693,10.5753 C 0.236993,10.5716 -0.51111,10.5416 0.221536,10.2732 Z"
       id="Copy of  path6048 (2)"
       style="fill:#ffffff;fill-rule:nonzero;stroke:none" />
    <path
       transform="translate(134.5,20.1272)"
       d="m 8.67498,30.8155 c 1.02445,-0.3095 1.78952,-0.8962 2.27652,-1.746 l 0.4853,-0.8466 V 17.6664 C 11.4368,6.36966 11.4291,6.27724 10.3767,4.7142 10.1028,4.30737 9.48407,3.74849 9.00179,3.47225 8.25687,3.04558 7.86019,2.9715 6.3655,2.97994 4.36884,2.99119 2.94215,3.44732 1.167,4.6419 -0.0934328,5.49011 -0.294086,5.53347 0.378431,4.81228 1.27608,3.84968 4.16142,1.78078 5.45217,1.17421 9.77457,-0.857037 15.5643,-0.191678 18.6975,2.69637 c 0.8291,0.76431 1.9003,2.20233 1.7152,2.30269 -0.0414,0.02248 -0.5243,0.26684 -1.073,0.54304 -1.1594,0.58359 -2.3826,1.89324 -3.0656,3.28237 -0.3983,0.81006 -0.4809,1.31153 -0.4853,2.94583 -0.0045,1.8191 0.0475,2.0767 0.6849,3.3725 0.7892,1.6045 2.1235,2.8103 3.7485,3.3874 l 0.9948,0.3534 0.0902,4.5749 c 0.082,4.1639 0.1304,4.6583 0.5389,5.5022 0.4421,0.9132 1.1971,1.5253 2.288,1.8548 0.3026,0.0914 -3.1757,0.1662 -7.7295,0.1662 -4.5538,0 -8.03215,-0.0748 -7.72963,-0.1662 z"
       id="Copy of  path6087 (2)"
       style="fill:#ffffff;fill-rule:nonzero;stroke:none" />
    <path
       transform="translate(163.945,20.9238)"
       d="M 1.26843,43.9157 C 2.76149,43.3996 3.39701,42.9315 3.79488,42.0548 4.10709,41.3668 4.14525,39.5473 4.19699,22.8797 4.23705,9.98447 4.18537,4.13304 4.02451,3.35832 3.70265,1.80805 2.88622,0.938098 1.27337,0.426867 L 0,0.0232441 6.84935,0.011622 13.6987,0 13.8353,5.0013 c 0.0751,2.75072 0.1366,6.7541 0.1366,8.8964 v 3.8951 l -0.8366,0.4268 c -1.1953,0.6098 -2.3223,1.8158 -3.0147,3.2259 -0.53968,1.0992 -0.59902,1.4255 -0.59902,3.2943 0,1.9273 0.04831,2.1723 0.68142,3.4584 0.7018,1.4255 1.7939,2.5536 3.0484,3.149 l 0.6849,0.325 0.0714,4.3973 c 0.0639,3.9389 0.1165,4.4943 0.5048,5.3287 0.5371,1.1541 1.3794,2.0129 2.4607,2.509 0.8184,0.3754 0.7261,0.3797 -7.96913,0.3776 C 0.32093,44.2825 0.220708,44.278 1.26839,43.9157 Z"
       id="Copy of  path6126 (2)"
       style="fill:#ffffff;fill-rule:nonzero;stroke:none" />
    <path
       transform="translate(164.571,20.9238)"
       d="M 0.641697,43.9157 C 2.11993,43.4048 2.66502,43.0024 3.11991,42.0864 3.49584,41.3294 3.51573,40.4874 3.57328,22.8942 3.61684,9.56614 3.56732,4.17391 3.39418,3.33357 3.08814,1.84978 2.0952,0.834572 0.487039,0.361222 -0.585234,0.0456063 -0.371553,0.0327708 6.22261,0.0166961 L 13.072,0 13.2086,5.0013 c 0.0751,2.75072 0.1366,6.7541 0.1366,8.8964 v 3.8951 l -0.7869,0.4014 c -1.144,0.5836 -2.428,1.9555 -3.08774,3.299 -0.51332,1.0453 -0.57571,1.3971 -0.57571,3.2466 0,1.9273 0.0483,2.1723 0.68141,3.4584 0.70174,1.4254 1.79384,2.5536 3.04814,3.1488 l 0.6846,0.3249 0.0897,4.2939 c 0.0533,2.553 0.1922,4.6146 0.3424,5.0848 0.3293,1.0312 1.5622,2.3842 2.6054,2.8593 0.8164,0.3718 0.7052,0.377 -7.96913,0.3749 -8.683145,-0.0023 -8.783366,-0.0068 -7.735684,-0.3691 z"
       id="Copy of  path6165 (2)"
       style="fill:#ffffff;fill-rule:nonzero;stroke:none" />
    <path
       transform="translate(184.587,26.8229)"
       d="M 1.35385,24.8742 C 0.701262,24.7261 0.102604,24.5402 0.0235008,24.4611 -0.180197,24.2574 0.995988,23.0796 1.40307,23.0796 c 1.62299,0 4.0231,-1.61 5.07448,-3.4041 1.2168,-2.0763 1.96206,-5.7981 1.96206,-9.79856 V 7.59442 L 9.94029,7.62163 C 13.7375,7.6908 16.368,5.33349 16.7108,1.55429 L 16.8517,0 17.4064,1.15701 c 1.8147,3.78485 2.0284,9.27579 0.5348,13.73509 -1.6483,4.9212 -5.2788,8.4789 -9.96351,9.7639 -1.55841,0.4275 -5.17658,0.5466 -6.62383,0.2181 z"
       id="Copy of  path6204 (2)"
       style="fill:#ffffff;fill-rule:nonzero;stroke:none" />
    <path
       transform="translate(179.78,20.1304)"
       d="M 0,4.51455 C 0,4.06376 2.65643,1.6593 3.72945,1.13886 6.77309,-0.337417 11.3932,-0.382791 15.0068,1.0281 l 1.242,0.4849 -1.5524,0.12229 C 12.9014,1.77668 11.9718,2.12803 10.8978,3.07107 10.192,3.69073 10.1018,3.71856 9.77063,3.41884 8.96571,2.69039 7.57689,2.25148 6.06225,2.24687 4.27069,2.24139 2.84142,2.72291 1.16654,3.89618 0.52494,4.34561 0,4.62388 0,4.51455 Z"
       id="Copy of  path6243 (2)"
       style="fill:#ffffff;fill-rule:nonzero;stroke:none" />
    <path
       transform="translate(211.515,20.0958)"
       d="M 2.67916,11.3632 C 0.8872,10.9361 -0.248359,9.12104 0.0464586,7.15506 0.689319,2.86813 6.75802,0 15.1859,0 h 2.0206 L 16.7887,0.41777 C 16.3974,0.80905 16.2665,0.821008 14.7245,0.606367 10.5825,0.0298083 6.76493,1.50114 6.76493,3.67408 c 0,0.77403 0.79977,2.23794 1.43822,2.63252 0.35532,0.21961 1.04567,1.70152 1.04567,2.24467 0,0.77055 -0.83913,1.83013 -1.86292,2.35233 -1.08936,0.5557 -3.36935,0.7783 -4.70674,0.4596 z"
       id="Copy of  path6282 (2)"
       style="fill:#ffffff;fill-rule:nonzero;stroke:none" />
    <path
       transform="translate(210,33.8975)"
       d="M 6.33003,18.0528 C 2.67518,17.5198 0.00725953,14.8607 0.00224787,11.7459 L 0,10.488 0.600846,10.5762 C 0.931303,10.6247 1.74634,10.5074 2.41201,10.3156 4.14423,9.81629 5.602,8.29888 6.19552,6.37726 6.43103,5.6148 6.62371,4.81573 6.62371,4.60156 c 0,-0.48716 0.53306,-0.72001 5.17479,-2.26044 5.2008,-1.725978 8.248,-2.50935 8.9895,-2.311032 0.5631,0.150605 0.5207,0.180227 -0.622,0.434251 -4.436,0.986141 -7.7994,3.084531 -9.1501,5.708671 -0.7141,1.38734 -0.8957,4.20409 -0.3613,5.60349 0.6512,1.705 1.9112,2.7623 3.6891,3.0959 0.7445,0.1396 0.7666,0.1698 0.7666,1.0432 v 0.8994 l -1.6127,0.5095 C 11.8894,17.8325 9.16078,18.3046 8.10941,18.2567 7.80458,18.2429 7.00375,18.1511 6.32979,18.0528 Z"
       id="Copy of  path6321 (2)"
       style="fill:#ffffff;fill-rule:nonzero;stroke:none" />
    <path
       transform="translate(232.148,23.7182)"
       d="M 7.34718,27.7885 C 7.4301,27.5324 7.54371,26.6593 7.59961,25.8484 7.68119,24.6649 7.61917,24.188 7.28443,23.4316 6.29813,21.2019 3.87195,19.5661 1.29369,19.3925 L 0,19.3054 V 14.9076 10.5097 L 1.32191,10.4036 C 3.76508,10.2075 6.10626,8.38763 7.06292,5.94098 7.54685,4.70331 7.71101,2.20259 7.40536,0.724468 L 7.25555,0 8.06122,0.887333 C 9.60446,2.58699 9.59071,2.47843 9.71832,13.9719 c 0.08285,7.4633 0.18187,10.3648 0.36458,10.6834 0.3713,0.6474 1.3563,0.9754 2.577,0.8581 l 1.0637,-0.1022 -0.4968,0.3805 c -1.3024,0.9977 -4.64836,2.4625 -5.62468,2.4625 -0.32742,0 -0.37663,-0.0898 -0.25495,-0.4657 z"
       id="Copy of  path6360 (2)"
       style="fill:#ffffff;fill-rule:nonzero;stroke:none" />
  </g>
  <text
     xml:space="preserve"
     style="font-style:normal;font-variant:normal;font-weight:bold;font-stretch:normal;font-size:15.808px;line-height:1.25;font-family:'Times New Roman';-inkscape-font-specification:'\'\' Times New Roman Bold';stroke-width:0.846854"
     x="16.569773"
     y="154.41025"
     id="text797"
     transform="scale(1.1291374,0.8856318)"><tspan
       id="tspan795"
       style="font-style:normal;font-variant:normal;font-weight:bold;font-stretch:normal;font-size:15.808px;font-family:'Times New Roman';-inkscape-font-specification:'Times New Roman,  Bold';stroke-width:0.846854"
       x="16.569773"
       y="154.41025">Kulturális, tudományos és közéleti magazin</tspan></text>
  <text
     xml:space="preserve"
     style="font-size:9.99998px;line-height:1.25;font-family:'Times New Roman';-inkscape-font-specification:'Times New Roman, ';stroke-width:0.75;font-weight:normal;font-style:normal;font-stretch:normal;font-variant:normal"
     x="19.862909"
     y="16.403318"
     id="text959"><tspan
       id="tspan957"
       style="font-style:normal;font-variant:normal;font-weight:normal;font-stretch:normal;font-family:'Times New Roman';-inkscape-font-specification:'Times New Roman, ';stroke-width:0.75"
       x="19.862909"
       y="16.403318">Világ Pimpái egyesüljetek!</tspan></text>
</svg>
