<?xml version="1.0" encoding="UTF-8" standalone="no"?>
<svg
   width="132.65601mm"
   viewBox="0 0 376.03277 130.80042"
   height="46.143478mm"
   version="1.1"
   id="svg697"
   xmlns="http://www.w3.org/2000/svg"
   xmlns:svg="http://www.w3.org/2000/svg">
  <defs
     id="defs8">
    <clipPath
       clipPathUnits="userSpaceOnUse"
       id="clipPath343">
      <g
         id="g347">
        <path
           d="M -0.08301437,10.450247 H 395.05038 V 124.45094 H -0.08301437 Z"
           id="path345"
           style="stroke-width:0.958157" />
      </g>
    </clipPath>
    <clipPath
       clipPathUnits="userSpaceOnUse"
       id="clipPath349">
      <g
         id="g353">
        <path
           d="M -0.08301437,10.450247 H 395.05038 V 124.45094 H -0.08301437 Z"
           id="path351"
           style="stroke-width:0.958157" />
      </g>
    </clipPath>
    <clipPath
       clipPathUnits="userSpaceOnUse"
       id="clipPath355">
      <g
         id="g359">
        <path
           d="M -0.08301437,10.450247 H 395.05038 V 124.45094 H -0.08301437 Z"
           id="path357"
           style="stroke-width:0.958157" />
      </g>
    </clipPath>
    <clipPath
       clipPathUnits="userSpaceOnUse"
       id="clipPath361">
      <g
         id="g365">
        <path
           d="M -0.08301437,10.450247 H 395.05038 V 124.45094 H -0.08301437 Z"
           id="path363"
           style="stroke-width:0.958157" />
      </g>
    </clipPath>
    <clipPath
       clipPathUnits="userSpaceOnUse"
       id="clipPath367">
      <g
         id="g371">
        <path
           d="M -0.08301437,10.450247 H 395.05038 V 124.45094 H -0.08301437 Z"
           id="path369"
           style="stroke-width:0.958157" />
      </g>
    </clipPath>
    <clipPath
       clipPathUnits="userSpaceOnUse"
       id="clipPath373">
      <g
         id="g377">
        <path
           d="M -0.08301437,10.450247 H 395.05038 V 124.45094 H -0.08301437 Z"
           id="path375"
           style="stroke-width:0.958157" />
      </g>
    </clipPath>
    <clipPath
       clipPathUnits="userSpaceOnUse"
       id="clipPath379">
      <g
         id="g383">
        <path
           d="M -0.08301437,10.450247 H 395.05038 V 124.45094 H -0.08301437 Z"
           id="path381"
           style="stroke-width:0.958157" />
      </g>
    </clipPath>
    <clipPath
       clipPathUnits="userSpaceOnUse"
       id="clipPath385">
      <g
         id="g389">
        <path
           d="M -0.08301437,10.450247 H 395.05038 V 124.45094 H -0.08301437 Z"
           id="path387"
           style="stroke-width:0.958157" />
      </g>
    </clipPath>
    <clipPath
       clipPathUnits="userSpaceOnUse"
       id="clipPath391">
      <g
         id="g395">
        <path
           d="M -0.08301437,10.450247 H 395.05038 V 124.45094 H -0.08301437 Z"
           id="path393"
           style="stroke-width:0.958157" />
      </g>
    </clipPath>
    <clipPath
       clipPathUnits="userSpaceOnUse"
       id="clipPath397">
      <g
         id="g401">
        <path
           d="M -0.08301437,10.450247 H 395.05038 V 124.45094 H -0.08301437 Z"
           id="path399"
           style="stroke-width:0.958157" />
      </g>
    </clipPath>
    <clipPath
       clipPathUnits="userSpaceOnUse"
       id="clipPath403">
      <g
         id="g407">
        <path
           d="M -0.08301437,10.450247 H 395.05038 V 124.45094 H -0.08301437 Z"
           id="path405"
           style="stroke-width:0.958157" />
      </g>
    </clipPath>
    <clipPath
       clipPathUnits="userSpaceOnUse"
       id="clipPath409">
      <g
         id="g413">
        <path
           d="M -0.08301437,10.450247 H 395.05038 V 124.45094 H -0.08301437 Z"
           id="path411"
           style="stroke-width:0.958157" />
      </g>
    </clipPath>
    <clipPath
       clipPathUnits="userSpaceOnUse"
       id="clipPath415">
      <g
         id="g419">
        <path
           d="M -0.08301437,10.450247 H 395.05038 V 124.45094 H -0.08301437 Z"
           id="path417"
           style="stroke-width:0.958157" />
      </g>
    </clipPath>
    <clipPath
       clipPathUnits="userSpaceOnUse"
       id="clipPath421">
      <g
         id="g425">
        <path
           d="M -0.08301437,10.450247 H 395.05038 V 124.45094 H -0.08301437 Z"
           id="path423"
           style="stroke-width:0.958157" />
      </g>
    </clipPath>
    <clipPath
       clipPathUnits="userSpaceOnUse"
       id="clipPath427">
      <g
         id="g431">
        <path
           d="M -0.08301437,10.450247 H 395.05038 V 124.45094 H -0.08301437 Z"
           id="path429"
           style="stroke-width:0.958157" />
      </g>
    </clipPath>
    <clipPath
       clipPathUnits="userSpaceOnUse"
       id="clipPath433">
      <g
         id="g437">
        <path
           d="M -0.08301437,10.450247 H 395.05038 V 124.45094 H -0.08301437 Z"
           id="path435"
           style="stroke-width:0.958157" />
      </g>
    </clipPath>
    <clipPath
       clipPathUnits="userSpaceOnUse"
       id="clipPath439">
      <g
         id="g443">
        <path
           d="M -0.08301437,10.450247 H 395.05038 V 124.45094 H -0.08301437 Z"
           id="path441"
           style="stroke-width:0.958157" />
      </g>
    </clipPath>
    <clipPath
       clipPathUnits="userSpaceOnUse"
       id="clipPath445">
      <g
         id="g449">
        <path
           d="M -0.08301437,10.450247 H 395.05038 V 124.45094 H -0.08301437 Z"
           id="path447"
           style="stroke-width:0.958157" />
      </g>
    </clipPath>
    <clipPath
       clipPathUnits="userSpaceOnUse"
       id="clipPath451">
      <g
         id="g455">
        <path
           d="M -0.08301437,10.450247 H 395.05038 V 124.45094 H -0.08301437 Z"
           id="path453"
           style="stroke-width:0.958157" />
      </g>
    </clipPath>
    <clipPath
       clipPathUnits="userSpaceOnUse"
       id="clipPath457">
      <g
         id="g461">
        <path
           d="M -0.08301437,10.450247 H 395.05038 V 124.45094 H -0.08301437 Z"
           id="path459"
           style="stroke-width:0.958157" />
      </g>
    </clipPath>
    <clipPath
       clipPathUnits="userSpaceOnUse"
       id="clipPath463">
      <g
         id="g467">
        <path
           d="M -0.08301437,10.450247 H 395.05038 V 124.45094 H -0.08301437 Z"
           id="path465"
           style="stroke-width:0.958157" />
      </g>
    </clipPath>
    <clipPath
       clipPathUnits="userSpaceOnUse"
       id="clipPath469">
      <g
         id="g473">
        <path
           d="M -0.08301437,10.450247 H 395.05038 V 124.45094 H -0.08301437 Z"
           id="path471"
           style="stroke-width:0.958157" />
      </g>
    </clipPath>
    <clipPath
       clipPathUnits="userSpaceOnUse"
       id="clipPath475">
      <g
         id="g479">
        <path
           d="M -0.08301437,10.450247 H 395.05038 V 124.45094 H -0.08301437 Z"
           id="path477"
           style="stroke-width:0.958157" />
      </g>
    </clipPath>
    <clipPath
       clipPathUnits="userSpaceOnUse"
       id="clipPath481">
      <g
         id="g485">
        <path
           d="M -0.08301437,10.450247 H 395.05038 V 124.45094 H -0.08301437 Z"
           id="path483"
           style="stroke-width:0.958157" />
      </g>
    </clipPath>
    <clipPath
       clipPathUnits="userSpaceOnUse"
       id="clipPath487">
      <g
         id="g491">
        <path
           d="M -0.08301437,10.450247 H 395.05038 V 124.45094 H -0.08301437 Z"
           id="path489"
           style="stroke-width:0.958157" />
      </g>
    </clipPath>
    <clipPath
       clipPathUnits="userSpaceOnUse"
       id="clipPath493">
      <g
         id="g497">
        <path
           d="M -0.08301437,10.450247 H 395.05038 V 124.45094 H -0.08301437 Z"
           id="path495"
           style="stroke-width:0.958157" />
      </g>
    </clipPath>
    <clipPath
       clipPathUnits="userSpaceOnUse"
       id="clipPath499">
      <g
         id="g503">
        <path
           d="M -0.08301437,10.450247 H 395.05038 V 124.45094 H -0.08301437 Z"
           id="path501"
           style="stroke-width:0.958157" />
      </g>
    </clipPath>
    <clipPath
       clipPathUnits="userSpaceOnUse"
       id="clipPath505">
      <g
         id="g509">
        <path
           d="M -0.08301437,10.450247 H 395.05038 V 124.45094 H -0.08301437 Z"
           id="path507"
           style="stroke-width:0.958157" />
      </g>
    </clipPath>
    <clipPath
       clipPathUnits="userSpaceOnUse"
       id="clipPath511">
      <g
         id="g515">
        <path
           d="M -0.08301437,10.450247 H 395.05038 V 124.45094 H -0.08301437 Z"
           id="path513"
           style="stroke-width:0.958157" />
      </g>
    </clipPath>
    <clipPath
       clipPathUnits="userSpaceOnUse"
       id="clipPath517">
      <g
         id="g521">
        <path
           d="M -0.08301437,10.450247 H 395.05038 V 124.45094 H -0.08301437 Z"
           id="path519"
           style="stroke-width:0.958157" />
      </g>
    </clipPath>
    <clipPath
       clipPathUnits="userSpaceOnUse"
       id="clipPath523">
      <g
         id="g527">
        <path
           d="M -0.08301437,10.450247 H 395.05038 V 124.45094 H -0.08301437 Z"
           id="path525"
           style="stroke-width:0.958157" />
      </g>
    </clipPath>
    <clipPath
       clipPathUnits="userSpaceOnUse"
       id="clipPath529">
      <g
         id="g533">
        <path
           d="M -0.08301437,10.450247 H 395.05038 V 124.45094 H -0.08301437 Z"
           id="path531"
           style="stroke-width:0.958157" />
      </g>
    </clipPath>
    <clipPath
       clipPathUnits="userSpaceOnUse"
       id="clipPath535">
      <g
         id="g539">
        <path
           d="M -0.08301437,10.450247 H 395.05038 V 124.45094 H -0.08301437 Z"
           id="path537"
           style="stroke-width:0.958157" />
      </g>
    </clipPath>
    <clipPath
       clipPathUnits="userSpaceOnUse"
       id="clipPath541">
      <g
         id="g545">
        <path
           d="M -0.08301437,10.450247 H 395.05038 V 124.45094 H -0.08301437 Z"
           id="path543"
           style="stroke-width:0.958157" />
      </g>
    </clipPath>
    <clipPath
       clipPathUnits="userSpaceOnUse"
       id="clipPath547">
      <g
         id="g551">
        <path
           d="M -0.08301437,10.450247 H 395.05038 V 124.45094 H -0.08301437 Z"
           id="path549"
           style="stroke-width:0.958157" />
      </g>
    </clipPath>
    <clipPath
       clipPathUnits="userSpaceOnUse"
       id="clipPath553">
      <g
         id="g557">
        <path
           d="M -0.08301437,10.450247 H 395.05038 V 124.45094 H -0.08301437 Z"
           id="path555"
           style="stroke-width:0.958157" />
      </g>
    </clipPath>
    <clipPath
       clipPathUnits="userSpaceOnUse"
       id="clipPath559">
      <g
         id="g563">
        <path
           d="M -0.08301437,10.450247 H 395.05038 V 124.45094 H -0.08301437 Z"
           id="path561"
           style="stroke-width:0.958157" />
      </g>
    </clipPath>
    <clipPath
       clipPathUnits="userSpaceOnUse"
       id="clipPath565">
      <g
         id="g569">
        <path
           d="M -0.08301437,10.450247 H 395.05038 V 124.45094 H -0.08301437 Z"
           id="path567"
           style="stroke-width:0.958157" />
      </g>
    </clipPath>
    <clipPath
       clipPathUnits="userSpaceOnUse"
       id="clipPath571">
      <g
         id="g575">
        <path
           d="M -0.08301437,10.450247 H 395.05038 V 124.45094 H -0.08301437 Z"
           id="path573"
           style="stroke-width:0.958157" />
      </g>
    </clipPath>
    <clipPath
       clipPathUnits="userSpaceOnUse"
       id="clipPath577">
      <g
         id="g581">
        <path
           d="M -0.08301437,10.450247 H 395.05038 V 124.45094 H -0.08301437 Z"
           id="path579"
           style="stroke-width:0.958157" />
      </g>
    </clipPath>
    <clipPath
       clipPathUnits="userSpaceOnUse"
       id="clipPath583">
      <g
         id="g587">
        <path
           d="M -0.08301437,10.450247 H 395.05038 V 124.45094 H -0.08301437 Z"
           id="path585"
           style="stroke-width:0.958157" />
      </g>
    </clipPath>
    <clipPath
       clipPathUnits="userSpaceOnUse"
       id="clipPath589">
      <g
         id="g593">
        <path
           d="M -0.08301437,10.450247 H 395.05038 V 124.45094 H -0.08301437 Z"
           id="path591"
           style="stroke-width:0.958157" />
      </g>
    </clipPath>
    <clipPath
       clipPathUnits="userSpaceOnUse"
       id="clipPath595">
      <g
         id="g599">
        <path
           d="M -0.08301437,10.450247 H 395.05038 V 124.45094 H -0.08301437 Z"
           id="path597"
           style="stroke-width:0.958157" />
      </g>
    </clipPath>
    <clipPath
       clipPathUnits="userSpaceOnUse"
       id="clipPath601">
      <g
         id="g605">
        <path
           d="M -0.08301437,10.450247 H 395.05038 V 124.45094 H -0.08301437 Z"
           id="path603"
           style="stroke-width:0.958157" />
      </g>
    </clipPath>
    <clipPath
       clipPathUnits="userSpaceOnUse"
       id="clipPath607">
      <g
         id="g611">
        <path
           d="M -0.08301437,10.450247 H 395.05038 V 124.45094 H -0.08301437 Z"
           id="path609"
           style="stroke-width:0.958157" />
      </g>
    </clipPath>
    <clipPath
       clipPathUnits="userSpaceOnUse"
       id="clipPath613">
      <g
         id="g617">
        <path
           d="M -0.08301437,10.450247 H 395.05038 V 124.45094 H -0.08301437 Z"
           id="path615"
           style="stroke-width:0.958157" />
      </g>
    </clipPath>
  </defs>
  <text
     xml:space="preserve"
     style="font-style:normal;font-variant:normal;font-weight:bold;font-stretch:normal;font-size:15.7956px;line-height:1.25;font-family:'Liberation Sans';-inkscape-font-specification:'Liberation Sans Bold';stroke-width:0.846191"
     x="-0.26994434"
     y="144.08997"
     id="text797"
     transform="scale(1.1282541,0.88632517)"><tspan
       id="tspan795"
       style="font-style:normal;font-variant:normal;font-weight:bold;font-stretch:normal;font-size:15.7956px;font-family:'Liberation Serif';-inkscape-font-specification:'Liberation Serif Bold';stroke-width:0.846191"
       x="-0.26994434"
       y="144.08997">Kulturális, tudományos és közéleti magazin</tspan></text>
  <text
     xml:space="preserve"
     style="font-size:9.99998px;line-height:1.25;font-family:'Liberation Sans';-inkscape-font-specification:'Liberation Sans';stroke-width:0.75"
     x="0.8478471"
     y="7.3632665"
     id="text959"><tspan
       id="tspan957"
       style="stroke-width:0.75"
       x="0.8478471"
       y="7.3632665">Világ Pimpái egyesüljetek!</tspan></text>
  <g
     id="g852">
    <path
       d="m 226.32025,30.397781 c 0.0539,0.03786 0.10725,0.07668 0.16006,0.116454 0.16764,0.134598 0.32886,0.278844 0.48298,0.432144 0.15355,0.153702 0.29982,0.316212 0.43803,0.486862 0.1385,0.170522 0.26876,0.348956 0.3903,0.534573 0.12182,0.185541 0.23483,0.378026 0.33844,0.576661 0.10361,0.198778 0.19783,0.403437 0.28218,0.613144 0.084,0.209295 0.15805,0.423321 0.22189,0.641199 0.0637,0.218432 0.11722,0.440418 0.15997,0.665058 0.043,0.224333 0.0753,0.451003 0.0969,0.679081 0.0221,0.227896 0.0333,0.456903 0.0337,0.686101 -1.9e-4,0.689455 -0.0982,1.374589 -0.29061,2.030241 -0.19237,0.656036 -0.47666,1.27441 -0.84251,1.832402 -0.36557,0.55782 -0.8081,1.048324 -1.31131,1.453581 -0.50282,0.405065 -1.06008,0.719903 -1.65118,0.93302 -0.59177,0.213021 -1.21009,0.321447 -1.83225,0.321351 -0.62167,0 -1.23951,-0.108426 -1.8309,-0.321351 -0.12661,-0.06523 -0.25122,-0.135437 -0.37342,-0.210435 -6.13432,1.530418 -10.85046,3.044361 -14.14704,4.54317 0.001,0.01121 0.003,0.02241 0.004,0.03362 0.0119,0.153539 0.018,0.307558 0.0182,0.461673 7e-5,0.462343 -0.0523,0.922675 -0.15584,1.369311 -0.10395,0.447497 -0.2583,0.877179 -0.45911,1.278221 -0.2004,0.400468 -0.44539,0.768849 -0.72869,1.095851 -0.28317,0.327194 -0.60227,0.610232 -0.94913,0.841835 -0.34719,0.231316 -0.71916,0.409184 -1.10639,0.528913 -0.38698,0.119441 -0.78584,0.179784 -1.1864,0.179593 -0.40104,3.83e-4 -0.80039,-0.06006 -1.18781,-0.179593 -0.0862,-0.03774 -0.17144,-0.07845 -0.25554,-0.122028 -0.22988,0.695671 -0.34539,1.434156 -0.34539,2.216798 0,2.032032 0.8201,3.733613 2.45986,5.10302 1.69267,1.325155 3.80864,1.986727 6.34764,1.986727 2.6054,0 5.19053,-0.595865 7.75592,-1.784721 -0.0846,-0.172888 -0.15824,-0.349512 -0.22045,-0.529009 -0.10447,-0.384759 -0.15729,-0.778235 -0.15729,-1.172956 1.9e-4,-0.394242 0.0529,-0.787239 0.15729,-1.171519 0.10448,-0.384281 0.25985,-0.757546 0.46333,-1.112613 0.2032,-0.35545 0.45337,-0.690594 0.74551,-0.999015 0.29234,-0.308133 0.62484,-0.587723 0.99127,-0.833406 0.36633,-0.245779 0.7643,-0.456118 1.18642,-0.627186 0.42211,-0.171259 0.8658,-0.302099 1.32261,-0.390027 0.45691,-0.08774 0.92408,-0.131989 1.39278,-0.131893 0.164,1.91e-4 0.3279,0.0057 0.49142,0.01676 0.16351,0.01054 0.32655,0.02644 0.48863,0.0477 0.1617,0.02184 0.32234,0.04904 0.48155,0.08141 0.15939,0.03218 0.31726,0.06963 0.4732,0.112257 0.15566,0.04262 0.30921,0.09032 0.46046,0.1431 0.15144,0.05259 0.30039,0.11015 0.44646,0.172601 0.14588,0.06255 0.2887,0.129977 0.42825,0.202005 0.13975,0.07212 0.27605,0.148943 0.40861,0.230071 0.13265,0.08084 0.26138,0.166087 0.38608,0.255357 0.1246,0.09004 0.24499,0.184094 0.36087,0.28208 0.11607,0.09722 0.22754,0.198366 0.33412,0.303057 0.10659,0.104595 0.20819,0.212733 0.30471,0.324033 0.0961,0.111587 0.187,0.226239 0.2724,0.343764 0.0856,0.118005 0.16572,0.238787 0.2401,0.362059 0.0746,0.122507 0.14339,0.247503 0.20636,0.374607 0.0627,0.127583 0.11933,0.257273 0.16985,0.388591 0.0506,0.130839 0.0952,0.263307 0.13342,0.397115 0.0382,0.134 0.07,0.269342 0.0955,0.405449 0.0256,0.136395 0.0448,0.273556 0.0576,0.4111 0.0128,0.137256 0.0195,0.274896 0.0196,0.412536 0,0.394721 -0.0528,0.788197 -0.15729,1.172956 -0.10399,0.384281 -0.25898,0.757451 -0.46189,1.112613 -0.20387,0.355067 -0.45442,0.689637 -0.74695,0.997578 -0.0717,0.06331 -0.14521,0.125093 -0.22045,0.185244 0.23636,0.01169 0.48078,0.0182 0.73286,0.0182 3.12093,0 6.08265,-1.259161 8.88613,-3.777099 l -1.19063,-1.457718 -0.79325,0.663583 c -0.21153,0.176719 -0.47588,0.265222 -0.79324,0.265222 -1.1637,0 -1.74521,-0.552762 -1.74521,-1.657042 V 38.013567 c 0,-2.827154 -1.42872,-5.058194 -4.28511,-6.692639 -0.58937,-0.34367 -1.2238,-0.651734 -1.90221,-0.923147 z"
       id="Copy of  path331540 (2)"
       style="clip-rule:evenodd;fill:#ffffff;fill-opacity:0;fill-rule:nonzero;stroke:#000000;stroke-width:1.49334;stroke-linecap:butt;stroke-linejoin:miter;stroke-dasharray:none"
       clip-path="url(#clipPath613)"
       transform="translate(-19.015062)" />
    <path
       d="m 181.09375,28.869854 c -2.38031,-1e-6 -4.33773,0.419239 -5.8716,1.258548 -1.53406,0.795141 -2.90987,2.142747 -4.12648,4.042245 v -4.505254 h -15.15375 v 1.589673 c 1.69267,0.220875 2.82995,0.596574 3.41181,1.126664 0.58185,0.485926 0.87191,1.412883 0.87191,2.78229 v 33.19804 c 0,1.369407 -0.26434,2.274554 -0.79329,2.716305 -0.52896,0.485906 -1.74483,0.883404 -3.64908,1.192591 v 1.523713 h 21.58139 v -1.324484 c -2.38031,-0.08831 -3.99335,-0.574314 -4.83969,-1.457815 -0.84634,-0.839249 -1.27067,-2.363823 -1.27067,-4.572575 v -6.325017 c -0.16821,-0.02069 -0.33547,-0.04971 -0.50119,-0.08697 -0.55851,-0.19827 -1.08491,-0.491365 -1.55994,-0.868558 -0.47464,-0.377097 -0.89206,-0.833502 -1.23692,-1.352549 -0.34506,-0.519143 -0.61324,-1.094414 -0.79468,-1.704647 -0.18145,-0.610423 -0.27384,-1.248241 -0.27384,-1.889986 0,-0.641745 0.0924,-1.279562 0.27384,-1.88989 0.18144,-0.610328 0.44962,-1.1856 0.79468,-1.704742 0.34486,-0.519047 0.76228,-0.975453 1.23692,-1.352549 0.47503,-0.377193 1.00143,-0.670288 1.55994,-0.868559 0.16572,-0.03726 0.33298,-0.06628 0.50119,-0.08697 V 37.285455 c 0,-0.750956 0.74149,-1.701093 2.22264,-2.849624 1.48105,-1.192707 3.01406,-1.788916 4.60103,-1.788916 1.66029,0 2.97763,0.716426 3.95232,2.148101 0.0829,-0.186154 0.17665,-0.367451 0.28083,-0.542992 0.33193,-0.449614 0.73372,-0.844977 1.19054,-1.171558 0.45672,-0.326581 0.9627,-0.580367 1.49955,-0.752048 0.53685,-0.171863 1.09785,-0.259466 1.6624,-0.259572 0.21681,2.21e-4 0.43343,0.01333 0.64861,0.03929 0.21509,0.02565 0.42844,0.06407 0.63883,0.115055 0.2101,0.05128 0.41694,0.114997 0.61918,0.190818 0.20272,0.07562 0.40056,0.163243 0.59254,0.262368 0.19189,0.09879 0.37755,0.208903 0.55602,0.329723 0.17828,0.121625 0.34898,0.253748 0.51107,0.395669 0.16208,0.141357 0.31543,0.292224 0.45911,0.451789 0.14406,0.159765 0.27815,0.327979 0.40151,0.503693 0.12297,0.175589 0.23502,0.358313 0.33557,0.547197 0.10073,0.188635 0.18987,0.383074 0.26684,0.582273 0.0771,0.19988 0.14176,0.404165 0.19371,0.611746 0.0517,0.207025 0.0906,0.416923 0.11655,0.628565 0.0262,0.211833 0.0393,0.425017 0.0393,0.638402 -2.9e-4,0.555579 -0.0893,1.107699 -0.26397,1.635941 -0.17425,0.528913 -0.43199,1.027558 -0.76382,1.47745 -0.33154,0.449509 -0.73285,0.8449 -1.18919,1.171615 -0.45662,0.326524 -0.9627,0.580348 -1.49946,0.751991 -0.53694,0.17193 -1.09785,0.259476 -1.6624,0.259572 -0.56455,-9.6e-5 -1.12555,-0.08764 -1.6624,-0.259572 -0.35617,-0.133808 -0.69701,-0.304493 -1.01647,-0.509277 0.0822,1.028803 0.12355,2.142949 0.12355,3.34349 0,8.128033 -2.24746,12.191235 -6.74363,12.191235 -0.0605,0 -0.12,-0.0015 -0.17972,-0.0027 -0.0553,0.129403 -0.11482,0.256698 -0.17828,0.381599 -0.34486,0.519047 -0.76228,0.975452 -1.23702,1.352549 -0.27451,0.187447 -0.5634,0.348457 -0.8635,0.481308 0.41943,0.230358 0.81625,0.42154 1.18929,0.571057 1.32233,0.574218 2.85543,0.861471 4.60103,0.861471 4.39035,0 8.01362,-1.546318 10.87001,-4.63857 2.85638,-3.136407 4.2851,-7.156028 4.2851,-12.059342 0,-4.638282 -1.34878,-8.370755 -4.04644,-11.197909 -2.69766,-2.871415 -6.26812,-4.307507 -10.71138,-4.307506 m 35.7046,0 c -4.49617,0 -8.11944,0.773171 -10.87001,2.319275 -2.75057,1.546097 -4.12648,3.555218 -4.12648,6.028981 0,1.369388 0.42288,2.452979 1.26923,3.248072 0.89925,0.751033 2.16944,1.125256 3.80922,1.125256 1.63968,0 2.96134,-0.352481 3.96631,-1.059262 1.00507,-0.706781 1.50799,-1.612024 1.50799,-2.716362 0,-0.927656 -0.42298,-1.83425 -1.26923,-2.717741 -0.79343,-0.883481 -1.19063,-1.43475 -1.19063,-1.655615 0,-0.706791 0.47579,-1.281229 1.42786,-1.72297 1.00507,-0.485916 2.19522,-0.729597 3.57046,-0.729597 1.48489,0 2.71175,0.189171 3.68001,0.566843 0.27729,-0.385526 0.59283,-0.735219 0.94066,-1.042481 0.5033,-0.405209 1.06095,-0.720076 1.65253,-0.933044 0.44895,-0.140238 0.91133,-0.221241 1.37744,-0.241329 -1.7225,-0.313424 -3.63707,-0.470027 -5.74536,-0.470026 v 0"
       id="Copy of  path331532 (2)"
       style="clip-rule:evenodd;fill:#ffffff;fill-opacity:0;fill-rule:nonzero;stroke:#000000;stroke-width:1.49334;stroke-linecap:butt;stroke-linejoin:miter;stroke-dasharray:none"
       clip-path="url(#clipPath607)"
       transform="translate(-19.015062)" />
    <path
       d="m 32.274357,15.352698 c 0.0061,0.02055 0.01227,0.04112 0.01821,0.06174 0.01236,0.04663 0.02406,0.0934 0.03508,0.140305 0.01141,0.04664 0.02214,0.09341 0.0323,0.140309 0.01045,0.04712 0.02032,0.09436 0.02952,0.141709 0.0085,0.04714 0.01649,0.09438 0.02387,0.14171 0.0076,0.04715 0.01466,0.09439 0.02099,0.141709 0.0068,0.04763 0.01284,0.09534 0.01831,0.143113 0.0048,0.04765 0.009,0.09536 0.01265,0.143116 0.0039,0.04813 0.0072,0.0963 0.0098,0.144517 0.0025,0.04768 0.0044,0.09539 0.0057,0.143109 0,4.69e-4 0,9.38e-4 0,0.0014 0,4.6e-4 0,9.29e-4 0,0.0014 0,4.7e-4 0,9.39e-4 0,0.0014 0,4.6e-4 0,9.29e-4 0,0.0014 0,4.69e-4 0,9.38e-4 0,0.0014 0,4.59e-4 0,9.29e-4 0,0.0014 0,4.69e-4 0,9.39e-4 0,0.0014 0,4.6e-4 0,9.29e-4 0,0.0014 0,4.7e-4 0,9.39e-4 0,0.0014 0,4.69e-4 0,9.39e-4 0,0.0014 0,4.69e-4 0,9.39e-4 0,0.0014 0,4.7e-4 0,9.39e-4 0,0.0014 0,4.7e-4 0,9.39e-4 0,0.0014 0,4.69e-4 0,9.38e-4 0,0.0014 0,4.69e-4 0,9.38e-4 0,0.0014 0,4.7e-4 0,9.39e-4 0,0.0014 0,4.7e-4 0,9.39e-4 0,0.0014 0,4.69e-4 0,9.38e-4 0,0.0014 0,4.69e-4 0,9.29e-4 0,0.0014 0,4.69e-4 0,9.39e-4 0,0.0014 0,4.69e-4 0,9.29e-4 0,0.0014 0,4.69e-4 0,9.38e-4 0,0.0014 0,4.69e-4 0,9.29e-4 0,0.0014 4.8e-4,0.0014 9.59e-4,0.0028 0.0014,0.0042 0,4.6e-4 0,9.3e-4 0,0.0014 0,4.69e-4 0,9.39e-4 0,0.0014 0,4.6e-4 0,9.29e-4 0,0.0014 0,4.7e-4 0,9.39e-4 0,0.0014 0,4.6e-4 0,9.29e-4 0,0.0014 0,4.69e-4 0,9.38e-4 0,0.0014 0,4.59e-4 0,9.29e-4 0,0.0014 0,4.69e-4 0,9.39e-4 0,0.0014 0,4.6e-4 0,9.29e-4 0,0.0014 0,4.69e-4 0,9.38e-4 0,0.0014 0,4.69e-4 0,9.39e-4 0,0.0014 0,4.69e-4 0,9.39e-4 0,0.0014 0,4.6e-4 0,9.29e-4 0,0.0014 0,4.7e-4 0,9.39e-4 0,0.0014 0,4.69e-4 0,9.39e-4 0,0.0014 0,4.69e-4 0,9.39e-4 0,0.0014 0,4.7e-4 0,9.39e-4 0,0.0014 0,4.7e-4 0,9.39e-4 0,0.0014 0,4.69e-4 0,9.38e-4 0,0.0014 0,4.69e-4 0,9.29e-4 0,0.0014 0,4.7e-4 0,9.39e-4 0,0.0014 0,4.7e-4 0,9.39e-4 0,0.0014 0,4.69e-4 0,9.38e-4 0,0.0014 0,4.69e-4 0,9.29e-4 0,0.0014 0,4.69e-4 0,9.39e-4 0,0.0014 0,4.69e-4 0,9.29e-4 0,0.0014 0,4.69e-4 0,9.38e-4 0,0.0014 0,4.69e-4 0,9.29e-4 0,0.0014 0,4.69e-4 0,9.39e-4 0,0.0014 0,4.69e-4 0,9.29e-4 0,0.0014 0,4.7e-4 0,9.39e-4 0,0.0014 0,4.7e-4 0,9.29e-4 0,0.0014 0,4.69e-4 0,9.38e-4 0,0.0014 0,4.6e-4 0,9.29e-4 0,0.0014 0,4.7e-4 0,9.39e-4 0,0.0014 0,4.6e-4 0,9.29e-4 0,0.0014 0,4.69e-4 0,9.38e-4 0,0.0014 0,4.59e-4 0,9.29e-4 0,0.0014 0,4.69e-4 0,9.39e-4 0,0.0014 0,4.6e-4 0,9.29e-4 0,0.0014 0,4.69e-4 0,9.38e-4 0,0.0014 0,4.59e-4 0,9.29e-4 0,0.0014 0,4.69e-4 0,9.39e-4 0,0.0014 0,4.7e-4 0,9.39e-4 0,0.0014 0,4.7e-4 0,9.39e-4 0,0.0014 0,4.69e-4 0,9.39e-4 0,0.0014 0,4.69e-4 0,9.39e-4 0,0.0014 0,4.7e-4 0,9.39e-4 0,0.0014 0,4.7e-4 0,9.39e-4 0,0.0014 0,4.69e-4 0,9.38e-4 0,0.0014 0,4.69e-4 0,9.38e-4 0,0.0014 0,4.7e-4 0,9.39e-4 0,0.0014 0,4.7e-4 0,9.39e-4 0,0.0014 0,4.69e-4 0,9.38e-4 0,0.0014 0,4.69e-4 0,9.29e-4 0,0.0014 0,4.69e-4 0,9.39e-4 0,0.0014 0,4.69e-4 0,9.29e-4 0,0.0014 0,4.7e-4 0,9.39e-4 0,0.0014 0,4.7e-4 0,9.3e-4 0,0.0014 0,4.69e-4 0,9.39e-4 0,0.0014 0,4.69e-4 0,9.29e-4 0,0.0014 0,4.7e-4 0,9.39e-4 0,0.0014 0,4.7e-4 0,9.29e-4 0,0.0014 0,4.69e-4 0,9.38e-4 0,0.0014 0,4.6e-4 0,9.29e-4 0,0.0014 0,4.7e-4 0,9.39e-4 0,0.0014 0,4.6e-4 0,9.29e-4 0,0.0014 0,4.69e-4 0,9.38e-4 0,0.0014 0,4.59e-4 0,9.29e-4 0,0.0014 0,4.69e-4 0,9.39e-4 0,0.0014 0,4.6e-4 0,9.29e-4 0,0.0014 0,4.69e-4 0,9.38e-4 0,0.0014 0,4.59e-4 0,9.29e-4 0,0.0014 0,4.69e-4 0,9.39e-4 0,0.0014 0,4.7e-4 0,9.39e-4 0,0.0014 0,4.7e-4 0,9.39e-4 0,0.0014 0,4.6e-4 0,9.3e-4 0,0.0014 3.83e-4,0.141375 -0.0048,0.282712 -0.01543,0.423724 -0.01131,0.141327 -0.02818,0.282195 -0.05061,0.422325 -0.02214,0.140303 -0.04975,0.279772 -0.08281,0.418111 -0.03345,0.137899 -0.07237,0.274562 -0.116552,0.409702 -0.0439,0.135456 -0.09307,0.269312 -0.147415,0.401272 -0.05435,0.131615 -0.113773,0.261257 -0.178279,0.388648 -0.06479,0.127784 -0.134571,0.253212 -0.209238,0.376025 -0.07486,0.122515 -0.154412,0.24233 -0.238663,0.359185 -0.08396,0.117229 -0.172432,0.231421 -0.265405,0.342347 -0.09259,0.110505 -0.189589,0.217676 -0.290613,0.321303 -0.101791,0.103819 -0.207608,0.20397 -0.317355,0.30026 -0.109076,0.09658 -0.22189,0.189248 -0.338346,0.277809 -0.116456,0.08794 -0.236363,0.17171 -0.359423,0.251152 -0.123348,0.07976 -0.249801,0.15511 -0.379091,0.225894 -0.12885,0.07105 -0.26045,0.137515 -0.394533,0.199228 -0.13438,0.06143 -0.271137,0.118062 -0.409973,0.169775 -0.138981,0.05176 -0.279946,0.09857 -0.422617,0.140312 -0.142661,0.04159 -0.286903,0.07809 -0.43244,0.109432 -0.145383,0.03186 -0.291974,0.05853 -0.439466,0.07998 -0.106833,0.01397 -0.21405,0.0252 -0.321525,0.03368 0.0077,0.200675 0.01543,0.401684 0.01543,0.615941 v 29.353635 c 0,2.031937 -0.344317,3.468104 -1.031965,4.307353 -0.687638,0.839344 -1.930651,1.347089 -3.729109,1.523713 -0.0529,0 -0.31722,0.04502 -0.793282,0.133329 -0.47606,0.04416 -0.84611,0.08774 -1.110589,0.131893 v 1.657043 H 46.922626 V 58.554572 C 43.801793,58.201134 41.845808,57.715227 41.052373,57.096758 40.31175,56.434132 39.941774,54.887815 39.941774,52.458284 V 40.13372 c 5.448232,-0.08841 9.177225,-0.198654 11.187268,-0.331121 2.062952,-0.17672 3.966124,-0.552476 5.711624,-1.126693 3.226651,-1.015969 5.686991,-2.495621 7.379679,-4.439342 1.745501,-1.943624 2.618491,-4.196436 2.618491,-6.75853 0,-3.799004 -1.824576,-6.758271 -5.474303,-8.878634 -3.649822,-2.164538 -8.781849,-3.246702 -15.393876,-3.246702 h -13.6963 m 11.633828,2.319275 c 3.279463,0 5.634082,0.79494 7.062228,2.385212 1.428241,1.546097 2.141164,4.129656 2.141164,7.75197 0,4.152376 -0.978711,6.869351 -2.935846,8.150446 -0.826024,0.53648 -1.93576,0.955913 -3.328921,1.259927 -0.209142,0.381407 -0.4664,0.738485 -0.766598,1.063477 -0.540107,0.500656 -1.181335,0.897772 -1.887069,1.168837 -0.706022,0.270682 -1.462651,0.409855 -2.226757,0.409663 -0.764106,1.92e-4 -1.520831,-0.138981 -2.226853,-0.409663 -0.705734,-0.271065 -1.346866,-0.668181 -1.886973,-1.168837 -0.540779,-0.500657 -0.969702,-1.095181 -1.262232,-1.749569 -0.292147,-0.654005 -0.442437,-1.354752 -0.442246,-2.062491 -1.91e-4,-0.707739 0.150099,-1.408582 0.442246,-2.062587 0.29253,-0.654292 0.721453,-1.248912 1.262232,-1.749569 0.540203,-0.500082 1.181431,-0.896718 1.886973,-1.1674 0.06719,-0.0137 0.134572,-0.02634 0.202241,-0.03784 V 20.05718 c 0,-1.590272 1.321562,-2.385212 3.966411,-2.385212 m 73.630495,11.197881 c -4.81372,0 -8.70134,1.898894 -11.66354,5.697832 v -4.90226 H 90.721457 v 1.589611 c 1.7455,0.17672 2.882841,0.530637 3.411734,1.060795 0.581898,0.530062 0.871936,1.478791 0.871936,2.848197 V 54.71157 c 0,1.369406 -0.290038,2.297733 -0.871936,2.783639 -0.528893,0.486002 -1.666234,0.883405 -3.411734,1.192688 v 1.523713 h 19.041493 v -1.523713 c -1.42824,-0.220875 -2.40686,-0.596631 -2.93584,-1.126693 -0.52899,-0.530062 -0.79325,-1.435306 -0.79325,-2.716305 V 37.086198 c 0,-0.44175 0.7943,-1.169986 2.38117,-2.185955 1.63978,-1.060219 3.09428,-1.591048 4.3638,-1.591048 1.53396,0 2.64408,0.419242 3.3317,1.258491 0.68724,0.839344 1.03229,2.23193 1.03229,4.175555 v 16.101663 c 0,1.369407 -0.29138,2.341219 -0.87356,2.915533 -0.52899,0.530062 -1.53339,0.839057 -3.01444,0.927465 v 1.523713 h 18.64583 v -1.523713 c -1.42815,-0.176719 -2.43456,-0.530637 -3.01636,-1.060795 -0.5818,-0.574218 -0.87127,-1.501204 -0.87127,-2.782203 V 37.086198 c 0,-0.397498 0.79267,-1.125735 2.37897,-2.185955 1.63997,-1.060219 3.14767,-1.591048 4.5231,-1.591048 1.42814,0 2.45948,0.442421 3.09399,1.325826 0.6882,0.839344 1.03229,2.208751 1.03229,4.10822 v 16.101663 c 0,1.369407 -0.29138,2.341219 -0.87318,2.915533 -0.52908,0.530062 -1.53358,0.839057 -3.01444,0.927465 v 1.523713 h 18.88411 v -1.523713 c -1.53454,-0.08841 -2.56587,-0.397403 -3.09495,-0.927465 -0.52909,-0.530062 -0.79459,-1.50197 -0.79459,-2.915533 v -7.83896 c -0.61535,-0.02576 -1.22399,-0.147889 -1.80291,-0.362059 -0.7227,-0.302673 -1.38022,-0.746531 -1.93423,-1.30619 -0.554,-0.559946 -0.99203,-1.224487 -1.29204,-1.955885 -0.29905,-0.73178 -0.45336,-1.51605 -0.45336,-2.308078 0,-0.791549 0.15431,-1.57534 0.45336,-2.306641 0.30001,-0.731398 0.73804,-1.395939 1.29204,-1.955885 0.55401,-0.559659 1.21153,-1.003516 1.93423,-1.30619 0.44569,-0.14626 0.90577,-0.239074 1.37255,-0.276429 -0.47253,-1.471511 -1.33325,-2.730097 -2.58408,-3.774321 -1.95723,-1.72275 -4.57582,-2.584412 -7.85576,-2.584412 -2.1681,0 -4.12437,0.442421 -5.86977,1.325921 -1.69269,0.839249 -3.59721,2.295723 -5.71354,4.371911 -1.16361,-2.076188 -2.5122,-3.532662 -4.04578,-4.371911 -1.53454,-0.8835 -3.57132,-1.325921 -6.11035,-1.325921 v 0"
       id="Copy of  path328243 (2)"
       style="clip-rule:evenodd;fill:#ffffff;fill-opacity:0;fill-rule:nonzero;stroke:#000000;stroke-width:1.49334;stroke-linecap:butt;stroke-linejoin:miter;stroke-dasharray:none"
       clip-path="url(#clipPath601)"
       transform="translate(-19.015062)" />
    <path
       d="m 68.822712,29.665426 v 1.589678 c 1.745568,0.309216 2.882841,0.706686 3.411802,1.192611 0.52896,0.441741 0.793282,1.346936 0.793282,2.716333 v 19.547527 c 0,1.369406 -0.238577,2.27465 -0.714658,2.7164 -0.476061,0.44175 -1.63907,0.862332 -3.490426,1.259927 v 1.523713 h 18.962899 v -1.523713 c -1.428242,-0.220875 -2.406857,-0.596536 -2.935846,-1.126693 -0.528989,-0.530062 -0.793244,-1.435306 -0.793244,-2.716305 v -0.801127 c -0.8312,0.313018 -1.715021,0.480351 -2.608714,0.493856 -0.972864,-2.87e-4 -1.936144,-0.182849 -2.834725,-0.537341 -0.898937,-0.354205 -1.715711,-0.873444 -2.403752,-1.528023 -0.687503,-0.654676 -1.232815,-1.431762 -1.604804,-2.287006 -0.372497,-0.855341 -0.56429,-1.772174 -0.564424,-2.698106 1.34e-4,-0.925837 0.191927,-1.84267 0.564424,-2.69801 0.371989,-0.855245 0.917301,-1.63233 1.604804,-2.287006 0.688041,-0.65458 1.504815,-1.173818 2.403752,-1.528023 0.898581,-0.354492 1.861861,-0.537054 2.834725,-0.537341 0.352819,3.83e-4 0.705159,0.02481 1.054431,0.07299 0.349369,0.04751 0.694712,0.118867 1.033345,0.213213 0.175979,0.05555 0.349752,0.117333 0.520938,0.185243 V 29.665426 Z"
       id="Copy of  path322584 (2)"
       style="clip-rule:evenodd;fill:#ffffff;fill-opacity:0;fill-rule:nonzero;stroke:#000000;stroke-width:1.49334;stroke-linecap:butt;stroke-linejoin:miter;stroke-dasharray:none"
       clip-path="url(#clipPath595)"
       transform="translate(-19.015062)" />
    <path
       d="m 149.7175,35.228587 c -0.46639,0.03739 -0.92681,0.130165 -1.37175,0.276405 -0.72349,0.302728 -1.38092,0.746594 -1.93476,1.306253 -0.55337,0.559888 -0.99229,1.224496 -1.29171,1.955875 -0.29944,0.73133 -0.45354,1.515121 -0.4535,2.306651 -2.2e-4,0.791999 0.15388,1.576288 0.4535,2.308049 0.29942,0.731388 0.73834,1.395986 1.29171,1.955875 0.55384,0.559659 1.21127,1.003517 1.93476,1.306286 0.57881,0.21417 1.18696,0.336294 1.80278,0.361963 v -8.85897 c 0,-1.051887 -0.144,-2.024232 -0.43103,-2.918387 z"
       id="Copy of  path320162 (2)"
       style="clip-rule:evenodd;fill:#d40000;fill-rule:nonzero;stroke:#000000;stroke-width:1.49334;stroke-linecap:butt;stroke-linejoin:miter;stroke-dasharray:none"
       clip-path="url(#clipPath589)"
       transform="translate(-19.015062)" />
    <path
       d="m 221.5581,43.978058 v 9.606823 c -1.90422,1.899469 -3.75446,2.849634 -5.55292,2.849634 -1.21661,0 -2.22244,-0.397498 -3.01587,-1.192591 -0.74054,-0.839345 -1.11059,-1.94327 -1.11059,-3.312677 0,-3.887336 3.22612,-6.537607 9.67938,-7.951189 z"
       id="Copy of  text109307 (2)"
       style="clip-rule:evenodd;fill:#ffffff;fill-opacity:0;fill-rule:nonzero;stroke:#000000;stroke-width:1.49334;stroke-linecap:butt;stroke-linejoin:miter;stroke-dasharray:none"
       clip-path="url(#clipPath583)"
       transform="translate(-19.015062)" />
    <path
       d="m 84.056521,40.908201 c -0.17109,-0.06791 -0.344864,-0.129691 -0.520899,-0.185198 -0.338682,-0.09442 -0.684015,-0.165695 -1.033365,-0.213271 -0.349205,-0.04818 -0.701583,-0.07256 -1.054431,-0.07296 -0.972826,2.62e-4 -1.936077,0.182862 -2.834754,0.537376 -0.898888,0.35417 -1.715663,0.873361 -2.403703,1.527941 -0.687504,0.654694 -1.232812,1.431809 -1.604806,2.287006 -0.372498,0.855359 -0.564291,1.772182 -0.564423,2.698096 1.32e-4,0.925913 0.191925,1.842727 0.564423,2.698067 0.371994,0.855245 0.917302,1.632331 1.604806,2.287006 0.68804,0.65458 1.504815,1.173818 2.403703,1.527927 0.898677,0.354588 1.861928,0.53715 2.834754,0.537437 0.893751,-0.01351 1.777562,-0.180837 2.608695,-0.493856 z"
       id="Copy of  path317523 (2)"
       style="clip-rule:evenodd;fill:#d40000;fill-rule:nonzero;stroke:#000000;stroke-width:1.49334;stroke-linecap:butt;stroke-linejoin:miter;stroke-dasharray:none"
       clip-path="url(#clipPath577)"
       transform="translate(-19.015062)" />
    <path
       d="m 174.90577,59.640558 c 0.30002,-0.132851 0.58894,-0.293862 0.86349,-0.481309 0.47466,-0.377096 0.89206,-0.833501 1.23692,-1.35252 0.0635,-0.124891 0.12298,-0.252186 0.17838,-0.381637 -2.76202,-0.05576 -4.73981,-1.400421 -5.93067,-4.03803 v -5.077705 c -0.1682,0.02069 -0.33545,0.04972 -0.50124,0.08699 -0.55843,0.19822 -1.08484,0.491308 -1.55988,0.868499 -0.47467,0.377145 -0.89209,0.833578 -1.23696,1.352558 -0.34509,0.519143 -0.61326,1.094424 -0.79468,1.704733 -0.18143,0.610366 -0.27383,1.248146 -0.27379,1.889929 -4e-5,0.641773 0.0924,1.279562 0.27379,1.889929 0.18142,0.610308 0.44959,1.185589 0.79468,1.704732 0.34487,0.519019 0.76229,0.975424 1.23696,1.35252 0.47504,0.377193 1.00145,0.670288 1.55988,0.868559 0.16579,0.03726 0.33304,0.06628 0.50124,0.08697 v -3.018001 c 1.36716,1.110007 2.58432,1.957302 3.65189,2.54378 z"
       id="Copy of  path322582 (2)"
       style="clip-rule:evenodd;fill:#d40000;fill-rule:nonzero;stroke:#000000;stroke-width:1.49334;stroke-linecap:butt;stroke-linejoin:miter;stroke-dasharray:none"
       clip-path="url(#clipPath571)"
       transform="translate(-19.015062)" />
    <path
       d="m 183.98393,41.893058 c 0.31955,0.204784 0.66031,0.375565 1.01653,0.509373 0.53685,0.171835 1.09785,0.259476 1.66237,0.259572 0.56453,-9.6e-5 1.12552,-0.08774 1.66238,-0.259572 0.53681,-0.171738 1.04284,-0.425467 1.4995,-0.752086 0.45637,-0.326677 0.85768,-0.72203 1.18922,-1.171549 0.33179,-0.449949 0.58954,-0.948527 0.76379,-1.47743 0.17463,-0.528319 0.26368,-1.080392 0.26396,-1.63597 0,-0.213385 -0.0131,-0.426579 -0.0393,-0.638402 -0.026,-0.211642 -0.0649,-0.42155 -0.11656,-0.628575 -0.052,-0.207571 -0.11664,-0.411866 -0.19371,-0.611736 -0.077,-0.199199 -0.16606,-0.393648 -0.26681,-0.582273 -0.10057,-0.188884 -0.21262,-0.371618 -0.33557,-0.547198 -0.1234,-0.175723 -0.25749,-0.343927 -0.40155,-0.503702 -0.14365,-0.159555 -0.29697,-0.310432 -0.45911,-0.451789 -0.1621,-0.141911 -0.33277,-0.274044 -0.51108,-0.395663 -0.17842,-0.120826 -0.36409,-0.230933 -0.55599,-0.329722 -0.19195,-0.09913 -0.38981,-0.186748 -0.5925,-0.262374 -0.20231,-0.07581 -0.40908,-0.139534 -0.61918,-0.190816 -0.21039,-0.05098 -0.42373,-0.0894 -0.63884,-0.115053 -0.21522,-0.02595 -0.43183,-0.03907 -0.64866,-0.03928 -0.56452,1.05e-4 -1.12552,0.0877 -1.66237,0.259569 -0.53682,0.171675 -1.04285,0.425462 -1.49952,0.752041 -0.45685,0.326591 -0.85865,0.721953 -1.19062,1.171567 -0.1041,0.175541 -0.19786,0.356839 -0.2808,0.542983 1.04766,1.538933 1.6991,3.905008 1.95441,7.09809 z"
       id="Copy of  path331526 (2)"
       style="clip-rule:evenodd;fill:#d40000;fill-rule:nonzero;stroke:#000000;stroke-width:1.49334;stroke-linecap:butt;stroke-linejoin:miter;stroke-dasharray:none"
       clip-path="url(#clipPath565)"
       transform="translate(-19.015062)" />
    <path
       d="m 200.63854,51.898424 c 0.0841,0.04365 0.16931,0.08436 0.25553,0.122075 0.38743,0.119566 0.78678,0.179947 1.18781,0.179603 0.40057,2.1e-4 0.79943,-0.06017 1.18641,-0.179603 0.38723,-0.119738 0.75919,-0.297568 1.10637,-0.52896 0.34688,-0.231536 0.66597,-0.514565 0.94914,-0.841845 0.28331,-0.326954 0.52829,-0.695354 0.72869,-1.095793 0.20081,-0.401043 0.35517,-0.830773 0.45912,-1.278193 0.10352,-0.446655 0.15591,-0.907033 0.15584,-1.369395 -2.5e-4,-0.154102 -0.006,-0.308118 -0.0182,-0.461609 -0.001,-0.01123 -0.003,-0.02245 -0.004,-0.03367 -0.45091,0.204991 -0.87571,0.410128 -1.27347,0.614544 -2.50326,1.27391 -4.08065,2.898568 -4.73299,4.872862 z"
       id="Copy of  path331529 (2)"
       style="clip-rule:evenodd;fill:#d40000;fill-rule:nonzero;stroke:#000000;stroke-width:1.49334;stroke-linecap:butt;stroke-linejoin:miter;stroke-dasharray:none"
       clip-path="url(#clipPath559)"
       transform="translate(-19.015062)" />
    <path
       d="m 227.4112,61.186722 c 0.0752,-0.06019 0.14875,-0.121951 0.22045,-0.185225 0.29253,-0.307951 0.54308,-0.642578 0.74695,-0.997578 0.20291,-0.355172 0.3579,-0.72838 0.46189,-1.112632 0.10448,-0.384798 0.15729,-0.778254 0.15729,-1.172966 -1.9e-4,-0.137668 -0.007,-0.27527 -0.0197,-0.412508 -0.0127,-0.137611 -0.0319,-0.274753 -0.0575,-0.41109 -0.0255,-0.136165 -0.0574,-0.271429 -0.0955,-0.405496 -0.0383,-0.133771 -0.0828,-0.266219 -0.13343,-0.397058 -0.0505,-0.131376 -0.10725,-0.261028 -0.16984,-0.388658 -0.063,-0.127094 -0.13179,-0.252062 -0.20646,-0.374616 -0.0743,-0.123263 -0.15441,-0.244026 -0.24,-0.361992 -0.0855,-0.117535 -0.17636,-0.232206 -0.2724,-0.343746 -0.0965,-0.111347 -0.19812,-0.219467 -0.30471,-0.324109 -0.10658,-0.104662 -0.21805,-0.205761 -0.33413,-0.303067 -0.11588,-0.09796 -0.23626,-0.192035 -0.36087,-0.282023 -0.1247,-0.08934 -0.25352,-0.174516 -0.38608,-0.255357 -0.13255,-0.08117 -0.26885,-0.15793 -0.4086,-0.230101 -0.13954,-0.07203 -0.2824,-0.139425 -0.42823,-0.20203 -0.14608,-0.06242 -0.29502,-0.119986 -0.44647,-0.172572 -0.15123,-0.05275 -0.30486,-0.100495 -0.46054,-0.143113 -0.15591,-0.04261 -0.31374,-0.08006 -0.47315,-0.112242 -0.1592,-0.03242 -0.31985,-0.05956 -0.48158,-0.08137 -0.16207,-0.02128 -0.32506,-0.0372 -0.48861,-0.0477 -0.16347,-0.01103 -0.3274,-0.01664 -0.49141,-0.01683 -0.46867,-4.7e-5 -0.93587,0.0442 -1.39281,0.1319 -0.45682,0.08795 -0.90047,0.218786 -1.32259,0.390054 -0.42212,0.171036 -0.82009,0.381411 -1.18641,0.627171 -0.36646,0.245712 -0.69896,0.525273 -0.99125,0.833426 -0.29219,0.308449 -0.54228,0.643545 -0.74554,0.998976 -0.20346,0.355124 -0.35888,0.728342 -0.46333,1.112642 -0.10438,0.384338 -0.15713,0.777315 -0.15726,1.171557 1e-5,0.394712 0.0528,0.788168 0.15726,1.172966 0.0623,0.179488 0.13584,0.356054 0.22043,0.528961 1.60134,-0.742116 3.19508,-1.714417 4.78073,-2.919786 0.42317,1.722798 1.1104,2.938377 2.06253,3.645168 0.8755,0.615721 2.11264,0.961918 3.71088,1.041082 z"
       id="Copy of  path331537 (2)"
       style="clip-rule:evenodd;fill:#d40000;fill-rule:nonzero;stroke:#000000;stroke-width:1.49334;stroke-linecap:butt;stroke-linejoin:miter;stroke-dasharray:none"
       clip-path="url(#clipPath553)"
       transform="translate(-19.015062)" />
    <path
       d="m 222.5434,29.33986 c -0.46608,0.02009 -0.92841,0.101091 -1.37737,0.24133 -0.59159,0.212968 -1.14926,0.527835 -1.65253,0.933044 -0.34787,0.307261 -0.66342,0.656955 -0.94071,1.042471 0.54945,0.214314 1.01542,0.489172 1.39842,0.825006 1.11077,0.927666 1.66658,2.40729 1.66658,4.439312 v 4.83775 c -0.28517,0.06983 -0.56592,0.139364 -0.84522,0.209094 0.12221,0.075 0.24678,0.145207 0.37346,0.210435 0.59131,0.212925 1.20915,0.321351 1.83087,0.321351 0.62218,9.6e-5 1.24051,-0.10833 1.83227,-0.321351 0.59111,-0.213117 1.1483,-0.527955 1.65114,-0.93302 0.50322,-0.405257 0.94576,-0.895761 1.31137,-1.4536 0.36585,-0.558031 0.65017,-1.176357 0.84244,-1.832392 0.19237,-0.655653 0.29043,-1.340787 0.29062,-2.030241 -4.8e-4,-0.229199 -0.0117,-0.458206 -0.0337,-0.686102 -0.0216,-0.228078 -0.0539,-0.454757 -0.0968,-0.679081 -0.0428,-0.224639 -0.0963,-0.446625 -0.16007,-0.665058 -0.0638,-0.217877 -0.13792,-0.431904 -0.22189,-0.641199 -0.0843,-0.209707 -0.17856,-0.414375 -0.28218,-0.613144 -0.10364,-0.198644 -0.21658,-0.391119 -0.33838,-0.57666 -0.12159,-0.185618 -0.25188,-0.364051 -0.39031,-0.534564 -0.13826,-0.170656 -0.28447,-0.333171 -0.43806,-0.486864 -0.15408,-0.1533 -0.3153,-0.297549 -0.48299,-0.432153 -0.0528,-0.03977 -0.10615,-0.07859 -0.16006,-0.116453 -1.13457,-0.453887 -2.39369,-0.806226 -3.77685,-1.057911 z"
       id="Copy of  path331534 (2)"
       style="clip-rule:evenodd;fill:#d40000;fill-rule:nonzero;stroke:#000000;stroke-width:1.49334;stroke-linecap:butt;stroke-linejoin:miter;stroke-dasharray:none"
       clip-path="url(#clipPath547)"
       transform="translate(-19.015062)" />
    <path
       d="m 78.502117,14.425272 c -1.692659,0 -3.147134,0.507724 -4.363732,1.523732 -1.216605,0.971831 -1.825247,2.164251 -1.825247,3.577823 0,1.501932 0.581505,2.739282 1.745213,3.711114 1.163699,0.971831 2.645309,1.457833 4.443766,1.457833 1.745558,0 3.200024,-0.464259 4.363771,-1.391887 1.163699,-0.971831 1.745213,-2.186012 1.745213,-3.643769 0,-1.457747 -0.581514,-2.695108 -1.745213,-3.711114 -1.163747,-1.016008 -2.618213,-1.523732 -4.363771,-1.523732 z"
       id="Copy of  path317521 (2)"
       style="clip-rule:evenodd;fill:#ffffff;fill-opacity:0;fill-rule:nonzero;stroke:#000000;stroke-width:1.49334;stroke-linecap:butt;stroke-linejoin:miter;stroke-dasharray:none"
       clip-path="url(#clipPath541)"
       transform="translate(-19.015062)" />
    <path
       d="m 39.941687,29.453555 c -0.06763,0.01152 -0.135032,0.02415 -0.202183,0.03788 -0.7056,0.270624 -1.346799,0.667282 -1.887021,1.167351 -0.540731,0.500724 -0.96964,1.095257 -1.262225,1.749626 -0.292138,0.653938 -0.442421,1.354781 -0.442272,2.06251 -1.49e-4,0.707739 0.150134,1.408573 0.442272,2.06251 0.292585,0.654369 0.721494,1.248903 1.262225,1.749627 0.540088,0.50058 1.181296,0.897714 1.887021,1.16878 0.706031,0.270682 1.462699,0.409854 2.226795,0.409663 0.764106,1.91e-4 1.520774,-0.138981 2.226796,-0.409663 0.705734,-0.271066 1.346933,-0.6682 1.887021,-1.16878 0.300198,-0.325068 0.557552,-0.682089 0.766598,-1.063525 -1.818346,0.39678 -4.11974,0.596306 -6.905027,0.596306 z"
       id="Copy of  path317519 (2)"
       style="clip-rule:evenodd;fill:#d40000;fill-rule:nonzero;stroke:#000000;stroke-width:1.49334;stroke-linecap:butt;stroke-linejoin:miter;stroke-dasharray:none"
       clip-path="url(#clipPath535)"
       transform="translate(-19.015062)" />
    <path
       d="m 20.735956,15.352698 h -0.313099 v 1.788916 c 0.03963,0.0025 0.07449,0.0071 0.113727,0.0098 -0.0072,-0.104164 -0.01145,-0.2085 -0.01263,-0.312885 2.4e-5,-0.141863 0.0056,-0.28367 0.01685,-0.425132 0.01087,-0.140839 0.02726,-0.281243 0.04914,-0.420921 0.02257,-0.140323 0.05067,-0.279792 0.08424,-0.418114 0.01902,-0.07428 0.03962,-0.148193 0.06178,-0.221685 z"
       id="Copy of  path317517 (2)"
       style="clip-rule:evenodd;fill:#ffffff;fill-opacity:0;fill-rule:nonzero;stroke:#000000;stroke-width:1.49334;stroke-linecap:butt;stroke-linejoin:miter;stroke-dasharray:none"
       clip-path="url(#clipPath529)"
       transform="translate(-19.015062)" />
    <path
       d="m 20.735982,15.352699 c -0.02216,0.07349 -0.04276,0.147403 -0.06178,0.221685 -0.03357,0.138323 -0.06167,0.277793 -0.08424,0.418115 -0.02188,0.139678 -0.03828,0.280083 -0.04914,0.420917 -0.0112,0.141462 -0.01682,0.283278 -0.01685,0.425132 0.0012,0.104384 0.0054,0.20872 0.01263,0.312884 2.683916,0.182936 4.447839,0.664282 5.281972,1.447968 0.76584,0.67954 1.180971,1.979936 1.253806,3.889308 0.107475,-0.0085 0.214682,-0.0197 0.321524,-0.03368 0.147483,-0.02144 0.294074,-0.04812 0.439457,-0.07998 0.145537,-0.03134 0.289789,-0.06784 0.432441,-0.109432 0.14267,-0.04174 0.283645,-0.08855 0.422616,-0.140312 0.138846,-0.05171 0.275594,-0.10834 0.409983,-0.169765 0.134073,-0.06172 0.265683,-0.128186 0.394532,-0.199238 0.129281,-0.07078 0.255734,-0.146126 0.379092,-0.225894 0.12305,-0.07944 0.242947,-0.163214 0.359403,-0.251152 0.116457,-0.08856 0.229271,-0.181231 0.338442,-0.277809 0.109651,-0.09628 0.215468,-0.196441 0.317259,-0.30025 0.101025,-0.103637 0.198024,-0.210808 0.290614,-0.321303 0.09297,-0.110936 0.181441,-0.225128 0.265405,-0.342347 0.08425,-0.116865 0.163805,-0.23668 0.238663,-0.359195 0.07467,-0.122813 0.144444,-0.248241 0.209238,-0.376015 0.06451,-0.127401 0.123932,-0.257043 0.178278,-0.388658 0.05444,-0.13196 0.103613,-0.265816 0.147416,-0.401272 0.04419,-0.13514 0.0831,-0.271803 0.116552,-0.409702 0.03307,-0.138339 0.06077,-0.277808 0.08281,-0.418111 0.02243,-0.14012 0.0393,-0.280998 0.05061,-0.422325 0.01064,-0.141012 0.01582,-0.282349 0.01543,-0.423724 1.91e-4,-0.04818 -2.88e-4,-0.09635 -0.0014,-0.144517 -0.0012,-0.04772 -0.0031,-0.09543 -0.0057,-0.143109 -0.0026,-0.04822 -0.0058,-0.09639 -0.0098,-0.144517 -0.0036,-0.04776 -0.0078,-0.09547 -0.01265,-0.143116 -0.0055,-0.04778 -0.0115,-0.09548 -0.01831,-0.143113 -0.0063,-0.04732 -0.01332,-0.09456 -0.02099,-0.141709 -0.0074,-0.04733 -0.01534,-0.09457 -0.02387,-0.14171 -0.0092,-0.04735 -0.01907,-0.09459 -0.02952,-0.141709 -0.01016,-0.0469 -0.02089,-0.09367 -0.0323,-0.140309 -0.01102,-0.04691 -0.02272,-0.09368 -0.03508,-0.140305 -0.0059,-0.02061 -0.01208,-0.04119 -0.01821,-0.06174 z"
       id="Copy of  path317515 (2)"
       style="clip-rule:evenodd;fill:#d40000;fill-rule:nonzero;stroke:#000000;stroke-width:1.49334;stroke-linecap:butt;stroke-linejoin:miter;stroke-dasharray:none"
       clip-path="url(#clipPath523)"
       transform="translate(-19.015062)" />
    <path
       d="m 283.35041,29.985064 h 17.47543 v 1.764127 c -1.85794,0.138119 -3.16713,0.383802 -3.9275,0.737241 -0.76037,0.353342 -1.53396,1.071139 -2.32079,2.153484 l -2.27123,3.03143 c -1.74559,2.302619 -4.36389,5.474849 -7.85509,9.516787 2.36057,2.540065 4.21687,4.244903 5.56901,5.11461 1.35213,0.869612 2.84479,1.304466 4.47795,1.304466 1.85793,0 3.51755,-0.894515 4.97877,-2.683546 l 1.60671,0.844804 -1.43812,1.838742 c -1.63316,2.346775 -3.1539,3.989546 -4.5622,4.928217 -2.24813,1.457718 -4.83672,2.186626 -7.76576,2.186626 -2.24813,0 -4.27303,-0.432077 -6.07479,-1.296229 -1.80177,-0.864152 -3.96881,-2.433745 -6.50123,-4.708683 -6.69791,3.959087 -12.94619,5.93863 -18.74494,5.93863 -4.72754,0 -8.59555,-1.163665 -11.604,-3.491092 -3.00845,-2.327426 -4.51267,-5.299566 -4.51267,-8.916325 0,-3.340712 1.26619,-6.232778 3.79858,-8.676102 2.53238,-2.443419 6.78062,-4.888179 12.74462,-7.334376 -1.68608,-2.451656 -2.82505,-4.384266 -3.41682,-5.797829 -0.59177,-1.413562 -0.88765,-2.898962 -0.88765,-4.456103 0,-3.41798 1.46294,-6.123653 4.38872,-8.117017 2.92578,-1.993365 6.92114,-2.990052 11.98588,-2.990052 4.27792,0 7.69799,0.785475 10.26012,2.35642 2.56213,1.570953 3.84325,3.667849 3.84325,6.290698 0,2.219728 -1.02817,4.1441 -3.08451,5.773078 -2.05634,1.628883 -5.30609,3.128075 -9.74934,4.497482 l 12.74452,15.082726 c 2.47951,-2.58422 4.16884,-4.583112 5.06809,-5.996674 0.89926,-1.413563 1.34888,-2.827125 1.34888,-4.240688 0,-0.988383 -0.30911,-1.659341 -0.92733,-2.012684 -0.61823,-0.353438 -2.16714,-0.646055 -4.64656,-0.878041 z M 251.6129,40.984377 c 0,3.130853 1.3505,6.345994 4.05152,9.645232 2.70092,3.299239 5.87965,4.948906 9.53608,4.948906 2.0828,0 4.64493,-1.010508 7.6864,-3.03143 -2.14222,-2.308174 -5.7722,-6.686884 -10.88985,-13.136419 l -4.13587,-4.986165 c -4.16549,1.882994 -6.24828,4.069619 -6.24828,6.559876 z m 16.54319,-13.384784 c 2.0827,-0.563203 3.58858,-1.27688 4.51764,-2.141033 0.92897,-0.864152 1.39345,-2.022358 1.39345,-3.474617 0,-2.39093 -0.78845,-4.451936 -2.36545,-6.183019 -1.5769,-1.731073 -3.37704,-2.596614 -5.40031,-2.596614 -1.34888,0 -2.4035,0.352011 -3.16387,1.056044 -0.76037,0.704022 -1.1405,1.663431 -1.1405,2.878225 0,2.716726 2.05298,6.203756 6.15904,10.461014 z"
       style="clip-rule:evenodd;fill:#b00000;fill-opacity:0.996078;fill-rule:evenodd;stroke:#000000;stroke-width:0.853547;stroke-linecap:butt;stroke-linejoin:miter;stroke-dasharray:none"
       id="path663"
       clip-path="url(#clipPath517)"
       transform="translate(-19.015062)" />
    <path
       d="M 38.994405,101.32993 V 64.165529 c -5.23008,0.187744 -9.055114,1.16924 -11.475121,2.944497 -2.419979,1.775296 -4.023384,4.766689 -4.810206,8.974236 h -2.449739 l 0.247949,-14.237884 h 50.651065 l 0.168598,14.237884 H 68.797792 C 68.1234,71.876715 66.57621,68.885322 64.156222,67.110026 61.736234,65.334769 57.907942,64.353273 52.671248,64.165529 v 37.164401 c 0,2.67808 0.464483,4.36913 1.393448,5.07313 0.928966,0.70401 3.225021,1.172 6.888071,1.40389 v 1.76422 H 30.891356 v -1.76422 c 3.603528,-0.23189 5.854918,-0.71224 6.75417,-1.44115 0.899253,-0.7289 1.348879,-2.4075 1.348879,-5.03587 z m 56.383573,9.16066 v -5.07735 c -2.367079,1.99343 -4.451501,3.3614 -6.253265,4.1041 -1.801764,0.7427 -3.800209,1.11405 -5.995432,1.11405 -3.484484,0 -6.240038,-0.91108 -8.266567,-2.73325 -2.026625,-1.82227 -3.039937,-4.33466 -3.039937,-7.53725 V 82.917502 c 0,-1.474288 -0.239622,-2.454434 -0.719057,-2.94034 -0.47934,-0.485906 -1.59176,-0.86693 -3.337356,-1.142976 v -1.764224 h 15.868711 v 23.547628 c 0,1.8056 0.367004,3.0798 1.100918,3.8225 0.733913,0.7427 1.973716,1.11395 3.719217,1.11395 2.076178,0 4.324214,-1.01597 6.744202,-3.048 V 82.917502 c 0,-1.474288 -0.337196,-2.499931 -1.011587,-3.077022 -0.674392,-0.576996 -2.052984,-0.912427 -4.135776,-1.006294 v -1.764224 h 16.890271 v 25.079958 c 0,1.43569 0.35042,2.45578 1.05126,3.06045 0.70095,0.60459 1.98033,0.95391 3.83827,1.04777 v 1.48262 l -5.31597,0.64596 c -4.27801,0.43074 -7.990614,1.13206 -11.137902,2.10387 z m 46.426142,0 v -4.38982 c -1.97065,1.73386 -3.75727,2.92243 -5.36082,3.56571 -1.60355,0.64327 -3.50231,0.96491 -5.69821,0.96491 -4.44258,0 -8.11455,-1.57093 -11.01397,-4.71289 -2.89942,-3.14187 -4.34866,-7.103735 -4.34866,-11.885595 0,-5.135299 1.53358,-9.387098 4.6017,-12.755396 3.06812,-3.368298 6.93657,-5.052351 11.6044,-5.052351 1.97065,0 3.67292,0.302291 5.10778,0.906872 1.43485,0.604677 3.05086,1.666237 4.84994,3.184682 v -12.73872 c 0,-1.579228 -0.3508,-2.589718 -1.05146,-3.031458 -0.70065,-0.441741 -2.42976,-0.756483 -5.18733,-0.944227 v -1.755929 h 18.06077 v 40.858512 c 0,1.51289 0.35177,2.56487 1.05626,3.15566 0.70448,0.59079 2.04157,0.93599 4.01222,1.03531 v 1.47439 l -5.31673,0.5632 c -4.61511,0.45277 -8.38676,0.97181 -11.31589,1.55714 z m -0.25784,-8.55599 V 84.482976 c -0.56263,-1.385977 -1.43293,-2.486234 -2.61379,-3.300675 -1.1799,-0.814441 -2.47386,-1.221709 -3.88283,-1.221709 -4.77998,0 -7.17044,4.500259 -7.17044,13.500777 0,8.956361 2.16522,13.434491 6.49662,13.434491 1.96969,0 3.74194,-0.81444 5.31577,-2.44341 1.23645,-0.96071 1.85467,-1.80005 1.85467,-2.51785 z m 39.68137,-25.709442 c 5.46145,0 10.00756,1.651008 13.63735,4.953025 3.62979,3.302016 5.44516,7.408799 5.44516,12.320445 0,4.911646 -1.81537,8.994962 -5.44516,12.250142 -3.62979,3.25508 -8.1759,4.88262 -13.63735,4.88262 -5.46146,0 -9.99223,-1.62754 -13.59231,-4.88262 -3.60008,-3.25518 -5.40011,-7.38677 -5.40011,-12.395061 0,-4.809446 1.84317,-8.866614 5.52855,-12.171408 3.68634,-3.304794 8.17493,-4.957143 13.46387,-4.957143 z m 0.16869,2.327426 c -2.64447,0 -4.4445,1.122287 -5.40012,3.366862 -0.95561,2.244574 -1.43293,6.453557 -1.43293,12.62695 0,5.146314 0.49074,8.725814 1.47223,10.738494 0.98245,2.01269 2.71156,3.01908 5.18733,3.01908 2.47578,0 4.22214,-1.05333 5.23718,-3.15988 1.01408,-2.10655 1.52207,-5.848974 1.52207,-11.227178 0,-5.753673 -0.47924,-9.752892 -1.43869,-11.997466 -0.95848,-2.244575 -2.67417,-3.366862 -5.14707,-3.366862 z m 45.66232,2.749829 c -1.34859,0 -2.88121,0.542514 -4.5969,1.627541 -1.7157,1.085028 -2.57354,1.856654 -2.57354,2.314975 v 18.553221 c 0,1.33627 0.28084,2.2805 0.84251,2.83268 0.56263,0.55219 1.60355,0.94423 3.12467,1.17612 v 1.76422 h -20.26242 v -1.76422 c 1.85755,-0.32576 3.0825,-0.74538 3.67484,-1.25897 0.59139,-0.51349 0.88756,-1.49364 0.88756,-2.94034 V 82.958976 c 0,-1.446799 -0.29617,-2.448974 -0.88756,-3.006622 -0.59234,-0.557743 -1.81729,-0.930434 -3.67484,-1.118168 v -1.764224 h 16.12655 v 5.549369 c 3.15342,-4.262814 7.28929,-6.394173 12.40761,-6.394173 2.70389,0 4.87103,0.483129 6.50046,1.449385 1.63038,0.966353 3.06716,2.614584 4.30936,4.944788 2.24861,-2.330204 4.28635,-3.978435 6.11514,-4.944788 1.82784,-0.966256 3.89625,-1.449385 6.20333,-1.449385 3.49081,0 6.29151,0.928998 8.40018,2.787088 2.10963,1.858091 3.16397,4.305628 3.16397,7.342614 v 17.44329 c 0,1.47429 0.28275,2.48758 0.84826,3.03977 0.5655,0.55218 1.66489,0.87516 3.29815,0.96903 v 1.76422 h -20.09468 v -1.76422 c 1.57384,-0.0939 2.65693,-0.42796 3.24831,-1.00218 0.59235,-0.57431 0.88756,-1.57648 0.88756,-3.00662 V 86.976011 c 0,-1.982321 -0.35176,-3.423469 -1.05625,-4.32354 -0.70353,-0.900071 -1.81633,-1.350058 -3.33745,-1.350058 -1.46074,0 -3.04895,0.553529 -4.7656,1.660682 -1.71569,1.107058 -2.57354,1.867765 -2.57354,2.281834 v 18.553221 c 0,1.33627 0.30959,2.29295 0.92782,2.86994 0.61822,0.57709 1.68789,0.95668 3.20805,1.13886 v 1.76422 h -19.83588 v -1.76422 c 1.57383,-0.0939 2.65692,-0.42796 3.24831,-1.00218 0.59139,-0.57431 0.88756,-1.57648 0.88756,-3.00662 V 86.976011 c 0,-2.032032 -0.3671,-3.485632 -1.1013,-4.360799 -0.73325,-0.875168 -1.91698,-1.312799 -3.55024,-1.312799 z m 57.74213,-0.157371 c 0,0.23189 0.43707,0.814441 1.3093,1.747653 0.87318,0.933116 1.30929,1.891231 1.30929,2.874058 0,1.170658 -0.5358,2.128677 -1.60643,2.874059 -1.07158,0.745478 -2.4796,1.118168 -4.22501,1.118168 -1.7454,0 -3.08153,-0.411291 -4.00743,-1.234065 -0.92494,-0.822774 -1.38789,-1.962973 -1.38789,-3.420787 0,-2.628376 1.46265,-4.76529 4.38795,-6.410743 2.92627,-1.645548 6.77938,-2.468227 11.55936,-2.468227 5.12503,0 9.19285,0.879286 12.20441,2.637954 3.01157,1.758764 4.51735,4.16205 4.51735,7.210146 v 18.213582 c 0,0.8448 0.61823,1.2672 1.85467,1.2672 0.33739,0 0.61823,-0.0469 0.84347,-0.1408 l 0.84251,-0.35612 1.27,1.11817 c -2.98186,2.9707 -6.13624,4.4561 -9.46219,4.4561 -2.08279,0 -3.6432,-0.38236 -4.68125,-1.14719 -1.03804,-0.76473 -1.7847,-2.07475 -2.24094,-3.93016 -4.38412,3.38487 -8.82671,5.07735 -13.32968,5.07735 -2.70485,0 -4.94292,-0.71789 -6.7142,-2.15348 -1.77224,-1.43569 -2.65884,-3.23305 -2.65884,-5.39209 0,-3.163997 1.81537,-5.663928 5.44516,-7.499893 3.62979,-1.83606 9.38263,-3.706507 17.25756,-5.611531 v -5.176677 c 0,-2.175611 -0.57701,-3.760337 -1.73103,-4.754275 -1.15401,-0.993938 -2.96651,-1.49086 -5.43941,-1.49086 -1.46169,0 -2.71252,0.245683 -3.75439,0.737145 -1.04092,0.491461 -1.56234,1.109835 -1.56234,1.855313 z m 12.40762,21.377568 V 92.301822 c -6.86277,1.501875 -10.29511,4.320762 -10.29511,8.456568 0,1.45781 0.40735,2.62148 1.22015,3.49119 0.81376,0.8697 1.86809,1.30446 3.16397,1.30446 1.91697,0 3.88762,-1.01041 5.91099,-3.03143 z m -11.73284,-30.1075 11.56414,-11.206501 c 1.34859,-1.27001 2.81316,-1.905015 4.39371,-1.905015 1.23645,0 2.23519,0.294035 2.99527,0.882106 0.76008,0.588074 1.1406,1.329366 1.1406,2.2239 0,0.795141 -0.2262,1.416341 -0.67957,1.863598 -0.4524,0.447268 -1.35338,1.04638 -2.70197,1.797345 l -11.99163,6.344567 z m 49.6295,8.887303 c -1.23645,0 -2.45948,0.322979 -3.67005,0.969034 -1.20961,0.646055 -2.12497,1.268644 -2.74702,1.867765 -0.6211,0.599121 -0.93261,0.967694 -0.93261,1.105717 v 18.553221 c 0,1.29211 0.32397,2.22532 0.9719,2.79954 0.6489,0.57432 1.73295,0.97737 3.25311,1.20926 v 1.76422 h -20.34101 v -1.76422 c 1.91026,-0.36991 3.14671,-0.81166 3.70934,-1.32515 0.56168,-0.51359 0.84251,-1.47161 0.84251,-2.87416 V 82.958976 c 0,-1.446799 -0.30863,-2.437959 -0.92686,-2.973481 -0.61822,-0.535617 -1.82687,-0.919419 -3.62499,-1.151309 v -1.764224 h 16.116 v 5.549369 c 3.10166,-4.262814 7.09855,-6.394173 11.99163,-6.394173 3.49081,0 6.29055,0.928998 8.40018,2.787088 2.10867,1.858091 3.16396,4.305628 3.16396,7.342614 v 17.44329 c 0,1.47429 0.26742,2.48758 0.80322,3.03977 0.53579,0.55218 1.61984,0.87516 3.2531,0.96903 v 1.76422 h -19.75633 v -1.76422 c 1.40801,-0.18218 2.42114,-0.57288 3.03936,-1.172 0.61822,-0.59912 0.92781,-1.54469 0.92781,-2.8368 V 86.976011 c 0,-3.782367 -1.4914,-5.673598 -4.47325,-5.673598 z m 30.64666,36.253307 c 0,0.44175 -0.0431,0.76196 -0.1294,0.9608 -0.0853,0.19875 -0.12843,0.34511 -0.12843,0.43897 0,0.3975 0.15527,0.71924 0.46582,0.96492 0.31055,0.24568 0.63452,0.36857 0.97191,0.36857 0.95177,0 1.93614,-0.55496 2.95022,-1.6648 1.01504,-1.10993 1.89014,-2.57589 2.62338,-4.39815 l 1.51824,-3.61121 -10.13696,-20.955166 c -0.67381,-1.446704 -1.72815,-3.459388 -3.163,-6.038148 -1.43486,-2.578665 -2.20836,-3.867997 -2.32146,-3.867997 -0.44953,-0.491366 -1.43485,-0.797871 -2.95501,-0.919323 v -1.764224 h 21.19406 v 1.764224 h -1.43773 c -2.14222,0.21532 -3.21381,0.756492 -3.21381,1.623423 0,0.452765 0.59235,1.949179 1.77608,4.489148 l 6.07968,12.730492 5.82185,-13.417925 c 0.56838,-1.479845 0.8521,-2.556635 0.8521,-3.230275 0,-0.800649 -0.31055,-1.344503 -0.93165,-1.63166 -0.62206,-0.287157 -1.83167,-0.474891 -3.62979,-0.563203 v -1.764224 h 12.66449 v 1.764224 c -1.24316,0.09387 -2.18631,0.394817 -2.83137,0.902753 -0.64411,0.508032 -1.33422,1.477066 -2.06746,2.907295 l -12.66545,28.045106 c -1.01216,2.24735 -1.74253,3.8294 -2.19206,4.74594 -0.44953,0.91665 -1.12526,2.0873 -2.02816,3.51188 -0.90289,1.42467 -1.71952,2.40472 -2.44989,2.94034 -0.73037,0.53562 -1.67256,1.02574 -2.82658,1.47017 -1.15402,0.44453 -2.46139,0.66684 -3.92213,0.66684 -2.36746,0 -4.32469,-0.52872 -5.87169,-1.58616 -1.547,-1.05744 -2.32049,-2.38681 -2.32049,-3.98811 0,-1.35839 0.50703,-2.44898 1.52207,-3.27165 1.01504,-0.82278 2.33584,-1.23417 3.96239,-1.23417 1.40802,0 2.56395,0.33132 3.46589,0.99394 0.90289,0.66263 1.35434,1.53502 1.35434,2.61736 z"
       style="clip-rule:evenodd;fill:#000000;fill-rule:evenodd;stroke:#ff0000;stroke-width:0.853547;stroke-linecap:butt;stroke-linejoin:miter;stroke-dasharray:none"
       id="path665"
       clip-path="url(#clipPath511)"
       transform="translate(-19.015062)" />
    <path
       d="M 116.90607,42.919563 Z"
       id="Copy of  path12662 (2)"
       style="clip-rule:evenodd;fill:#ffe680;fill-rule:evenodd;stroke:#000000;stroke-width:0.165972;stroke-linecap:butt;stroke-linejoin:miter;stroke-dasharray:none"
       clip-path="url(#clipPath505)"
       transform="translate(-19.015062)" />
    <path
       d="M 116.90607,42.919563 Z"
       id="Copy of  path12664 (2)"
       style="clip-rule:evenodd;fill:#ffe680;fill-rule:evenodd;stroke:#000000;stroke-width:0.165972;stroke-linecap:butt;stroke-linejoin:miter;stroke-dasharray:none"
       clip-path="url(#clipPath499)"
       transform="translate(-19.015062)" />
    <path
       d="m 364.96113,123.42585 c 0,0.003 -0.002,0.006 -0.006,0.006 -0.003,0 -0.006,-0.002 -0.006,-0.006 0,-0.003 0.002,-0.006 0.006,-0.006 0.003,0 0.006,0.002 0.006,0.006 z"
       id="Copy of  path55351 (2)"
       style="clip-rule:evenodd;fill:#c8b7b7;fill-rule:evenodd;stroke:#c8b7b7;stroke-width:0.188979;stroke-linecap:butt;stroke-linejoin:miter;stroke-dasharray:none"
       clip-path="url(#clipPath481)"
       transform="translate(-19.015062)" />
    <path
       d="m 364.96113,123.42585 c 0,0.003 -0.002,0.006 -0.006,0.006 -0.003,0 -0.006,-0.002 -0.006,-0.006 0,-0.003 0.002,-0.006 0.006,-0.006 0.003,0 0.006,0.002 0.006,0.006 z"
       id="Copy of  path55353 (2)"
       style="clip-rule:evenodd;fill:#c8b7b7;fill-rule:evenodd;stroke:#c8b7b7;stroke-width:0.188979;stroke-linecap:butt;stroke-linejoin:miter;stroke-dasharray:none"
       clip-path="url(#clipPath475)"
       transform="translate(-19.015062)" />
    <path
       d="m 365.64645,95.039181 c 0,0.0031 -0.002,0.0055 -0.006,0.0055 -0.003,0 -0.006,-0.0025 -0.006,-0.0055 0,-0.0031 0.002,-0.0055 0.006,-0.0055 0.003,0 0.006,0.0025 0.006,0.0055 z"
       id="Copy of  path55355 (2)"
       style="clip-rule:evenodd;fill:#c8b7b7;fill-rule:evenodd;stroke:#c8b7b7;stroke-width:0.188979;stroke-linecap:butt;stroke-linejoin:miter;stroke-dasharray:none"
       clip-path="url(#clipPath469)"
       transform="translate(-19.015062)" />
    <path
       d="m 365.64645,95.039181 c 0,0.0031 -0.002,0.0055 -0.006,0.0055 -0.003,0 -0.006,-0.0025 -0.006,-0.0055 0,-0.0031 0.002,-0.0055 0.006,-0.0055 0.003,0 0.006,0.0025 0.006,0.0055 z"
       id="Copy of  path55357 (2)"
       style="clip-rule:evenodd;fill:#c8b7b7;fill-rule:evenodd;stroke:#c8b7b7;stroke-width:0.188979;stroke-linecap:butt;stroke-linejoin:miter;stroke-dasharray:none"
       clip-path="url(#clipPath463)"
       transform="translate(-19.015062)" />
    <path
       d="m 64.715451,30.382485 c 0,2.160506 -1.873938,3.911799 -4.185741,3.911799 -2.311717,0 -4.185732,-1.751293 -4.185732,-3.911799 0,-2.160429 1.874015,-3.911798 4.185732,-3.911798 2.311803,0 4.185741,1.751369 4.185741,3.911798 z"
       id="Copy of  path316060 (2)"
       style="clip-rule:evenodd;fill:#d40000;fill-rule:evenodd;stroke:#000000;stroke-width:1.26296;stroke-linecap:butt;stroke-linejoin:miter;stroke-dasharray:none"
       clip-path="url(#clipPath457)"
       transform="translate(-19.015062)" />
    <path
       d="m 39.24687,52.722156 c 0,2.738162 -2.091831,4.957727 -4.672433,4.957727 -2.580515,0 -4.672432,-2.219565 -4.672432,-4.957727 0,-2.738066 2.091917,-4.957708 4.672432,-4.957708 2.580602,0 4.672433,2.219642 4.672433,4.957708 z"
       id="Copy of  path316238 (2)"
       style="clip-rule:evenodd;fill:#d40000;fill-rule:evenodd;stroke:#000000;stroke-width:1.26296;stroke-linecap:butt;stroke-linejoin:miter;stroke-dasharray:none"
       clip-path="url(#clipPath451)"
       transform="translate(-19.015062)" />
    <path
       d="m 105.729,36.901424 c 0,2.08886 -1.64668,3.78208 -3.67811,3.78208 -2.03137,0 -3.67812,-1.69322 -3.67812,-3.78208 0,-2.088774 1.64675,-3.78207 3.67812,-3.78207 2.03143,0 3.67811,1.693296 3.67811,3.78207 z"
       id="Copy of  path316244 (2)"
       style="clip-rule:evenodd;fill:#d40000;fill-rule:evenodd;stroke:#000000;stroke-width:1.26296;stroke-linecap:butt;stroke-linejoin:miter;stroke-dasharray:none"
       clip-path="url(#clipPath445)"
       transform="translate(-19.015062)" />
    <path
       d="m 127.7165,47.318771 c 0,2.56878 -2.02381,4.651021 -4.52053,4.651021 -2.49662,0 -4.52053,-2.082241 -4.52053,-4.651021 0,-2.568693 2.02391,-4.651021 4.52053,-4.651021 2.49672,0 4.52053,2.082328 4.52053,4.651021 z"
       id="Copy of  path316246 (2)"
       style="clip-rule:evenodd;fill:#d40000;fill-rule:evenodd;stroke:#000000;stroke-width:1.26296;stroke-linecap:butt;stroke-linejoin:miter;stroke-dasharray:none"
       clip-path="url(#clipPath439)"
       transform="translate(-19.015062)" />
    <path
       d="m 22.604798,59.129988 c 2.04398,-0.372978 2.748075,-0.637818 3.537024,-1.33004 0.927739,-0.813962 1.41952,-1.842765 1.653323,-3.458621 0.1136,-0.785132 0.196538,-7.557072 0.198829,-16.234802 l 0.0039,-14.887798 0.743997,-0.222781 c 1.746727,-0.523051 3.402274,-2.041419 4.140692,-3.797645 0.15863,-0.377489 0.342563,-1.202754 0.408603,-1.833924 l 0.120003,-1.147574 h 7.589012 c 7.83937,0 10.424026,0.15094 13.483804,0.787441 5.909839,1.229362 10.004399,4.10524 11.115669,7.807351 0.334033,1.112699 0.403715,3.839156 0.122399,4.787885 l -0.176361,0.594811 -0.244319,-0.930147 c -0.295693,-1.125926 -1.341977,-2.398401 -2.45641,-2.987848 -1.160632,-0.613786 -3.458988,-0.613786 -4.619716,0 -2.680792,1.417777 -3.412405,4.773336 -1.521981,6.980363 0.96625,1.128034 2.061322,1.647177 3.531257,1.674092 0.656372,0.01197 1.461214,-0.04914 1.788633,-0.135725 l 0.595125,-0.157466 -0.595125,0.498262 c -2.189855,1.833474 -7.115041,3.519347 -11.045604,3.78093 -0.90855,0.06053 -2.309858,0.157084 -3.114029,0.214649 l -1.462076,0.104595 0.470138,-0.593662 c 0.307866,-0.388782 0.88823,-0.736761 1.682049,-1.008497 3.315311,-1.135122 4.730421,-3.131523 5.259218,-7.419815 0.380136,-3.082577 -0.0554,-6.856678 -1.030373,-8.929447 -0.932992,-1.98347 -2.905845,-3.497681 -5.341648,-4.099887 -0.600109,-0.14838 -2.12027,-0.270722 -3.377996,-0.271874 -2.0526,-0.0019 -2.385578,0.0487 -3.25023,0.493563 -1.641888,0.844862 -1.704477,1.088591 -1.704477,6.643151 v 4.765874 l -0.71321,0.383802 c -1.022131,0.55008 -2.372351,2.132795 -2.740506,3.212363 -0.404482,1.186366 -0.403332,2.907679 0.0028,4.098738 0.368922,1.081962 1.969595,2.932869 2.852362,3.298281 l 0.598575,0.247694 v 4.734831 4.734831 l -0.700175,-0.7745 c -1.470415,-1.626487 -3.897495,-2.113734 -6.008276,-1.206288 -2.501861,1.075545 -3.769978,4.12163 -2.925053,7.026051 0.470052,1.615856 1.971263,3.118401 3.583438,3.586779 2.079438,0.604102 3.892416,0.07605 5.418327,-1.578213 0.461032,-0.499891 0.869923,-0.908883 0.908646,-0.908883 0.03863,0 0.125562,0.276046 0.193039,0.613393 0.285342,1.425535 1.727002,2.225896 5.128001,2.846856 1.271433,0.232082 -0.0577,0.263786 -11.053847,0.263786 -11.021717,0 -12.327527,-0.03132 -11.047478,-0.264935 z"
       id="Copy of  path5775 (2)"
       style="clip-rule:evenodd;fill:#ffffff;fill-rule:nonzero;stroke:none;stroke-width:0.958157"
       clip-path="url(#clipPath433)"
       transform="translate(-19.015062)" />
    <path
       d="m 22.604801,59.129987 c 2.043977,-0.372978 2.748072,-0.637817 3.537021,-1.33004 0.927739,-0.813962 1.41952,-1.842765 1.653323,-3.458621 0.113591,-0.785036 0.196538,-7.551803 0.198829,-16.219668 l 0.004,-14.872626 0.955679,-0.339196 c 2.529974,-0.897944 4.401056,-3.471657 4.401056,-6.053731 v -0.676562 l 8.977477,0.09449 c 7.964356,0.08383 9.223904,0.140515 11.159952,0.502285 6.53391,1.220923 10.939787,4.144894 12.107607,8.035275 0.333841,1.111933 0.403715,3.838103 0.122878,4.787886 l -0.175882,0.594811 -0.153166,-0.594811 c -0.387708,-1.506568 -1.307376,-2.672819 -2.675904,-3.393489 -1.021364,-0.537792 -3.404163,-0.506299 -4.463962,0.059 -1.663262,0.887236 -2.562898,2.336717 -2.56194,4.127568 0.0018,3.221942 3.32758,5.433758 6.538799,4.348539 0.77762,-0.262828 -0.8012,0.892409 -2.293276,1.677923 -2.652996,1.396801 -5.862874,2.2917 -8.959649,2.497728 -0.90855,0.06054 -2.309858,0.157084 -3.114029,0.21465 l -1.462076,0.104594 0.470138,-0.593661 c 0.308825,-0.389932 0.888901,-0.736953 1.690771,-1.011467 2.411266,-0.82536 3.733595,-2.108371 4.623933,-4.48637 0.854971,-2.283558 0.993184,-6.757764 0.300869,-9.742481 -1.028169,-4.432789 -3.938519,-6.455278 -9.324928,-6.48024 -2.16781,-0.01004 -2.473951,0.03424 -3.349337,0.484601 -1.642847,0.84512 -1.704765,1.086819 -1.704765,6.656416 v 4.77914 l -0.485282,0.220971 c -0.862447,0.392614 -2.111547,1.67505 -2.634593,2.704907 -0.677842,1.334446 -0.825928,3.245887 -0.360104,4.647477 0.388092,1.167592 1.951001,3.008154 2.8815,3.393297 l 0.598479,0.247694 v 4.734832 4.734831 L 38.412124,48.75604 c -1.959819,-2.167853 -5.905718,-2.161531 -7.736198,0.01216 -1.093423,1.298623 -1.383681,2.12293 -1.38325,3.928627 3.45e-4,1.445746 0.07643,1.830026 0.535286,2.703853 0.294179,0.560329 0.913985,1.342971 1.377336,1.73932 2.147069,1.836539 5.00959,1.675049 7.08989,-0.400085 0.58947,-0.588011 1.088746,-1.069128 1.109449,-1.069128 0.02061,0 0.143869,0.354493 0.273744,0.787814 0.399977,1.333871 1.507221,1.953969 4.588181,2.569278 l 1.884769,0.376426 -12.499054,-0.0052 C 22.621248,59.394827 21.32369,59.363314 22.604824,59.129508 Z"
       id="Copy of  path5814 (2)"
       style="clip-rule:evenodd;fill:#ffffff;fill-rule:nonzero;stroke:none;stroke-width:0.958157"
       clip-path="url(#clipPath427)"
       transform="translate(-19.015062)" />
    <path
       d="m 77.498159,23.727094 c -1.838646,-0.244945 -3.008834,-0.947177 -3.788956,-2.273769 -0.553453,-0.941152 -0.64605,-2.553857 -0.195934,-3.412444 0.433878,-0.827621 1.504019,-1.758019 2.5961,-2.257115 1.227525,-0.56099 3.547562,-0.60383 4.716379,-0.08709 1.887233,0.834362 3.06898,2.648229 2.870669,4.406284 -0.277099,2.456704 -3.001972,4.049936 -6.198258,3.624134 z"
       id="Copy of  path5853 (2)"
       style="clip-rule:evenodd;fill:#ffffff;fill-rule:nonzero;stroke:none;stroke-width:0.958157"
       clip-path="url(#clipPath421)"
       transform="translate(-19.015062)" />
    <path
       d="m 73.827844,38.960621 c 0,-4.404266 -0.05355,-5.422466 -0.320153,-6.088358 -0.383884,-0.958757 -1.119944,-1.519628 -2.625986,-2.000979 l -1.121018,-0.358294 6.695933,-0.01067 6.695952,-0.01067 -0.0014,4.609586 -0.0014,4.609585 -1.933364,0.0057 c -1.742434,0.0052 -2.062952,0.06668 -3.247306,0.622177 -1.525125,0.715401 -2.784184,1.780698 -3.580007,3.029131 l -0.561865,0.881393 z"
       id="Copy of  path5892 (2)"
       style="clip-rule:evenodd;fill:#ffffff;fill-rule:nonzero;stroke:none;stroke-width:0.958157"
       clip-path="url(#clipPath415)"
       transform="translate(-19.015062)" />
    <path
       d="m 70.94508,59.009637 c 2.551444,-0.8615 2.879055,-1.493044 2.891084,-5.573238 0.0082,-2.765939 0.01494,-2.809386 0.347193,-2.217499 0.664471,1.183754 1.347192,1.918782 2.491644,2.682515 1.498048,0.999705 2.821805,1.38455 4.787087,1.391696 1.659429,0.0057 1.88036,0.115092 1.885823,0.930865 0.0043,0.689349 0.706405,1.919573 1.326642,2.325712 0.304128,0.199103 0.911905,0.474421 1.350604,0.611812 0.668641,0.209362 -0.583527,0.249658 -7.733351,0.248921 l -8.531119,-7.19e-4 1.184393,-0.399912 z"
       id="Copy of  path5931 (2)"
       style="clip-rule:evenodd;fill:#ffffff;fill-rule:nonzero;stroke:none;stroke-width:0.958157"
       clip-path="url(#clipPath409)"
       transform="translate(-19.015062)" />
    <path
       d="m 92.477303,59.154843 c 1.897082,-0.526134 2.798107,-1.294504 3.180026,-2.711898 0.133402,-0.495005 0.185784,-4.673147 0.149457,-11.919307 -0.05232,-10.442902 -0.07971,-11.205036 -0.427572,-11.904576 -0.453354,-0.91168 -1.243119,-1.49875 -2.470929,-1.836764 -0.808403,-0.222549 -0.09584,-0.257459 5.570561,-0.272919 l 6.497514,-0.01773 v 1.473005 1.473006 l -0.90155,-0.503569 c -0.77915,-0.435151 -1.08798,-0.493051 -2.27306,-0.426137 -1.7799,0.100504 -2.826724,0.776051 -3.636415,2.346678 -0.482455,0.935865 -0.548983,1.257954 -0.472496,2.287744 0.102213,1.376389 0.44054,2.133188 1.351553,3.02324 1.397848,1.365767 3.755338,1.605894 5.358318,0.54577 l 0.77206,-0.510522 v 7.746338 c 0,5.170739 0.0757,8.046713 0.22764,8.649858 0.29157,1.157152 1.27162,2.146013 2.50117,2.523876 0.85737,0.263403 0.17004,0.288977 -7.68874,0.285433 -7.249292,-0.0035 -8.487459,-0.04358 -7.737532,-0.251526 z"
       id="Copy of  path5970 (2)"
       style="clip-rule:evenodd;fill:#ffffff;fill-rule:nonzero;stroke:none;stroke-width:0.958157"
       clip-path="url(#clipPath403)"
       transform="translate(-19.015062)" />
    <path
       d="m 118.02472,41.137428 c -0.0857,-4.131065 -0.13994,-4.714296 -0.5333,-5.734047 -1.26949,-3.291509 -5.38013,-3.885659 -9.31221,-1.345988 -0.67781,0.437794 -1.29297,0.795974 -1.36702,0.795974 -0.35125,0 1.99612,-2.138399 3.27418,-2.982695 4.50797,-2.978004 11.25443,-2.881574 14.60942,0.208816 1.20041,1.105755 3.01617,3.92448 2.71923,4.221234 -0.14282,0.142707 -0.21815,1.474528 -0.21815,3.854261 v 3.636203 l -0.54356,-0.503626 c -0.85785,-0.794902 -1.83186,-1.172094 -3.24937,-1.25849 -2.12516,-0.129594 -3.86443,0.860704 -4.79723,2.731246 l -0.48662,0.975931 z"
       id="Copy of  path6009 (2)"
       style="clip-rule:evenodd;fill:#ffffff;fill-rule:nonzero;stroke:none;stroke-width:0.958157"
       clip-path="url(#clipPath397)"
       transform="translate(-19.015062)" />
    <path
       d="m 115.5778,59.124193 c 1.0402,-0.380698 1.47944,-0.799039 1.96062,-1.867257 0.34417,-0.76405 0.41509,-1.429807 0.49384,-4.635993 0.0819,-3.334357 0.12061,-3.675703 0.35397,-3.121103 0.45069,1.071131 1.23139,1.922084 2.31261,2.520717 0.89428,0.49513 1.25396,0.576613 2.53043,0.57326 1.5997,-0.0041 2.41045,-0.299206 3.42242,-1.245329 l 0.54557,-0.510111 0.001,2.564929 c 5.7e-4,1.410709 0.0934,2.896731 0.20597,3.302256 0.29905,1.07588 1.05913,1.86423 2.23194,2.314802 l 1.03296,0.396828 -7.93596,-0.0035 c -7.14067,-0.0035 -7.85771,-0.03228 -7.15548,-0.289359 z"
       id="Copy of  path6048 (2)"
       style="clip-rule:evenodd;fill:#ffffff;fill-rule:nonzero;stroke:none;stroke-width:0.958157"
       clip-path="url(#clipPath391)"
       transform="translate(-19.015062)" />
    <path
       d="m 137.14835,59.244592 c 0.98192,-0.296448 1.71523,-0.858406 2.18201,-1.672368 l 0.46515,-0.810897 V 46.650016 c 0,-10.820334 -0.007,-10.908857 -1.01609,-12.40598 -0.26253,-0.389673 -0.85557,-0.924984 -1.31783,-1.189575 -0.714,-0.408676 -1.09421,-0.479632 -2.52685,-0.471548 -1.91377,0.01078 -3.28124,0.44767 -4.9827,1.591872 -1.2081,0.812439 -1.40043,0.853971 -0.75583,0.163195 0.86039,-0.922006 3.62595,-2.903656 4.86311,-3.484646 4.14297,-1.945585 9.69235,-1.308286 12.69548,1.457968 0.79468,0.732077 1.82141,2.109453 1.644,2.205581 -0.0397,0.02153 -0.50254,0.255586 -1.02846,0.520139 -1.11127,0.558978 -2.28369,1.813398 -2.93834,3.143945 -0.38176,0.775899 -0.46093,1.256221 -0.46515,2.821599 -0.004,1.742385 0.0455,1.989121 0.65647,3.230275 0.75644,1.536835 2.03534,2.691784 3.59289,3.244546 l 0.9535,0.338497 0.0864,4.381967 c 0.0786,3.9883 0.12499,4.46185 0.51653,5.270161 0.42375,0.874689 1.14741,1.460975 2.19302,1.77658 0.29004,0.08755 -3.04387,0.159191 -7.40862,0.159191 -4.36476,0 -7.69872,-0.07165 -7.40875,-0.159191 z"
       id="Copy of  path6087 (2)"
       style="clip-rule:evenodd;fill:#ffffff;fill-rule:nonzero;stroke:none;stroke-width:0.958157"
       clip-path="url(#clipPath385)"
       transform="translate(-19.015062)" />
    <path
       d="m 158.27191,72.555336 c 1.43108,-0.494335 2.04022,-0.942694 2.42157,-1.782422 0.29925,-0.658986 0.33583,-2.401754 0.38542,-18.366448 0.0384,-12.351412 -0.0111,-17.956076 -0.16532,-18.698124 -0.3085,-1.484892 -1.09104,-2.318156 -2.63693,-2.807828 l -1.22051,-0.386601 6.56501,-0.01113 6.56502,-0.01113 0.13093,4.790385 c 0.072,2.634717 0.13092,6.469266 0.13092,8.521221 v 3.730836 l -0.80187,0.408801 c -1.14568,0.584084 -2.22589,1.739224 -2.88955,3.089857 -0.51727,1.052845 -0.57415,1.365384 -0.57415,3.155373 0,1.846022 0.0463,2.08069 0.65313,3.312553 0.67267,1.365383 1.71943,2.445909 2.92185,3.0162 l 0.65647,0.311294 0.0684,4.211857 c 0.0613,3.772789 0.11166,4.304766 0.48384,5.103978 0.51481,1.105429 1.32214,1.928012 2.35855,2.403191 0.78443,0.359568 0.69596,0.363687 -7.63831,0.361675 -8.32267,-0.0022 -8.41873,-0.0065 -7.41454,-0.353534 z"
       id="Copy of  path6126 (2)"
       style="clip-rule:evenodd;fill:#ffffff;fill-rule:nonzero;stroke:none;stroke-width:0.958157"
       clip-path="url(#clipPath379)"
       transform="translate(-19.015062)" />
    <path
       d="m 158.27121,72.555336 c 1.41687,-0.489354 1.93933,-0.874784 2.37533,-1.752155 0.36033,-0.725075 0.37939,-1.531567 0.43455,-18.382826 0.0418,-12.765989 -0.006,-17.930818 -0.17166,-18.735719 -0.29334,-1.421216 -1.24506,-2.393611 -2.78646,-2.846998 -1.02776,-0.302306 -0.82295,-0.3146 5.49747,-0.329997 l 6.56505,-0.01599 0.13093,4.790385 c 0.072,2.634717 0.13093,6.469266 0.13093,8.521221 v 3.730836 l -0.75423,0.384472 c -1.09651,0.558989 -2.32721,1.873033 -2.95956,3.159875 -0.49201,1.001217 -0.55181,1.338181 -0.55181,3.109684 0,1.846022 0.0463,2.08069 0.65312,3.312553 0.67261,1.365288 1.71937,2.445909 2.9216,3.016008 l 0.65618,0.311199 0.086,4.112817 c 0.0511,2.445335 0.18422,4.419993 0.32819,4.870364 0.31563,0.987712 1.49734,2.283654 2.49724,2.738718 0.78251,0.35612 0.67592,0.361101 -7.63831,0.359089 -8.32268,-0.0022 -8.41874,-0.0065 -7.41455,-0.353534 z"
       id="Copy of  path6165 (2)"
       style="clip-rule:evenodd;fill:#ffffff;fill-rule:nonzero;stroke:none;stroke-width:0.958157"
       clip-path="url(#clipPath373)"
       transform="translate(-19.015062)" />
    <path
       d="m 178.13888,59.967177 c -0.6255,-0.141854 -1.19931,-0.319914 -1.27512,-0.395679 -0.19525,-0.195109 0.93211,-1.323239 1.32229,-1.323239 1.55562,0 3.85609,-1.542103 4.86383,-3.260542 1.16628,-1.988738 1.88061,-5.553583 1.88061,-9.385335 V 43.41612 l 1.43838,0.02606 c 3.63958,0.06625 6.16088,-2.191645 6.48944,-5.811469 l 0.13506,-1.488742 0.53167,1.108217 c 1.73936,3.625235 1.94419,8.884611 0.5126,13.155853 -1.57988,4.713664 -5.05966,8.121328 -9.5499,9.352137 -1.49371,0.409472 -4.96168,0.523549 -6.34885,0.208902 z"
       id="Copy of  path6204 (2)"
       style="clip-rule:evenodd;fill:#ffffff;fill-rule:nonzero;stroke:none;stroke-width:0.958157"
       clip-path="url(#clipPath367)"
       transform="translate(-19.015062)" />
    <path
       d="m 172.23378,34.05587 c 0,-0.431779 2.54615,-2.734838 3.57463,-3.23333 2.91729,-1.414019 7.3456,-1.45748 10.80919,-0.106089 l 1.19044,0.464451 -1.48795,0.117133 c -1.72049,0.135427 -2.6115,0.47196 -3.64091,1.37523 -0.6765,0.593528 -0.76296,0.620184 -1.08038,0.333104 -0.7715,-0.69773 -2.10267,-1.11813 -3.55443,-1.122546 -1.71719,-0.0052 -3.08713,0.455964 -4.69248,1.579755 -0.61496,0.430477 -1.11811,0.697012 -1.11811,0.592292 z"
       id="Copy of  path6243 (2)"
       style="clip-rule:evenodd;fill:#ffffff;fill-rule:nonzero;stroke:none;stroke-width:0.958157"
       clip-path="url(#clipPath361)"
       transform="translate(-19.015062)" />
    <path
       d="m 205.2193,40.582558 c -1.71757,-0.409088 -2.80599,-2.147603 -2.52341,-4.030674 0.61617,-4.106142 6.43294,-6.853317 14.51096,-6.853317 h 1.93672 l -0.40046,0.400152 c -0.37506,0.374779 -0.50052,0.386232 -1.97851,0.180643 -3.97005,-0.552244 -7.62914,0.857039 -7.62914,2.938342 0,0.741387 0.76657,2.143561 1.37851,2.521501 0.34057,0.210349 1.00226,1.629764 1.00226,2.150008 0,0.738054 -0.80429,1.75295 -1.78558,2.253127 -1.04414,0.532265 -3.22948,0.745478 -4.51135,0.440218 z"
       id="Copy of  path6282 (2)"
       style="clip-rule:evenodd;fill:#ffffff;fill-rule:nonzero;stroke:none;stroke-width:0.958157"
       clip-path="url(#clipPath355)"
       transform="translate(-19.015062)" />
    <path
       d="m 207.26651,60.209699 c -3.50312,-0.510522 -6.06029,-3.057482 -6.0651,-6.040925 l -0.002,-1.204852 0.5759,0.08448 c 0.31674,0.04645 1.09794,-0.0659 1.73598,-0.249609 1.66031,-0.478254 3.05756,-1.931671 3.62645,-3.772253 0.22573,-0.730305 0.41041,-1.495677 0.41041,-1.700815 0,-0.466615 0.51093,-0.689646 4.95997,-2.165113 4.9849,-1.65319 7.9056,-2.403525 8.61632,-2.213571 0.53972,0.144254 0.49908,0.172627 -0.59618,0.415938 -4.25185,0.944553 -7.47562,2.95445 -8.77025,5.467925 -0.68446,1.328833 -0.85852,4.026795 -0.3463,5.367179 0.62416,1.633097 1.83186,2.645809 3.53595,2.96534 0.71359,0.133713 0.73478,0.162639 0.73478,0.999206 V 59.0241 l -1.54576,0.488013 c -1.54143,0.486577 -4.15678,0.938767 -5.16451,0.892887 -0.29217,-0.01322 -1.05976,-0.101146 -1.70574,-0.195301 z"
       id="Copy of  path6321 (2)"
       style="clip-rule:evenodd;fill:#ffffff;fill-rule:nonzero;stroke:none;stroke-width:0.958157"
       clip-path="url(#clipPath349)"
       transform="translate(-19.015062)" />
    <path
       d="m 229.47001,59.784806 c 0.0795,-0.245299 0.18837,-1.081579 0.24195,-1.858282 0.0782,-1.133589 0.0187,-1.590377 -0.3021,-2.314878 -0.94535,-2.13567 -3.27082,-3.702485 -5.74204,-3.868764 l -1.23999,-0.08343 V 47.44712 43.234688 l 1.26703,-0.101626 c 2.34175,-0.18783 4.58574,-1.930952 5.50269,-4.274422 0.46384,-1.185475 0.62118,-3.580735 0.32822,-4.996521 l -0.14359,-0.693916 0.77222,0.849912 c 1.47918,1.627979 1.466,1.523998 1.58831,12.532765 0.0794,7.148558 0.17432,9.927696 0.34945,10.23286 0.35588,0.620098 1.29999,0.934265 2.47002,0.821912 l 1.01954,-0.09789 -0.47617,0.364453 c -1.24834,0.955625 -4.4554,2.358652 -5.39119,2.358652 -0.31382,0 -0.36099,-0.08601 -0.24436,-0.446061 z"
       id="Copy of  path6360 (2)"
       style="clip-rule:evenodd;fill:#ffffff;fill-rule:nonzero;stroke:none;stroke-width:0.958157"
       clip-path="url(#clipPath343)"
       transform="translate(-19.015062)" />
  </g>
</svg>
